<?xml version="1.0" encoding="UTF-8" standalone="no"?>
<!-- Created with Inkscape (http://www.inkscape.org/) -->

<svg
   width="5000"
   height="3000"
   viewBox="0 0 1322.9167 793.74998"
   version="1.1"
   id="svg5"
   xmlns:xlink="http://www.w3.org/1999/xlink"
   xmlns="http://www.w3.org/2000/svg"
   xmlns:svg="http://www.w3.org/2000/svg">
  <defs
     id="defs2">
    <linearGradient
       id="linearGradient11341">
      <stop
         style="stop-color:#0575e6;stop-opacity:1"
         offset="0"
         id="stop11339" />
      <stop
         style="stop-color:#021b79;stop-opacity:0"
         offset="1"
         id="stop11337" />
    </linearGradient>
    <linearGradient
       id="linearGradient11141">
      <stop
         style="stop-color:#0575e6;stop-opacity:1"
         offset="0"
         id="stop11139" />
      <stop
         style="stop-color:#021b79;stop-opacity:0"
         offset="1"
         id="stop11137" />
    </linearGradient>
    <linearGradient
       id="linearGradient10747">
      <stop
         style="stop-color:#0575e6;stop-opacity:1"
         offset="0"
         id="stop10745" />
      <stop
         style="stop-color:#021b79;stop-opacity:0"
         offset="1"
         id="stop10743" />
    </linearGradient>
    <linearGradient
       id="linearGradient37325">
      <stop
         style="stop-color:#021b79;stop-opacity:0"
         offset="0"
         id="stop37321" />
      <stop
         style="stop-color:#0575e6;stop-opacity:1"
         offset="1"
         id="stop37323" />
    </linearGradient>
    <linearGradient
       xlink:href="#linearGradient37325"
       id="linearGradient33654"
       gradientUnits="userSpaceOnUse"
       x1="1218.75"
       y1="2544.0859"
       x2="3062.5"
       y2="-318.41412"
       gradientTransform="matrix(0.26458333,0,0,0.26458333,1.6666667e-5,0)" />
    <linearGradient
       xlink:href="#linearGradient37325"
       id="linearGradient33656"
       gradientUnits="userSpaceOnUse"
       x1="2899.6133"
       y1="3000"
       x2="2899.6133"
       y2="-120.19926"
       gradientTransform="matrix(0.26458333,0,0,0.26458333,1.6666667e-5,0)" />
    <linearGradient
       xlink:href="#linearGradient10747"
       id="linearGradient33658"
       gradientUnits="userSpaceOnUse"
       x1="805.86322"
       y1="-43.414101"
       x2="805.86322"
       y2="3000"
       gradientTransform="matrix(0.26458333,0,0,0.26458333,1.6666667e-5,0)" />
    <linearGradient
       xlink:href="#linearGradient11141"
       id="linearGradient33660"
       gradientUnits="userSpaceOnUse"
       x1="2353.3516"
       y1="2486.8369"
       x2="5000"
       y2="2486.8369"
       gradientTransform="matrix(0.26458333,0,0,0.26458333,1.6666667e-5,0)" />
    <linearGradient
       xlink:href="#linearGradient11341"
       id="linearGradient33662"
       gradientUnits="userSpaceOnUse"
       x1="750.66406"
       y1="1482.6307"
       x2="1197.4008"
       y2="3149.8745"
       gradientTransform="matrix(0.26458333,0,0,0.26458333,1.6666667e-5,0)" />
    <linearGradient
       xlink:href="#linearGradient37325"
       id="linearGradient33736"
       gradientUnits="userSpaceOnUse"
       gradientTransform="matrix(-0.26458333,0,0,-0.26458333,1322.9167,793.75)"
       x1="1218.75"
       y1="2544.0859"
       x2="3062.5"
       y2="-318.41412" />
    <linearGradient
       xlink:href="#linearGradient37325"
       id="linearGradient33738"
       gradientUnits="userSpaceOnUse"
       gradientTransform="matrix(-0.26458333,0,0,-0.26458333,1322.9167,793.75)"
       x1="2899.6133"
       y1="3000"
       x2="2899.6133"
       y2="-120.19926" />
    <linearGradient
       xlink:href="#linearGradient10747"
       id="linearGradient33740"
       gradientUnits="userSpaceOnUse"
       gradientTransform="matrix(-0.26458333,0,0,-0.26458333,1322.9167,793.75)"
       x1="805.86322"
       y1="-43.414101"
       x2="805.86322"
       y2="3000" />
    <linearGradient
       xlink:href="#linearGradient11141"
       id="linearGradient33742"
       gradientUnits="userSpaceOnUse"
       gradientTransform="matrix(-0.26458333,0,0,-0.26458333,1322.9167,793.75)"
       x1="2353.3516"
       y1="2486.8369"
       x2="5000"
       y2="2486.8369" />
    <linearGradient
       xlink:href="#linearGradient11341"
       id="linearGradient33744"
       gradientUnits="userSpaceOnUse"
       gradientTransform="matrix(-0.26458333,0,0,-0.26458333,1322.9167,793.75)"
       x1="750.66406"
       y1="1482.6307"
       x2="1197.4008"
       y2="3149.8745" />
  </defs>
  <g
     id="layer1"
     style="display:inline"
     transform="translate(-6614.5829,1078.1533)">
    <g
       id="background50"
       transform="translate(6614.5829,-1078.1533)">
      <g
         id="g33762"
         transform="translate(-2.5e-5)">
        <rect
           style="fill:#000000;fill-rule:evenodd;stroke-width:1;stroke-linecap:round;paint-order:stroke fill markers"
           id="rect33604"
           width="1322.9166"
           height="793.75"
           x="1.6666667e-05"
           y="0" />
        <path
           id="path33606"
           style="opacity:0.466179;fill:url(#linearGradient33654);fill-opacity:1;fill-rule:evenodd;stroke-width:1;stroke-linecap:round;paint-order:stroke fill markers"
           d="m 1322.9167,507.89199 c -1.5576,0.67998 -3.1064,1.37983 -4.6669,2.05311 -5.1744,2.23245 -10.3646,4.42775 -15.5707,6.58614 -5.206,2.15842 -10.4275,4.28001 -15.6641,6.36397 -5.2366,2.08397 -10.4887,4.13052 -15.7546,6.13969 -5.266,2.00914 -10.5462,3.98092 -15.8404,5.91486 -5.2942,1.93398 -10.6023,3.83016 -15.9236,5.68855 -5.3213,1.85838 -10.6559,3.67876 -16.0031,5.46115 -5.3473,1.78242 -10.7071,3.52669 -16.0791,5.23277 -5.3721,1.70609 -10.7563,3.37394 -16.152,5.0033 -5.3958,1.62936 -10.803,3.22059 -16.2213,4.77285 -5.4182,1.55225 -10.8477,3.06551 -16.2873,4.5403 -5.4397,1.47476 -10.8896,2.91081 -16.3494,4.30773 -5.4599,1.39692 -10.9293,2.755 -16.4083,4.07366 -5.479,1.31866 -10.9677,2.59797 -16.4647,3.83802 -5.4969,1.24002 -11.0025,2.44081 -16.5163,3.60183 -5.5137,1.16104 -11.0354,2.2825 -16.5648,3.36415 -5.5295,1.08164 -11.0664,2.12349 -16.6104,3.12539 -5.544,1.00187 -11.0949,1.96387 -16.6522,2.8856 -5.5574,0.92175 -11.1209,1.80308 -16.6905,2.64429 -5.5696,0.84119 -11.1454,1.64214 -16.7261,2.40245 -5.5807,0.76028 -11.16646,1.48002 -16.7571,2.15902 -5.59062,0.679 -11.18608,1.31729 -16.78554,1.91461 -5.59943,0.59735 -11.2027,1.15387 -16.80982,1.66915 -5.60713,0.5153 -11.21786,0.9893 -16.83153,1.42213 -5.61366,0.43286 -11.23058,0.82408 -16.84961,1.17409 -5.61904,0.35005 -11.24027,0.65871 -16.86357,0.92554 -5.62329,0.26683 -11.24855,0.49215 -16.87494,0.6754 -5.62639,0.18328 -11.25384,0.32444 -16.88219,0.42376 -5.62835,0.0993 -11.25765,0.15658 -16.88682,0.17156 -5.62916,0.0151 -11.25849,-0.0124 -16.88732,-0.0822 -5.62885,-0.0698 -11.25688,-0.18158 -16.88425,-0.33641 -5.62737,-0.15487 -11.25379,-0.3524 -16.87856,-0.59275 -5.62476,-0.24032 -11.24773,-0.52388 -16.86873,-0.85005 -5.62102,-0.32621 -11.24024,-0.69501 -16.85634,-1.10744 -5.61612,-0.41244 -11.2292,-0.86831 -16.83927,-1.36737 -5.61009,-0.49906 -11.21677,-1.04122 -16.81967,-1.62727 -5.60287,-0.58608 -11.20232,-1.21586 -16.79689,-1.88931 -5.59456,-0.67344 -11.18444,-1.39059 -16.76953,-2.1518 -5.58508,-0.76121 -11.16504,-1.56652 -16.73955,-2.41586 -8.27392,-1.26066 -16.53278,-2.61535 -24.77418,-4.06334 -8.24142,-1.44798 -16.46544,-2.98955 -24.67086,-4.62296 -8.20539,-1.6334 -16.39229,-3.35901 -24.55817,-5.17591 -8.16592,-1.81689 -16.31125,-3.7247 -24.43417,-5.72317 -8.12295,-1.99848 -16.22338,-4.08763 -24.29981,-6.26576 -8.07646,-2.17816 -16.12863,-4.44524 -24.15513,-6.80114 -8.02648,-2.3559 -16.02703,-4.80063 -24.00007,-7.33237 -7.97306,-2.53175 -15.9186,-5.1507 -23.83472,-7.85638 -7.91612,-2.70566 -15.80282,-5.49804 -23.65851,-8.3757 -7.85569,-2.87766 -15.68069,-5.8406 -23.47246,-8.88836 -7.79179,-3.04774 -15.55067,-6.17985 -23.27508,-9.39581 -7.7244,-3.21593 -15.41433,-6.51589 -23.06783,-9.89809 -7.65352,-3.38219 -15.27064,-6.84715 -22.84978,-10.39368 -7.57915,-3.54655 -15.12007,-7.1746 -22.62135,-10.88358 -7.50131,-3.70898 -14.96266,-7.49879 -22.38261,-11.3683 -7.41995,-3.8695 -14.79841,-7.81872 -22.13354,-11.84682 -7.33512,-4.0281 -14.6273,-8.13485 -21.8741,-12.31966 -7.24684,-4.18478 -14.44834,-8.44778 -21.60334,-12.78734 -7.15502,-4.33956 -14.26353,-8.75586 -21.32325,-13.24827 -7.05973,-4.49244 -14.07085,-9.06071 -21.0318,-13.70409 -6.96094,-4.64336 -13.87131,-9.36176 -20.73,-14.15415 -6.85868,-4.7924 -13.66546,-9.65909 -20.41839,-14.5986 -6.75293,-4.93951 -13.45223,-9.95209 -20.09593,-15.03683 -6.64369,-5.08471 -13.23216,-10.24133 -19.76313,-15.46934 -6.53097,-5.22798 -13.00421,-10.52732 -19.41897,-15.89669 -6.41476,-5.36935 -12.77096,-10.80852 -19.06602,-16.31736 C 100.08141,316.07413 93.847158,310.49597 87.675283,304.84961 81.503409,299.20324 75.393957,293.48845 69.348755,287.70646 63.303552,281.92449 57.322773,276.07543 51.407732,270.15974 45.492689,264.24404 39.643429,258.26155 33.862032,252.21406 28.080634,246.16657 22.366773,240.05405 16.72251,233.87668 11.078247,227.69931 5.5036595,221.45706 1.6666667e-5,215.15172 V 793.74999 H 1322.9167 Z" />
        <path
           id="path33608"
           style="opacity:0.466179;fill:url(#linearGradient33656);fill-opacity:1;fill-rule:evenodd;stroke-width:1;stroke-linecap:round;paint-order:stroke fill markers"
           d="m 1322.9167,141.44666 c -1.3311,2.11134 -2.6213,4.24812 -3.9657,6.35104 -4.5226,7.07432 -9.1206,14.10057 -13.7924,21.07778 -4.6719,6.97721 -9.4178,13.90548 -14.2364,20.78271 -4.8185,6.87723 -9.7097,13.70343 -14.6725,20.47782 -4.9627,6.77438 -9.9974,13.49702 -15.1019,20.16569 -5.1044,6.66867 -10.2789,13.28366 -15.5225,19.84375 -5.2437,6.56009 -10.5562,13.0649 -15.9365,19.51354 -5.3804,6.44864 -10.8286,12.84126 -16.3432,19.17557 -5.5146,6.33431 -11.0959,12.61068 -16.7422,18.8278 -5.6462,6.21713 -11.3578,12.37467 -17.1333,18.47173 -5.7755,6.09709 -11.615,12.13379 -17.5173,18.10795 -5.9022,5.97413 -11.867,11.88596 -17.8934,17.73431 -6.0265,5.84835 -12.1143,11.63275 -18.2625,17.35243 -6.1481,5.71968 -12.3568,11.37462 -18.6242,16.96278 -6.2674,5.58816 -12.5935,11.10959 -18.9776,16.56334 -6.3841,5.45375 -12.8261,10.83964 -19.3244,16.15612 -6.4984,5.31649 -13.0533,10.56378 -19.6634,15.74012 -6.6101,5.17636 -13.2753,10.282 -19.9947,15.31535 -6.7193,5.03335 -13.4926,9.99429 -20.3186,14.88178 -6.8261,4.88746 -13.70514,9.70121 -20.63545,14.43993 -6.93031,4.73874 -13.91187,9.40273 -20.94394,13.98984 -7.03207,4.58713 -14.11444,9.0973 -21.24573,13.52995 -7.13131,4.43264 -14.31171,8.78747 -21.53978,13.06277 -7.22807,4.27529 -14.50374,8.47121 -21.82606,12.5863 -6.17424,3.46986 -12.38022,6.88229 -18.61696,10.2371 -6.23673,3.35479 -12.50444,6.65218 -18.80142,9.89137 -6.29698,3.23922 -12.62367,6.42051 -18.97869,9.54363 -6.355,3.12311 -12.73842,6.18773 -19.14922,9.19427 -6.4108,3.00651 -12.84867,5.955 -19.31302,8.84441 -6.46438,2.88941 -12.95496,5.71966 -19.47067,8.49146 -6.51568,2.77183 -13.05673,5.48484 -19.62152,8.13853 -6.56482,2.65369 -13.15352,5.24843 -19.7652,7.78351 -6.6117,2.53505 -13.24636,5.01047 -19.90267,7.42641 -6.65631,2.41593 -13.33415,4.77202 -20.03287,7.06831 -6.69875,2.2963 -13.41853,4.533 -20.15744,6.70915 -6.73891,2.17614 -13.49685,4.29191 -20.2737,6.34741 -6.77685,2.05552 -13.57223,4.05082 -20.3848,5.98516 -6.81257,1.93437 -13.64263,3.80765 -20.48867,5.62033 -6.84604,1.81269 -13.70801,3.56447 -20.58532,5.25497 -6.87729,1.69053 -13.76992,3.31973 -20.67624,4.88757 -6.90634,1.56784 -13.82635,3.07446 -20.75947,4.51911 -6.93311,1.44465 -13.87927,2.8276 -20.83697,4.14859 -6.95767,1.32096 -13.92724,2.57974 -20.90724,3.7765 -6.98,1.19679 -13.97019,2.33135 -20.97029,3.40342 -7.00011,1.07206 -14.01022,2.08187 -21.02819,3.02876 -7.01796,0.94687 -14.04416,1.83086 -21.07776,2.65203 -7.03363,0.82116 -14.0742,1.57935 -21.12121,2.27427 -7.047,0.69493 -14.10021,1.32678 -21.15839,1.89498 -7.05818,0.56819 -14.12176,1.07262 -21.18889,1.5136 -7.06713,0.44098 -14.1378,0.81849 -21.21162,1.1317 -7.07385,0.31324 -14.1509,0.56227 -21.22921,0.74726 -7.07832,0.18497 -14.15791,0.30602 -21.23848,0.36224 -7.08057,0.0562 -14.16206,0.0477 -21.24265,-0.0254 -7.08057,-0.073 -14.16063,-0.2106 -21.23901,-0.41341 -7.07837,-0.2028 -14.15475,-0.47051 -21.22868,-0.80356 -7.07392,-0.33306 -14.1454,-0.73144 -21.21265,-1.19528 -7.06725,-0.46385 -14.12952,-0.99312 -21.1863,-1.5875 -7.05678,-0.59439 -14.10804,-1.25405 -21.1522,-1.97816 -7.04416,-0.72414 -14.08147,-1.5127 -21.11085,-2.36575 -7.0294,-0.85307 -14.05084,-1.77056 -21.06332,-2.75177 -7.01248,-0.98121 -14.01563,-2.02615 -21.00905,-3.1347 -6.99342,-1.10855 -13.9769,-2.28095 -20.94911,-3.51608 -6.97222,-1.2351 -13.93358,-2.53291 -20.88245,-3.89382 C 94.531778,670.4068 87.595464,668.98302 80.672093,667.49715 73.748725,666.0113 66.838338,664.46304 59.942611,662.853 53.046884,661.24295 46.165881,659.57121 39.299944,657.83779 32.434004,656.10438 25.583266,654.30912 18.74926,652.4531 12.484053,650.75164 6.2366559,648.9851 1.6666667e-5,647.18117 V 793.74999 H 1322.9167 Z" />
        <path
           id="path33610"
           style="opacity:0.466179;fill:url(#linearGradient33658);fill-opacity:1;fill-rule:evenodd;stroke-width:1;stroke-linecap:round;paint-order:stroke fill markers"
           d="m 767.18936,793.74999 c -4.25559,-1.00108 -8.52683,-1.93561 -12.77131,-2.98225 -9.77841,-2.41123 -19.52662,-4.94361 -29.24164,-7.59592 -9.715,-2.65229 -19.39679,-5.42452 -29.04215,-8.31681 -9.64536,-2.89227 -19.25412,-5.90439 -28.82357,-9.03563 -9.56943,-3.13121 -19.09964,-6.38172 -28.58688,-9.75082 -9.48722,-3.36907 -18.93181,-6.85702 -28.33058,-10.46292 -9.39874,-3.6059 -18.7516,-7.32978 -28.05565,-11.1714 -9.30402,-3.84164 -18.55909,-7.801 -27.76212,-11.87733 -9.20303,-4.0763 -18.35372,-8.26963 -27.44949,-12.57958 -9.09576,-4.30994 -18.13652,-8.73628 -27.11876,-13.27878 -4.49111,-2.27126 -8.9676,-4.57168 -13.42914,-6.90086 -4.46156,-2.32921 -8.90804,-4.68752 -13.33926,-7.07451 -4.43118,-2.38699 -8.84716,-4.80243 -13.24723,-7.2471 -4.40008,-2.44469 -8.78454,-4.91852 -13.15271,-7.42074 -4.36816,-2.50222 -8.72005,-5.0332 -13.05552,-7.59283 -4.33546,-2.55963 -8.65433,-5.14797 -12.95632,-7.76488 -4.302,-2.61692 -8.58729,-5.26243 -12.85502,-7.93647 -4.26773,-2.67407 -8.51795,-5.37647 -12.75064,-8.10752 -5.10821,-3.296 -10.19054,-6.63176 -15.24662,-10.00662 -5.05608,-3.37487 -10.08602,-6.78903 -15.089,-10.24176 -5.00298,-3.45273 -9.97887,-6.9437 -14.92777,-10.47327 -4.94889,-3.52954 -9.87062,-7.09734 -14.76449,-10.70271 -4.89384,-3.60534 -9.76021,-7.24839 -14.59806,-10.92851 -4.83786,-3.68011 -9.64716,-7.3974 -14.42805,-11.15126 -4.78089,-3.75385 -9.53304,-7.54433 -14.25599,-11.37089 -4.72294,-3.82656 -9.41673,-7.68916 -14.08078,-11.5874 -4.66407,-3.89824 -9.29833,-7.83196 -13.90252,-11.80084 -4.60419,-3.96888 -9.17829,-7.97317 -13.72164,-12.01166 -4.54336,-4.0385 -9.05612,-8.11128 -13.53768,-12.21838 -4.48155,-4.1071 -8.93181,-8.24836 -13.3506,-12.42301 -4.4188,-4.17465 -8.80589,-8.38287 -13.16096,-12.62404 -4.35506,-4.24119 -8.67834,-8.51529 -12.96871,-12.82197 -4.29038,-4.30665 -8.54815,-8.64563 -12.77287,-13.01676 -4.22471,-4.37115 -8.41634,-8.77443 -12.57442,-13.209 -4.15809,-4.4346 -8.2824,-8.90066 -12.37289,-13.39766 -4.0905,-4.49699 -8.14734,-9.02477 -12.16929,-13.58315 -4.02194,-4.55835 -8.00912,-9.14736 -11.96154,-13.76608 -3.95242,-4.6187 -7.86981,-9.26735 -11.75174,-13.9454 -3.88193,-4.67804 -7.72835,-9.3853 -11.53883,-14.1216 -3.81048,-4.73634 -7.58528,-9.50167 -11.32334,-14.29526 -3.738057,-4.79358 -7.439554,-9.61546 -11.104229,-14.46527 -3.664674,-4.84981 -7.292212,-9.72767 -10.882539,-14.6327 -3.590327,-4.905 -7.143253,-9.83731 -10.658264,-14.79651 -3.51501,-4.95919 -6.992159,-9.94542 -10.430888,-14.95774 -3.438731,-5.01232 -6.838929,-10.05091 -10.200412,-15.11535 -3.361481,-5.06444 -6.684079,-10.15437 -9.967349,-15.26987 -3.28327,-5.11554 -6.527612,-10.25623 -9.731706,-15.4218 C 24.5441,257.13159 21.380217,251.94113 18.256266,246.72654 15.132316,241.51195 12.04851,236.27277 9.0056683,231.01019 5.9628272,225.7476 2.9607832,220.46127 1.6666667e-5,215.15172 v 578.59827 z" />
        <path
           id="path33612"
           style="opacity:0.466179;fill:url(#linearGradient33660);fill-opacity:1;fill-rule:evenodd;stroke-width:1;stroke-linecap:round;paint-order:stroke fill markers"
           d="m 1322.9167,522.20119 c -0.138,0.13954 -0.2717,0.28329 -0.4098,0.42272 -4.7704,4.8169 -9.5934,9.58115 -14.4679,14.29216 -4.8744,4.71098 -9.8003,9.36876 -14.7769,13.97124 -4.9765,4.60245 -10.004,9.14972 -15.0807,13.64102 -5.0766,4.4913 -10.2026,8.92654 -15.3774,13.30409 -5.1747,4.37756 -10.3983,8.69771 -15.6693,12.9589 -5.2709,4.26119 -10.589,8.46323 -15.954,12.60544 -5.3651,4.14221 -10.7769,8.22462 -16.2342,12.24523 -5.4572,4.02064 -10.9601,7.97986 -16.5075,11.8763 -5.5474,3.89641 -11.1396,7.72993 -16.7752,11.49953 -5.6356,3.76963 -11.3148,7.4749 -17.0367,11.11509 -4.4956,2.8601 -9.0165,5.67997 -13.562,8.45945 -4.5454,2.77945 -9.1155,5.51868 -13.7092,8.21706 -4.5937,2.69838 -9.211,5.35633 -13.8513,7.97316 -4.6404,2.61684 -9.3039,5.19234 -13.9894,7.72719 -4.6855,2.53481 -9.393,5.0288 -14.1221,7.48117 -4.7292,2.45239 -9.4801,4.86317 -14.2513,7.23265 -4.7713,2.36947 -9.563,4.69744 -14.3749,6.98354 -4.8118,2.28611 -9.6433,4.53062 -14.4942,6.73293 -4.8509,2.20229 -9.721,4.36272 -14.6094,6.48073 -4.8884,2.11805 -9.7952,4.1937 -14.7195,6.22703 -4.9244,2.03329 -9.8662,4.0241 -14.825,5.97222 -4.9588,1.94813 -9.93449,3.85345 -14.9262,5.71596 -4.99168,1.86248 -9.99976,3.68218 -15.02285,5.45856 -5.02306,1.77642 -10.06139,3.50983 -15.11433,5.1997 -5.0529,1.68984 -10.12041,3.33584 -15.20163,4.93871 -5.08124,1.60285 -10.17582,3.16233 -15.28384,4.67776 -5.108,1.5154 -10.22911,2.9872 -15.36237,4.4147 -5.13326,1.42751 -10.27877,2.81048 -15.43574,4.14962 -5.15697,1.33914 -10.32534,2.63419 -15.50448,3.88451 -5.17916,1.25034 -10.36928,2.45631 -15.56909,3.61735 -5.1998,1.16105 -10.40958,2.27733 -15.62848,3.34865 -5.21894,1.07132 -10.44679,2.09772 -15.68329,3.07888 -5.2365,0.98112 -10.48139,1.91706 -15.73392,2.80757 -5.25256,0.89051 -10.51285,1.73532 -15.77991,2.53473 -5.26709,0.79942 -10.54121,1.55348 -15.82126,2.26137 -5.28005,0.70787 -10.56593,1.36954 -15.85743,1.98541 -5.29151,0.61587 -10.58858,1.18552 -15.89,1.70894 -5.30143,0.5234 -10.60755,1.00092 -15.91736,1.43142 -5.30982,0.43051 -10.62345,0.81421 -15.94012,1.15137 -5.31667,0.33713 -10.6362,0.6274 -15.95821,0.87074 -5.32199,0.24334 -10.64636,0.43953 -15.97213,0.58859 -5.3258,0.14907 -10.65289,0.25109 -15.98094,0.30541 h 642.38148 z" />
        <path
           id="path33614"
           style="opacity:0.466179;fill:url(#linearGradient33662);fill-opacity:1;fill-rule:evenodd;stroke-width:1;stroke-linecap:round;paint-order:stroke fill markers"
           d="m 718.12206,793.74999 c -1.67378,-0.20743 -3.35166,-0.38034 -5.02502,-0.59118 -13.48126,-1.69874 -26.9486,-3.50857 -40.4001,-5.42912 -13.45149,-1.92056 -26.88756,-3.95182 -40.30556,-6.0937 -13.418,-2.14186 -26.8183,-4.39404 -40.1991,-6.75669 -13.3808,-2.36262 -26.74189,-4.83579 -40.08178,-7.41865 -13.3399,-2.58289 -26.65836,-5.27548 -39.95365,-8.07808 -13.29526,-2.8026 -26.56715,-5.71516 -39.8141,-8.73694 -13.24692,-3.02175 -26.46884,-6.15277 -39.66371,-9.39321 -13.19491,-3.24043 -26.36285,-6.58992 -39.502,-10.04847 -13.13913,-3.45856 -26.24971,-7.02607 -39.32936,-10.70221 -13.07968,-3.67613 -26.1284,-7.46112 -39.14492,-11.35433 -13.0165,-3.89321 -26.00045,-7.89469 -38.95008,-12.00444 -12.9496,-4.10975 -25.86486,-8.32773 -38.74388,-12.65349 -12.87901,-4.32575 -25.72214,-8.75927 -38.52684,-13.30049 -12.80472,-4.54121 -25.57123,-9.19025 -38.29792,-13.94643 -12.7267,-4.75618 -25.4137,-9.61975 -38.05866,-14.59032 C 109.48041,637.68165 96.877391,632.60406 84.317866,627.41957 71.758342,622.23512 59.24273,616.94395 46.772354,611.54614 38.065321,607.77728 29.380077,603.95754 20.717615,600.0874 13.793461,596.99387 6.895045,593.84379 1.6666667e-5,590.68591 v 203.06408 z" />
        <path
           id="path33719"
           style="opacity:0.466179;fill:url(#linearGradient33736);fill-opacity:1;fill-rule:evenodd;stroke-width:1;stroke-linecap:round;paint-order:stroke fill markers"
           d="m 2e-5,285.85801 c 1.5576,-0.67998 3.1064,-1.37983 4.6669,-2.05311 5.1744,-2.23245 10.3646,-4.42775 15.5707,-6.58614 5.206,-2.15842 10.4275,-4.28001 15.6641,-6.36397 5.2366,-2.08397 10.4887,-4.13052 15.7546,-6.13969 5.266,-2.00914 10.5462,-3.98092 15.8404,-5.91486 5.2942,-1.93398 10.6023,-3.83016 15.9236,-5.68855 5.3213,-1.85838 10.6559,-3.67876 16.0031,-5.46115 5.3473,-1.78242 10.7071,-3.52669 16.0791,-5.23277 5.3721,-1.70609 10.7563,-3.37394 16.152,-5.0033 5.3958,-1.62936 10.803,-3.22059 16.2213,-4.77285 5.4182,-1.55225 10.8477,-3.06551 16.2873,-4.5403 5.4397,-1.47476 10.8896,-2.91081 16.3494,-4.30773 5.4599,-1.39692 10.9293,-2.755 16.4083,-4.07366 5.479,-1.31866 10.9677,-2.59797 16.4647,-3.83802 5.4969,-1.24002 11.0025,-2.44081 16.5163,-3.60183 5.5137,-1.16104 11.0354,-2.2825 16.5648,-3.36415 5.5295,-1.08164 11.0664,-2.12349 16.6104,-3.12539 5.544,-1.00187 11.0949,-1.96387 16.6522,-2.8856 5.5574,-0.92175 11.1209,-1.80308 16.6905,-2.64429 5.5696,-0.84119 11.1454,-1.64214 16.7261,-2.40245 5.5807,-0.76028 11.16646,-1.48002 16.7571,-2.15902 5.59062,-0.679 11.18608,-1.31729 16.78554,-1.91461 5.59943,-0.59735 11.2027,-1.15387 16.80982,-1.66915 5.60713,-0.5153 11.21786,-0.9893 16.83153,-1.42213 5.61366,-0.43286 11.23058,-0.82408 16.84961,-1.17409 5.61904,-0.35005 11.24027,-0.65871 16.86357,-0.92554 5.62329,-0.26683 11.24855,-0.49215 16.87494,-0.6754 5.62639,-0.18328 11.25384,-0.32444 16.88219,-0.42376 5.62835,-0.0993 11.25765,-0.15658 16.88682,-0.17156 5.62916,-0.0151 11.25849,0.0124 16.88732,0.0822 5.62885,0.0698 11.25688,0.18158 16.88425,0.33641 5.62737,0.15487 11.25379,0.3524 16.87856,0.59275 5.62476,0.24032 11.24773,0.52388 16.86873,0.85005 5.62102,0.32621 11.24024,0.69501 16.85634,1.10744 5.61612,0.41244 11.2292,0.86831 16.83927,1.36737 5.61009,0.49906 11.21677,1.04122 16.81967,1.62727 5.60287,0.58608 11.20232,1.21586 16.79689,1.88931 5.59456,0.67344 11.18444,1.39059 16.76953,2.1518 5.58508,0.76121 11.16504,1.56652 16.73955,2.41586 8.27392,1.26066 16.53278,2.61535 24.77418,4.06334 8.24142,1.44798 16.46544,2.98955 24.67086,4.62296 8.20539,1.6334 16.39229,3.35901 24.55817,5.17591 8.16592,1.81689 16.31125,3.7247 24.43417,5.72317 8.12295,1.99848 16.22338,4.08763 24.29981,6.26576 8.07646,2.17816 16.12863,4.44524 24.15513,6.80114 8.02648,2.3559 16.02703,4.80063 24.00007,7.33237 7.97306,2.53175 15.9186,5.1507 23.83472,7.85638 7.91612,2.70566 15.80282,5.49804 23.65851,8.3757 7.85569,2.87766 15.68069,5.8406 23.47246,8.88836 7.79179,3.04774 15.55067,6.17985 23.27508,9.39581 7.7244,3.21593 15.41433,6.51589 23.06783,9.89809 7.65352,3.38219 15.27064,6.84715 22.84978,10.39368 7.57915,3.54655 15.12007,7.1746 22.62135,10.88358 7.50131,3.70898 14.96266,7.49879 22.38261,11.3683 7.41995,3.8695 14.79842,7.81872 22.13352,11.84682 7.3351,4.0281 14.6273,8.13485 21.8741,12.31966 7.2469,4.18478 14.4484,8.44778 21.6034,12.78734 7.155,4.33956 14.2635,8.75586 21.3232,13.24827 7.0597,4.49244 14.0709,9.06071 21.0318,13.70409 6.961,4.64336 13.8713,9.36176 20.73,14.15415 6.8587,4.7924 13.6655,9.65909 20.4184,14.5986 6.7529,4.93951 13.4522,9.95209 20.0959,15.03683 6.6437,5.08471 13.2322,10.24133 19.7632,15.46934 6.5309,5.22798 13.0042,10.52732 19.4189,15.89669 6.4148,5.36935 12.771,10.80852 19.0661,16.31736 6.295,5.50877 12.5293,11.08693 18.7011,16.73329 6.1719,5.64637 12.2814,11.36116 18.3266,17.14315 6.0452,5.78197 12.0259,11.63103 17.941,17.54672 5.915,5.9157 11.7643,11.89819 17.5457,17.94568 5.7814,6.04749 11.4952,12.16001 17.1395,18.33738 5.6443,6.17737 11.2189,12.41962 16.7225,18.72496 V 1e-5 H 2e-5 Z" />
        <path
           id="path33721"
           style="opacity:0.466179;fill:url(#linearGradient33738);fill-opacity:1;fill-rule:evenodd;stroke-width:1;stroke-linecap:round;paint-order:stroke fill markers"
           d="m 2e-5,652.30334 c 1.3311,-2.11134 2.6213,-4.24812 3.9657,-6.35104 4.5226,-7.07432 9.1206,-14.10057 13.7924,-21.07778 4.6719,-6.97721 9.4178,-13.90548 14.2364,-20.78271 4.8185,-6.87723 9.7097,-13.70343 14.6725,-20.47782 4.9627,-6.77438 9.9974,-13.49702 15.1019,-20.16569 5.1044,-6.66867 10.2789,-13.28366 15.5225,-19.84375 5.2437,-6.56009 10.5562,-13.0649 15.9365,-19.51354 5.3804,-6.44864 10.8286,-12.84126 16.3432,-19.17557 5.5146,-6.33431 11.0959,-12.61068 16.7422,-18.8278 5.6462,-6.21713 11.3578,-12.37467 17.1333,-18.47173 5.7755,-6.09709 11.615,-12.13379 17.5173,-18.10795 5.9022,-5.97413 11.867,-11.88596 17.8934,-17.73431 6.0265,-5.84835 12.1143,-11.63275 18.2625,-17.35243 6.1481,-5.71968 12.3568,-11.37462 18.6242,-16.96278 6.2674,-5.58816 12.5935,-11.10959 18.9776,-16.56334 6.3841,-5.45375 12.8261,-10.83964 19.3244,-16.15612 6.4984,-5.31649 13.0533,-10.56378 19.6634,-15.74012 6.6101,-5.17636 13.2753,-10.282 19.9947,-15.31535 6.7193,-5.03335 13.4926,-9.99429 20.3186,-14.88178 6.8261,-4.88746 13.70514,-9.70121 20.63545,-14.43993 6.93031,-4.73874 13.91187,-9.40273 20.94394,-13.98984 7.03207,-4.58713 14.11444,-9.0973 21.24573,-13.52995 7.13131,-4.43264 14.31171,-8.78747 21.53978,-13.06277 7.22807,-4.27529 14.50374,-8.47121 21.82606,-12.5863 6.17424,-3.46986 12.38022,-6.88229 18.61696,-10.2371 6.23673,-3.35479 12.50444,-6.65218 18.80142,-9.89137 6.29698,-3.23922 12.62367,-6.42051 18.97869,-9.54363 6.355,-3.12311 12.73842,-6.18773 19.14922,-9.19427 6.4108,-3.00651 12.84867,-5.955 19.31302,-8.84441 6.46438,-2.88941 12.95496,-5.71966 19.47067,-8.49146 6.51568,-2.77183 13.05673,-5.48484 19.62152,-8.13853 6.56482,-2.65369 13.15352,-5.24843 19.7652,-7.78351 6.6117,-2.53505 13.24636,-5.01047 19.90267,-7.42641 6.65631,-2.41593 13.33415,-4.77202 20.03287,-7.06831 6.69875,-2.2963 13.41853,-4.533 20.15744,-6.70915 6.73891,-2.17614 13.49685,-4.29191 20.2737,-6.34741 6.77685,-2.05552 13.57223,-4.05082 20.3848,-5.98516 6.81257,-1.93437 13.64263,-3.80765 20.48867,-5.62033 6.84604,-1.81269 13.70801,-3.56447 20.58532,-5.25497 6.87729,-1.69053 13.76992,-3.31973 20.67624,-4.88757 6.90634,-1.56784 13.82635,-3.07446 20.75947,-4.51911 6.93311,-1.44465 13.87927,-2.8276 20.83697,-4.14859 6.95767,-1.32096 13.92724,-2.57974 20.90724,-3.7765 6.98,-1.19679 13.97019,-2.33135 20.97029,-3.40342 7.00011,-1.07206 14.01022,-2.08187 21.02819,-3.02876 7.01796,-0.94687 14.04416,-1.83086 21.07776,-2.65203 7.03363,-0.82116 14.0742,-1.57935 21.12121,-2.27427 7.047,-0.69493 14.10021,-1.32678 21.15839,-1.89498 7.05818,-0.56819 14.12176,-1.07262 21.18889,-1.5136 7.06713,-0.44098 14.1378,-0.81849 21.21162,-1.1317 7.07385,-0.31324 14.1509,-0.56227 21.22921,-0.74726 7.07832,-0.18497 14.15791,-0.30602 21.23848,-0.36224 7.08057,-0.0562 14.16209,-0.0477 21.24269,0.0254 7.0805,0.073 14.1606,0.2106 21.239,0.41341 7.0783,0.2028 14.1547,0.47051 21.2286,0.80356 7.074,0.33306 14.1454,0.73144 21.2127,1.19528 7.0672,0.46385 14.1295,0.99312 21.1863,1.5875 7.0568,0.59439 14.108,1.25405 21.1522,1.97816 7.0442,0.72414 14.0815,1.5127 21.1108,2.36575 7.0294,0.85307 14.0509,1.77056 21.0634,2.75177 7.0124,0.98121 14.0156,2.02615 21.009,3.1347 6.9934,1.10855 13.9769,2.28095 20.9491,3.51608 6.9722,1.2351 13.9336,2.53291 20.8825,3.89382 6.9488,1.36088 13.8852,2.78466 20.8085,4.27053 6.9234,1.48585 13.8338,3.03411 20.7295,4.64415 6.8957,1.61005 13.7767,3.28179 20.6427,5.01521 6.8659,1.73341 13.7167,3.52867 20.5507,5.38469 6.2652,1.70146 12.5126,3.468 18.7492,5.27193 V 1e-5 H 2e-5 Z" />
        <path
           id="path33723"
           style="opacity:0.466179;fill:url(#linearGradient33740);fill-opacity:1;fill-rule:evenodd;stroke-width:1;stroke-linecap:round;paint-order:stroke fill markers"
           d="m 555.72736,1e-5 c 4.25559,1.00108 8.52683,1.93561 12.77131,2.98225 9.77841,2.41123 19.52662,4.94361 29.24164,7.59592 9.715,2.65229 19.39679,5.42452 29.04215,8.31681 9.64536,2.89227 19.25412,5.90439 28.82357,9.03563 9.56943,3.13121 19.09964,6.38172 28.58688,9.75082 9.48722,3.36907 18.93181,6.85702 28.33058,10.46292 9.39874,3.6059 18.7516,7.32978 28.05565,11.1714 9.30402,3.84164 18.55909,7.801 27.76212,11.87733 9.20303,4.0763 18.35372,8.26963 27.44949,12.57958 9.09576,4.30994 18.13652,8.73628 27.11876,13.27878 4.49111,2.27126 8.9676,4.57168 13.42914,6.90086 4.46156,2.32921 8.90804,4.68752 13.33926,7.07451 4.43118,2.38699 8.84716,4.80243 13.24723,7.2471 4.40008,2.44469 8.78454,4.91852 13.15271,7.42074 4.36816,2.50222 8.72005,5.0332 13.05552,7.59283 4.33546,2.55963 8.65433,5.14797 12.95632,7.76488 4.302,2.61692 8.58729,5.26243 12.85502,7.93647 4.26773,2.67407 8.51795,5.37647 12.75064,8.10752 5.10821,3.296 10.19054,6.63176 15.24662,10.00662 5.05608,3.37487 10.08602,6.78903 15.089,10.24176 5.00298,3.45273 9.97887,6.9437 14.92777,10.47327 4.94889,3.52954 9.87062,7.09734 14.76449,10.70271 4.89384,3.60534 9.76021,7.24839 14.59807,10.92851 4.8378,3.68011 9.6471,7.3974 14.428,11.15126 4.7809,3.75385 9.5331,7.54433 14.256,11.37089 4.723,3.82656 9.4168,7.68916 14.0808,11.5874 4.6641,3.89824 9.2983,7.83196 13.9025,11.80084 4.6042,3.96888 9.1783,7.97317 13.7217,12.01166 4.5433,4.0385 9.0561,8.11128 13.5377,12.21838 4.4815,4.1071 8.9318,8.24836 13.3506,12.42301 4.4187,4.17465 8.8058,8.38287 13.1609,12.62404 4.3551,4.24119 8.6783,8.51529 12.9687,12.82197 4.2904,4.30665 8.5482,8.64563 12.7729,13.01676 4.2247,4.37115 8.4163,8.77443 12.5744,13.209 4.1581,4.4346 8.2824,8.90066 12.3729,13.39766 4.0905,4.49699 8.1473,9.02477 12.1693,13.58315 4.0219,4.55835 8.0091,9.14736 11.9615,13.76608 3.9525,4.6187 7.8698,9.26735 11.7518,13.9454 3.8819,4.67804 7.7283,9.3853 11.5388,14.1216 3.8105,4.73634 7.5853,9.50167 11.3233,14.29526 3.7381,4.79358 7.4396,9.61546 11.1043,14.46527 3.6646,4.84981 7.2922,9.72767 10.8825,14.6327 3.5903,4.905 7.1433,9.83731 10.6583,14.79651 3.515,4.95919 6.9921,9.94542 10.4309,14.95774 3.4387,5.01232 6.8389,10.05091 10.2004,15.11535 3.3615,5.06444 6.6841,10.15437 9.9673,15.26987 3.2833,5.11554 6.5276,10.25623 9.7317,15.4218 3.2041,5.16558 6.368,10.35604 9.492,15.57063 3.1239,5.21459 6.2077,10.45377 9.2506,15.71635 3.0428,5.26259 6.0448,10.54892 9.0056,15.85847 V 1e-5 Z" />
        <path
           id="path33725"
           style="opacity:0.466179;fill:url(#linearGradient33742);fill-opacity:1;fill-rule:evenodd;stroke-width:1;stroke-linecap:round;paint-order:stroke fill markers"
           d="m 2e-5,271.54881 c 0.138,-0.13954 0.2717,-0.28329 0.4098,-0.42272 4.7704,-4.8169 9.5934,-9.58115 14.4679,-14.29216 4.8744,-4.71098 9.8003,-9.36876 14.7769,-13.97124 4.9765,-4.60245 10.004,-9.14972 15.0807,-13.64102 5.0766,-4.4913 10.2026,-8.92654 15.3774,-13.30409 5.1747,-4.37756 10.3983,-8.69771 15.6693,-12.9589 5.2709,-4.26119 10.589,-8.46323 15.954,-12.60544 5.3651,-4.14221 10.7769,-8.22462 16.2342,-12.24523 5.4572,-4.02064 10.9601,-7.97986 16.5075,-11.8763 5.5474,-3.89641 11.1396,-7.72993 16.7752,-11.49953 5.6356,-3.76963 11.3148,-7.4749 17.0367,-11.11509 4.4956,-2.8601 9.0165,-5.67997 13.562,-8.45945 4.5454,-2.77945 9.1155,-5.51868 13.7092,-8.21706 4.5937,-2.69838 9.211,-5.35633 13.8513,-7.97316 4.6404,-2.61684 9.3039,-5.19234 13.9894,-7.72719 4.6855,-2.53481 9.393,-5.0288 14.1221,-7.48117 4.7292,-2.45239 9.4801,-4.86317 14.2513,-7.23265 4.7713,-2.36947 9.563,-4.69744 14.3749,-6.98354 4.8118,-2.28611 9.6433,-4.53062 14.4942,-6.73293 4.8509,-2.20229 9.721,-4.36272 14.6094,-6.48073 4.8884,-2.11805 9.7952,-4.1937 14.7195,-6.22703 4.9244,-2.03329 9.8662,-4.0241 14.825,-5.97222 4.9588,-1.94813 9.93449,-3.85345 14.9262,-5.71596 4.99168,-1.86248 9.99976,-3.68218 15.02285,-5.45856 5.02306,-1.77642 10.06139,-3.50983 15.11433,-5.1997 5.0529,-1.68984 10.12041,-3.33584 15.20163,-4.93871 5.08124,-1.60285 10.17582,-3.16233 15.28384,-4.67776 5.108,-1.5154 10.22911,-2.9872 15.36237,-4.4147 5.13326,-1.42751 10.27877,-2.81048 15.43574,-4.14962 5.15697,-1.33914 10.32534,-2.63419 15.50448,-3.88451 5.17916,-1.25034 10.36928,-2.45631 15.56909,-3.61735 5.1998,-1.16105 10.40958,-2.27733 15.62848,-3.34865 5.21894,-1.07132 10.44679,-2.09772 15.68329,-3.07888 5.2365,-0.98112 10.48139,-1.91706 15.73392,-2.80757 5.25256,-0.89051 10.51285,-1.73532 15.77991,-2.53473 5.26709,-0.79942 10.54121,-1.55348 15.82126,-2.26137 5.28005,-0.70787 10.56593,-1.36954 15.85743,-1.98541 5.29151,-0.61587 10.58858,-1.18552 15.89,-1.70894 5.30143,-0.5234 10.60755,-1.00092 15.91736,-1.43142 5.30982,-0.43051 10.62345,-0.81421 15.94012,-1.15137 5.31667,-0.33713 10.6362,-0.6274 15.95821,-0.87074 5.32199,-0.24334 10.64636,-0.43953 15.97213,-0.58859 C 631.72636,0.15635 637.05345,0.05433 642.3815,9.9999999e-6 H 2e-5 Z" />
        <path
           id="path33727"
           style="opacity:0.466179;fill:url(#linearGradient33744);fill-opacity:1;fill-rule:evenodd;stroke-width:1;stroke-linecap:round;paint-order:stroke fill markers"
           d="m 604.79466,1e-5 c 1.67378,0.20743 3.35166,0.38034 5.02502,0.59118 13.48126,1.69874 26.9486,3.50857 40.4001,5.42912 13.45149,1.92056 26.88756,3.95182 40.30556,6.0937 13.418,2.14186 26.8183,4.39404 40.1991,6.75669 13.3808,2.36262 26.74189,4.83579 40.08178,7.41865 13.3399,2.58289 26.65836,5.27548 39.95365,8.07808 13.29526,2.8026 26.56715,5.71516 39.8141,8.73694 13.24692,3.02175 26.46884,6.15277 39.66371,9.39321 13.19491,3.24043 26.36285,6.58992 39.502,10.04847 13.13913,3.45856 26.24971,7.02607 39.32936,10.70221 13.07968,3.67613 26.1284,7.46112 39.14496,11.35433 13.0165,3.89321 26.0004,7.89469 38.95,12.00444 12.9496,4.10975 25.8649,8.32773 38.7439,12.65349 12.879,4.32575 25.7222,8.75927 38.5269,13.30049 12.8047,4.54121 25.5712,9.19025 38.2979,13.94643 12.7267,4.75618 25.4137,9.61975 38.0586,14.59032 12.645,4.97059 25.248,10.04818 37.8076,15.23267 12.5595,5.18445 25.0751,10.47562 37.5455,15.87343 8.707,3.76886 17.3922,7.5886 26.0547,11.45874 6.9242,3.09353 13.8226,6.24361 20.7176,9.40149 V 1e-5 Z" />
      </g>
      <g
         id="g33650"
         transform="translate(2556.8883,-682.95205)"
         style="fill:#ffffff">
        <path
           d="m -1985.3921,1046.2495 v 41.4054 h -4.7679 v -26.0352 l 0.5646,-10.9159 h -0.063 l -13.6136,36.9511 h -4.266 l -13.6136,-36.9511 h -0.063 l 0.5647,10.9159 v 26.0352 h -4.7679 v -41.4054 h 7.7164 l 9.0967,25.1569 3.1367,10.3514 h 0.1255 l 3.1995,-10.2886 9.0339,-25.2197 z"
           id="path33618"
           style="font-size:62.7354px;line-height:1.25;font-family:'Work Sans';-inkscape-font-specification:'Work Sans, Normal';letter-spacing:0px;word-spacing:0px;fill:#ffffff;stroke-width:2.35257" />
        <path
           d="m -1955.1538,1045.6222 q 5.8971,0 10.1631,2.6349 4.3288,2.5721 6.65,7.34 2.3839,4.7679 2.3839,11.3551 0,6.5872 -2.3839,11.3551 -2.3212,4.7679 -6.65,7.4028 -4.266,2.5722 -10.1631,2.5722 -5.8971,0 -10.2259,-2.5722 -4.266,-2.6349 -6.6499,-7.4028 -2.3212,-4.7679 -2.3212,-11.3551 0,-6.5872 2.3212,-11.3551 2.3839,-4.7679 6.6499,-7.34 4.3288,-2.6349 10.2259,-2.6349 z m 0,4.7051 q -4.266,0 -7.4028,2.0076 -3.1367,1.9448 -4.8306,5.7089 -1.6938,3.7014 -1.6938,8.9084 0,5.2071 1.6938,8.9712 1.6939,3.7014 4.8306,5.7089 3.1368,1.9448 7.4028,1.9448 4.3288,0 7.4028,-1.9448 3.1368,-2.0075 4.8306,-5.7089 1.6939,-3.7641 1.6939,-8.9712 0,-5.207 -1.6939,-8.9084 -1.6938,-3.7641 -4.8306,-5.7089 -3.074,-2.0076 -7.4028,-2.0076 z"
           id="path33620"
           style="font-size:62.7354px;line-height:1.25;font-family:'Work Sans';-inkscape-font-specification:'Work Sans, Normal';letter-spacing:0px;word-spacing:0px;fill:#ffffff;stroke-width:2.35257" />
        <path
           d="m -1911.5527,1046.2495 q 9.724,0 15.2447,5.3953 5.5834,5.3325 5.5834,15.3074 0,9.975 -5.5834,15.3702 -5.5207,5.3325 -15.2447,5.3325 h -13.3627 v -41.4054 z m 0.5019,36.7003 q 7.0891,0 11.0414,-4.2033 4.015,-4.266 4.015,-11.7943 0,-7.5282 -4.015,-11.7315 -3.9523,-4.266 -11.0414,-4.266 h -8.8457 v 31.9951 z"
           id="path33622"
           style="font-size:62.7354px;line-height:1.25;font-family:'Work Sans';-inkscape-font-specification:'Work Sans, Normal';letter-spacing:0px;word-spacing:0px;fill:#ffffff;stroke-width:2.35257" />
        <path
           d="m -1879.6832,1087.6549 v -41.4054 h 29.0465 v 4.7052 h -24.0277 v 13.3626 h 18.6952 v 4.7052 h -18.6952 v 13.9273 h 24.9687 v 4.7051 z"
           id="path33624"
           style="font-size:62.7354px;line-height:1.25;font-family:'Work Sans';-inkscape-font-specification:'Work Sans, Normal';letter-spacing:0px;word-spacing:0px;fill:#ffffff;stroke-width:2.35257" />
        <path
           d="m -1823.9743,1046.2495 q 6.3363,0 10.1631,3.2623 3.8269,3.2622 3.8269,8.8457 0,5.5834 -3.8896,8.7202 -3.8268,3.074 -10.1631,3.074 l -0.4392,0.3137 h -10.1631 v 17.1895 h -5.0188 v -41.4054 z m -0.063,19.5108 q 4.4542,0 6.5872,-1.8194 2.1957,-1.882 2.1957,-5.5834 0,-3.7014 -2.1957,-5.5207 -2.133,-1.8821 -6.5872,-1.8821 h -10.6023 v 14.8056 z m 2.8858,1.0037 13.6763,20.8909 h -5.9598 l -11.9198,-18.1305 z"
           id="path33626"
           style="font-size:62.7354px;line-height:1.25;font-family:'Work Sans';-inkscape-font-specification:'Work Sans, Normal';letter-spacing:0px;word-spacing:0px;fill:#ffffff;stroke-width:2.35257" />
        <path
           d="m -1765.4422,1046.2495 v 41.4054 h -6.2108 l -17.315,-27.729 -4.3915,-7.7792 h -0.063 l 0.2509,6.2735 v 29.2347 h -4.7678 v -41.4054 h 6.2108 l 17.2522,27.6036 4.4542,7.9674 h 0.063 l -0.2509,-6.3363 v -29.2347 z"
           id="path33628"
           style="font-size:62.7354px;line-height:1.25;font-family:'Work Sans';-inkscape-font-specification:'Work Sans, Normal';letter-spacing:0px;word-spacing:0px;fill:#ffffff;stroke-width:2.35257" />
        <path
           d="m -1981.1163,1113.7762 v -16.8539 h 6.001 q 2.9877,0 4.3667,1.2513 1.3789,1.2512 1.3789,3.3963 0,1.2768 -0.7405,2.3238 -0.7406,1.0214 -2.094,1.3023 v 0.026 q 1.5067,0.2809 2.3749,1.379 0.8938,1.0725 0.8938,2.4514 0,2.1451 -1.6088,3.4474 -1.6088,1.2768 -4.5965,1.2768 z m 2.0429,-1.9152 h 4.4178 q 1.813,0 2.6813,-0.7406 0.8937,-0.7405 0.8937,-2.0684 0,-1.3534 -0.8937,-2.0685 -0.8683,-0.7405 -2.6813,-0.7405 h -4.4178 z m 0,-7.5332 h 3.9836 q 3.5751,0 3.5751,-2.7579 0,-2.7324 -3.5751,-2.7324 h -3.9836 z"
           id="path33630"
           style="font-size:25.5362px;line-height:1.25;font-family:'Work Sans';-inkscape-font-specification:'Work Sans, Normal';letter-spacing:0px;word-spacing:0px;fill:#ffffff;stroke-width:0.957606" />
        <path
           d="m -1951.2645,1113.7762 h -2.1706 l -1.7875,-4.6731 h -7.6353 l -1.7876,4.6731 h -2.145 l 6.5628,-16.8539 h 2.4259 z m -10.8529,-6.5884 h 6.1543 l -3.0899,-8.2992 z"
           id="path33632"
           style="font-size:25.5362px;line-height:1.25;font-family:'Work Sans';-inkscape-font-specification:'Work Sans, Normal';letter-spacing:0px;word-spacing:0px;fill:#ffffff;stroke-width:0.957606" />
        <path
           d="m -1934.8192,1109.4606 q -0.5363,1.43 -1.5322,2.477 -0.9959,1.0214 -2.3493,1.5577 -1.3279,0.5362 -2.9111,0.5362 -2.4004,0 -4.1624,-1.0469 -1.7365,-1.0726 -2.7069,-3.0133 -0.9448,-1.9408 -0.9448,-4.6221 0,-2.6813 0.9448,-4.622 0.9704,-1.9408 2.7069,-2.9878 1.762,-1.0725 4.1113,-1.0725 1.6343,0 2.9111,0.4597 1.2768,0.4341 2.1706,1.3279 0.9193,0.8682 1.4556,2.145 l -2.0174,0.9448 q -0.5618,-1.4555 -1.6343,-2.1961 -1.047,-0.7661 -2.7324,-0.7661 -1.7109,0 -3.0133,0.8172 -1.3023,0.7916 -2.0429,2.2982 -0.715,1.5067 -0.715,3.6517 0,2.1195 0.6895,3.6517 0.6895,1.5066 1.9663,2.3238 1.2768,0.7916 3.0133,0.7916 1.6854,0 2.9366,-0.8427 1.2513,-0.8682 1.8131,-2.5791 z"
           id="path33634"
           style="font-size:25.5362px;line-height:1.25;font-family:'Work Sans';-inkscape-font-specification:'Work Sans, Normal';letter-spacing:0px;word-spacing:0px;fill:#ffffff;stroke-width:0.957606" />
        <path
           d="m -1917.6844,1096.9223 -7.3545,7.5332 -0.3064,0.3319 -4.5199,4.6221 v -2.7579 l 9.4995,-9.7293 z m -11.1594,0 v 16.8539 h -2.0429 v -16.8539 z m 4.0092,6.2308 7.2268,10.6231 h -2.4515 l -6.4607,-9.474 z"
           id="path33636"
           style="font-size:25.5362px;line-height:1.25;font-family:'Work Sans';-inkscape-font-specification:'Work Sans, Normal';letter-spacing:0px;word-spacing:0px;fill:#ffffff;stroke-width:0.957606" />
        <path
           d="m -1908.1084,1114.0315 q -2.4004,0 -4.1624,-1.0469 -1.7365,-1.0726 -2.7069,-3.0133 -0.9448,-1.9408 -0.9448,-4.6221 0,-2.6813 0.9959,-4.622 1.0214,-1.9408 2.8345,-2.9878 1.8131,-1.0725 4.1624,-1.0725 2.5026,0 4.0603,0.9449 1.5832,0.9448 2.5536,2.9111 l -1.8642,1.0214 q -0.5618,-1.4555 -1.7875,-2.1961 -1.2002,-0.7661 -2.9622,-0.7661 -1.7109,0 -3.0388,0.8172 -1.3023,0.7916 -2.0684,2.3238 -0.7406,1.5066 -0.7406,3.6261 0,2.1195 0.6384,3.6517 0.664,1.5066 1.9408,2.3238 1.3023,0.7916 3.1665,0.7916 1.047,0 1.9407,-0.2553 0.9193,-0.2809 1.5833,-0.8172 0.6894,-0.5363 1.0725,-1.3534 0.383,-0.8172 0.383,-1.9152 v -0.5874 h -5.3626 v -1.9152 h 7.2268 v 8.5036 h -1.6088 l -0.1021,-3.141 0.4341,0.077 q -0.664,1.5833 -2.094,2.4515 -1.43,0.8682 -3.5495,0.8682 z"
           id="path33638"
           style="font-size:25.5362px;line-height:1.25;font-family:'Work Sans';-inkscape-font-specification:'Work Sans, Normal';letter-spacing:0px;word-spacing:0px;fill:#ffffff;stroke-width:0.957606" />
        <path
           d="m -1890.0288,1096.9223 q 2.5791,0 4.1368,1.3279 1.5577,1.3278 1.5577,3.6006 0,2.2727 -1.5832,3.5495 -1.5577,1.2513 -4.1369,1.2513 l -0.1787,0.1277 h -4.1369 v 6.9969 h -2.0429 v -16.8539 z m -0.026,7.9417 q 1.813,0 2.6813,-0.7405 0.8937,-0.7661 0.8937,-2.2727 0,-1.5067 -0.8937,-2.2472 -0.8683,-0.7661 -2.6813,-0.7661 h -4.3156 v 6.0265 z m 1.1746,0.4086 5.5669,8.5036 h -2.4259 l -4.8519,-7.38 z"
           id="path33640"
           style="font-size:25.5362px;line-height:1.25;font-family:'Work Sans';-inkscape-font-specification:'Work Sans, Normal';letter-spacing:0px;word-spacing:0px;fill:#ffffff;stroke-width:0.957606" />
        <path
           d="m -1872.7919,1096.6669 q 2.4004,0 4.1368,1.0725 1.762,1.047 2.7069,2.9878 0.9703,1.9407 0.9703,4.622 0,2.6813 -0.9703,4.6221 -0.9449,1.9407 -2.7069,3.0133 -1.7364,1.0469 -4.1368,1.0469 -2.4004,0 -4.1624,-1.0469 -1.7365,-1.0726 -2.7069,-3.0133 -0.9448,-1.9408 -0.9448,-4.6221 0,-2.6813 0.9448,-4.622 0.9704,-1.9408 2.7069,-2.9878 1.762,-1.0725 4.1624,-1.0725 z m 0,1.9152 q -1.7365,0 -3.0133,0.8172 -1.2768,0.7916 -1.9663,2.3238 -0.6895,1.5066 -0.6895,3.6261 0,2.1195 0.6895,3.6517 0.6895,1.5066 1.9663,2.3238 1.2768,0.7916 3.0133,0.7916 1.762,0 3.0132,-0.7916 1.2768,-0.8172 1.9663,-2.3238 0.6895,-1.5322 0.6895,-3.6517 0,-2.1195 -0.6895,-3.6261 -0.6895,-1.5322 -1.9663,-2.3238 -1.2512,-0.8172 -3.0132,-0.8172 z"
           id="path33642"
           style="font-size:25.5362px;line-height:1.25;font-family:'Work Sans';-inkscape-font-specification:'Work Sans, Normal';letter-spacing:0px;word-spacing:0px;fill:#ffffff;stroke-width:0.957606" />
        <path
           d="m -1847.5877,1096.9223 v 10.572 q 0,3.2431 -1.7109,4.9029 -1.711,1.6343 -4.903,1.6343 -3.1665,0 -4.9029,-1.6343 -1.711,-1.6598 -1.711,-4.9029 v -10.572 h 2.0429 v 10.0612 q 0,2.6303 1.0981,3.8815 1.1236,1.2513 3.4729,1.2513 2.3493,0 3.4474,-1.2513 1.1236,-1.2512 1.1236,-3.8815 v -10.0612 z"
           id="path33644"
           style="font-size:25.5362px;line-height:1.25;font-family:'Work Sans';-inkscape-font-specification:'Work Sans, Normal';letter-spacing:0px;word-spacing:0px;fill:#ffffff;stroke-width:0.957606" />
        <path
           d="m -1829.1762,1096.9223 v 16.8539 h -2.5281 l -7.0479,-11.287 -1.7876,-3.1665 h -0.025 l 0.1022,2.5536 v 11.8999 h -1.9408 v -16.8539 h 2.5281 l 7.0224,11.2359 1.8131,3.2431 h 0.025 l -0.1021,-2.5791 v -11.8999 z"
           id="path33646"
           style="font-size:25.5362px;line-height:1.25;font-family:'Work Sans';-inkscape-font-specification:'Work Sans, Normal';letter-spacing:0px;word-spacing:0px;fill:#ffffff;stroke-width:0.957606" />
        <path
           d="m -1818.2212,1096.9223 q 3.9582,0 6.2053,2.1961 2.2728,2.1706 2.2728,6.2308 0,4.0603 -2.2728,6.2564 -2.2471,2.1706 -6.2053,2.1706 h -5.4392 v -16.8539 z m 0.2043,14.9387 q 2.8856,0 4.4944,-1.711 1.6343,-1.7364 1.6343,-4.8008 0,-3.0643 -1.6343,-4.7752 -1.6088,-1.7365 -4.4944,-1.7365 h -3.6006 v 13.0235 z"
           id="path33648"
           style="font-size:25.5362px;line-height:1.25;font-family:'Work Sans';-inkscape-font-specification:'Work Sans, Normal';letter-spacing:0px;word-spacing:0px;fill:#ffffff;stroke-width:0.957606" />
      </g>
    </g>
  </g>
</svg>
