<?xml version="1.0" encoding="UTF-8" standalone="no"?>
<!-- Created with Inkscape (http://www.inkscape.org/) -->

<svg
   width="5000.0005"
   height="3000"
   viewBox="0 0 1322.9168 793.74998"
   version="1.1"
   id="svg5"
   xmlns:xlink="http://www.w3.org/1999/xlink"
   xmlns="http://www.w3.org/2000/svg"
   xmlns:svg="http://www.w3.org/2000/svg">
  <defs
     id="defs2">
    <linearGradient
       id="linearGradient3544">
      <stop
         style="stop-color:#0575e6;stop-opacity:0.65447898"
         offset="0"
         id="stop3540" />
      <stop
         style="stop-color:#021b79;stop-opacity:0"
         offset="1"
         id="stop3542" />
    </linearGradient>
    <linearGradient
       id="linearGradient1617">
      <stop
         style="stop-color:#0575e6;stop-opacity:1"
         offset="0"
         id="stop1613" />
      <stop
         style="stop-color:#021b79;stop-opacity:0"
         offset="1"
         id="stop1615" />
    </linearGradient>
    <linearGradient
       id="linearGradient37325">
      <stop
         style="stop-color:#021b79;stop-opacity:0"
         offset="0"
         id="stop37321" />
      <stop
         style="stop-color:#0575e6;stop-opacity:1"
         offset="1"
         id="stop37323" />
    </linearGradient>
    <linearGradient
       id="linearGradient27869">
      <stop
         style="stop-color:#021b79;stop-opacity:1"
         offset="0"
         id="stop27867" />
      <stop
         style="stop-color:#0575e6;stop-opacity:1"
         offset="1"
         id="stop27865" />
    </linearGradient>
    <linearGradient
       id="linearGradient26439">
      <stop
         style="stop-color:#0575e6;stop-opacity:1"
         offset="0"
         id="stop26435" />
      <stop
         style="stop-color:#021b79;stop-opacity:1"
         offset="1"
         id="stop26437" />
    </linearGradient>
    <linearGradient
       id="linearGradient25923">
      <stop
         style="stop-color:#021b79;stop-opacity:1"
         offset="0"
         id="stop25921" />
      <stop
         style="stop-color:#0575e6;stop-opacity:1"
         offset="1"
         id="stop25919" />
    </linearGradient>
    <linearGradient
       id="linearGradient25915">
      <stop
         style="stop-color:#021b79;stop-opacity:1"
         offset="0"
         id="stop25913" />
      <stop
         style="stop-color:#0575e6;stop-opacity:1"
         offset="1"
         id="stop25911" />
    </linearGradient>
    <linearGradient
       xlink:href="#linearGradient25915"
       id="linearGradient32895"
       gradientUnits="userSpaceOnUse"
       x1="560.07971"
       y1="793.75"
       x2="1322.9166"
       y2="-85.897911"
       gradientTransform="translate(1789.4185,-53.750198)" />
    <linearGradient
       xlink:href="#linearGradient27869"
       id="linearGradient32903"
       gradientUnits="userSpaceOnUse"
       x1="244.47972"
       y1="0"
       x2="2148.1436"
       y2="239.14955"
       gradientTransform="matrix(0.26458333,0,0,0.26458333,1789.4185,-53.750198)" />
    <linearGradient
       xlink:href="#linearGradient1617"
       id="linearGradient32907"
       gradientUnits="userSpaceOnUse"
       x1="1776.9502"
       y1="1509.1255"
       x2="2799.6826"
       y2="-476.52695"
       gradientTransform="matrix(0.26458333,0,0,0.26458333,1789.4185,-53.750198)" />
    <linearGradient
       xlink:href="#linearGradient26439"
       id="linearGradient33317"
       gradientUnits="userSpaceOnUse"
       gradientTransform="matrix(-0.26458333,0,0,-0.26458333,3112.3352,739.9998)"
       x1="2146.6511"
       y1="1306.3862"
       x2="897.51099"
       y2="-94.900055" />
    <linearGradient
       xlink:href="#linearGradient25923"
       id="linearGradient34916"
       gradientUnits="userSpaceOnUse"
       x1="370.75699"
       y1="752.7301"
       x2="504.09589"
       y2="480.49252"
       gradientTransform="translate(1789.4185,-53.750198)" />
    <linearGradient
       xlink:href="#linearGradient37325"
       id="linearGradient35979"
       gradientUnits="userSpaceOnUse"
       x1="593.21118"
       y1="793.75"
       x2="661.45837"
       y2="167.36911"
       gradientTransform="translate(1789.4185,-53.750198)" />
    <linearGradient
       xlink:href="#linearGradient3544"
       id="linearGradient2898"
       gradientUnits="userSpaceOnUse"
       gradientTransform="matrix(3.7795276,0,0,3.7795276,6763.1565,-203.15035)"
       x1="610.5658"
       y1="555.51892"
       x2="610.5658"
       y2="16.65189" />
  </defs>
  <g
     id="layer1"
     style="display:inline"
     transform="translate(2592.6377,2117.8453)">
    <g
       id="background3"
       transform="translate(-4382.0562,-2064.0951)">
      <g
         id="g3953">
        <rect
           style="fill:url(#linearGradient32895);fill-opacity:1;fill-rule:evenodd;stroke-width:1;stroke-linecap:round;paint-order:stroke fill markers"
           id="rect32843"
           width="1322.9166"
           height="793.75"
           x="1789.4185"
           y="-53.750198" />
        <path
           id="path35981"
           style="opacity:0.457038;fill:url(#linearGradient35979);fill-opacity:1;fill-rule:evenodd;stroke-width:1;stroke-linecap:round;paint-order:stroke fill markers"
           d="m 2845.3359,-53.750198 c -1.641,2.944656 -3.2656,5.898379 -4.9325,8.828402 -2.9348,5.158721 -5.9099,10.294654 -8.924,15.407328 -3.0141,5.112673 -6.0677,10.202047 -9.1601,15.267802 -3.0924,5.0657548 -6.2236,10.1082421 -9.3933,15.12620787 -3.1697,5.01796573 -6.3777,10.01169313 -9.6237,14.98099613 -3.2459,4.969304 -6.5298,9.913948 -9.851,14.833722 -3.3213,4.919771 -6.6799,9.814488 -10.0754,14.683856 -3.3955,4.869371 -6.8278,9.71332 -10.2965,14.531414 -3.4687,4.818094 -6.9737,9.610434 -10.5146,14.376384 -3.541,4.765947 -7.118,9.505836 -10.7301,14.218769 -3.6122,4.712933 -7.2596,9.399011 -10.942,14.058057 -3.6823,4.65905 -7.3997,9.29099 -11.1512,13.89528 -3.7516,4.60428 -7.5372,9.18073 -11.357,13.72939 -3.8197,4.54866 -7.6731,9.06929 -11.56,13.56144 -3.8869,4.49216 -7.8075,8.95613 -11.7605,13.39092 -3.9531,4.43479 -7.9387,8.84022 -11.9569,13.21676 -4.0182,4.37655 -8.0688,8.72416 -12.1512,13.04158 -4.0823,4.31743 -8.1964,8.60482 -12.3419,12.86227 -4.1455,4.25744 -8.3224,8.48481 -12.53,12.68139 -4.2076,4.1966 -8.4457,8.36257 -12.7144,12.49742 -4.2687,4.13488 -8.5681,8.23863 -12.8969,12.31088 -4.3288,4.07228 -8.6873,8.11295 -13.0752,12.12175 -4.3879,4.00878 -8.8049,7.98558 -13.2509,11.93001 -4.4459,3.94446 -8.9204,7.85649 -13.4234,11.73573 -4.503,3.87924 -9.0345,7.72567 -13.5935,11.53882 -4.5591,3.81318 -9.1458,7.59317 -13.7599,11.33938 -4.6141,3.74618 -9.2556,7.45892 -13.9237,11.13729 -4.6681,3.67837 -9.3628,7.32248 -14.0839,10.93216 -4.7211,3.60969 -9.4684,7.18479 -14.2415,10.72491 -4.7731,3.54013 -9.5724,7.04544 -14.3966,10.51513 -4.8241,3.46969 -9.6733,6.90385 -14.5474,10.30221 -4.8741,3.39836 -9.7727,6.76053 -14.6957,10.08674 -4.9231,3.32618 -9.8705,6.61651 -14.8415,9.86967 -4.971,3.25313 -9.9661,6.46927 -14.9841,9.64851 -5.018,3.1792 -10.0592,6.32134 -15.1231,9.42578 -5.0639,3.10441 -10.1502,6.17119 -15.259,9.19996 -5.1089,3.02876 -10.2401,6.01932 -15.3929,8.97154 -5.1527,2.95222 -10.3269,5.86624 -15.5225,8.74107 -5.1957,2.8748 -10.4127,5.71042 -15.6503,8.50696 -5.2375,2.79654 -10.4958,5.55395 -15.7742,8.27133 -5.2784,2.7174 -10.5768,5.39469 -15.8951,8.03208 -5.3183,2.63737 -10.6564,5.23476 -16.0135,7.79124 -5.3572,2.55649 -10.7337,5.07212 -16.1288,7.54685 -5.395,2.4747 -10.8085,4.90823 -16.2403,7.30033 -5.4319,2.39207 -10.8817,4.74265 -16.3494,7.05125 -5.4677,2.30857 -10.9534,4.57536 -16.4559,6.79958 -5.5024,2.22419 -11.0218,4.40584 -16.5581,6.54481 -5.5363,2.13897 -11.0894,4.23513 -16.6584,6.28798 -5.5691,2.05285 -11.1542,4.06273 -16.7551,6.02859 -5.6008,1.96585 -11.2175,3.88754 -16.8491,5.76553 -5.6316,1.87799 -11.2781,3.71221 -16.9395,5.50148 -5.6614,1.78925 -11.3372,3.53359 -17.0274,5.23328 -5.6901,1.69965 -11.3948,3.3543 -17.1126,4.9635 -5.7179,1.60919 -11.4492,3.17333 -17.1938,4.69119 -5.7446,1.51784 -11.5021,2.98961 -17.2723,4.41524 -5.7703,1.42563 -11.5533,2.80519 -17.3484,4.13774 -7.8661,1.80879 -15.7509,3.53573 -23.6528,5.18107 -7.9018,1.64534 -15.821,3.209 -23.7551,4.69066 -7.9341,1.4817 -15.8831,2.88145 -23.8461,4.19923 -7.9629,1.31781 -15.9398,2.55358 -23.9282,3.70726 -7.9885,1.15372 -15.9886,2.22539 -23.9991,3.2148 -8.0105,0.98941 -16.0309,1.89637 -24.06,2.72129 -8.0291,0.82489 -16.0669,1.56758 -24.1112,2.22777 -8.0444,0.66018 -16.0953,1.23795 -24.1515,1.73323 -8.0562,0.49524 -16.1179,0.90805 -24.1825,1.23817 -8.0647,0.33012 -16.1325,0.5778 -24.2022,0.74258 -8.0697,0.16478 -16.1411,0.24675 -24.2124,0.24598 -8.0714,0 -16.1424,-0.0846 -24.212,-0.25114 -0.1347,-0.003 -0.2694,-0.01 -0.4041,-0.0124 v 183.5216 H 3112.3351 V -53.750198 Z" />
        <path
           id="path32851"
           style="opacity:0.583181;fill:url(#linearGradient32903);fill-opacity:1;fill-rule:evenodd;stroke-width:1;stroke-linecap:round;paint-order:stroke fill markers"
           d="M 2304.1401,-53.750198 H 1789.4185 V 269.50086 c 2.8415,0.42778 5.6861,0.83285 8.5349,1.20872 2.9712,0.39203 5.9464,0.75557 8.9245,1.09088 2.9781,0.33533 5.9593,0.64251 8.9431,0.92088 2.9839,0.27837 5.9701,0.52814 8.9586,0.7493 2.9886,0.22119 5.9795,0.41352 8.9716,0.57724 2.9921,0.16373 5.9856,0.29911 8.9803,0.40513 2.9947,0.10605 5.9904,0.18291 8.9866,0.23101 2.9961,0.0481 5.993,0.0674 8.9896,0.0574 2.9965,-0.01 5.9927,-0.0493 8.9886,-0.11782 2.9959,-0.0685 5.9913,-0.16684 8.9855,-0.29406 2.9941,-0.12718 5.9869,-0.2836 8.9782,-0.46974 2.9914,-0.1861 5.9811,-0.40166 8.9685,-0.64698 2.9874,-0.2453 5.9724,-0.52044 8.954,-0.82476 2.9816,-0.3043 5.96,-0.63804 8.9348,-1.00097 2.9748,-0.36291 5.9457,-0.75504 8.9127,-1.17616 2.9669,-0.42108 5.9297,-0.87092 8.8878,-1.34977 2.9581,-0.47887 5.9117,-0.98671 8.8599,-1.52291 2.9482,-0.53621 5.8911,-1.10083 8.8284,-1.69394 2.9373,-0.59312 5.8684,-1.21436 8.7938,-1.86399 2.9254,-0.64961 5.8447,-1.32776 8.7571,-2.03346 2.9124,-0.70572 5.8183,-1.43901 8.7168,-2.20038 2.8984,-0.76139 5.7893,-1.55067 8.6728,-2.36731 2.8835,-0.81663 5.7594,-1.66068 8.6269,-2.53214 2.8675,-0.87146 5.7268,-1.77009 8.5772,-2.69597 2.8505,-0.92586 5.6921,-1.87886 8.5246,-2.85872 2.8324,-0.97988 5.6558,-1.98654 8.4692,-3.01998 2.8134,-1.03343 5.617,-2.09407 8.4104,-3.18069 2.7933,-1.08659 5.5765,-2.19945 8.3488,-3.3388 2.7723,-1.13935 5.5336,-2.30476 8.2837,-3.49644 2.7502,-1.19166 5.489,-2.40943 8.2161,-3.653 2.727,-1.24357 5.4423,-2.51298 8.1452,-3.80804 2.7029,-1.29506 5.3936,-2.61591 8.0714,-3.96203 2.6777,-1.34612 5.3427,-2.71769 7.9943,-4.11448 2.6516,-1.39676 5.2898,-2.81887 7.9143,-4.26588 2.6244,-1.44701 5.2348,-2.91894 7.831,-4.41576 2.5962,-1.49682 5.1783,-3.01836 7.7453,-4.56458 2.5669,-1.54621 5.1191,-3.11718 7.6558,-4.71237 2.5368,-1.59519 5.0579,-3.21487 7.5634,-4.85862 2.5055,-1.64375 4.995,-3.31142 7.4683,-5.00331 2.4732,-1.69189 4.9301,-3.40788 7.3701,-5.14749 2.4399,-1.73961 4.8632,-3.50268 7.2688,-5.2896 2.4056,-1.78692 4.7936,-3.59739 7.1639,-5.43119 2.3702,-1.8338 4.7224,-3.69097 7.0564,-5.57124 2.3339,-1.88027 4.6498,-3.78393 6.9463,-5.71024 2.9788,-2.49849 5.9237,-5.03539 8.8351,-7.60988 2.9115,-2.57448 5.789,-5.18631 8.6321,-7.83466 2.8431,-2.64835 5.6522,-5.33316 8.4258,-8.05325 2.7737,-2.7201 5.5124,-5.47593 8.2155,-8.26565 2.7032,-2.78972 5.3706,-5.61358 8.0021,-8.4708 2.6316,-2.85722 5.2268,-5.74767 7.7856,-8.67027 2.5588,-2.9226 5.0809,-5.87717 7.5659,-8.86303 2.4851,-2.98585 4.9331,-6.00311 7.3433,-9.050088 2.4101,-3.04698 4.7827,-6.12393 7.1168,-9.22993 2.3342,-3.10599 4.6303,-6.24068 6.8875,-9.40356 2.2571,-3.16288 4.4754,-6.35387 6.6544,-9.57151 2.179,-3.21764 4.3184,-6.46194 6.4182,-9.73222 2.0997,-3.27028 4.1595,-6.56646 6.1789,-9.88725 2.0195,-3.3208 3.9986,-6.666374 5.9366,-10.035563 1.9381,-3.36919 3.8356,-6.762215 5.6911,-10.177674 1.8556,-3.415458 3.6696,-6.853459 5.4416,-10.313066 1.772,-3.459605 3.502,-6.940624 5.1893,-10.442255 1.6873,-3.501631 3.332,-7.023716 4.9336,-10.565246 1.6015,-3.541533 3.1599,-7.102726 4.6746,-10.682036 1.5147,-3.57931 2.9859,-7.176625 4.4127,-10.79159 1.4268,-3.614965 2.8092,-7.247479 4.147,-10.895975 1.3378,-3.648496 2.6311,-7.313222 3.8788,-10.993127 1.0987,-3.240376 2.1475,-6.497027 3.1756,-9.760168 z" />
        <path
           id="path32855"
           style="opacity:0.583181;fill:url(#linearGradient32907);fill-opacity:1;fill-rule:evenodd;stroke-width:1;stroke-linecap:round;paint-order:stroke fill markers"
           d="M 1789.4185,-53.750198 V 280.98801 c 4.9857,-4.61698 9.9979,-9.20525 15.0637,-13.73455 5.6499,-5.05156 11.3493,-10.04834 17.0966,-14.98928 5.7473,-4.94091 11.5422,-9.82572 17.3845,-14.6544 5.8422,-4.82867 11.7318,-9.60112 17.6666,-14.31591 5.9348,-4.7148 11.915,-9.37191 17.94,-13.97124 6.025,-4.59933 12.0948,-9.14071 18.2077,-13.62294 6.1128,-4.48223 12.2688,-8.90544 18.4671,-13.26896 6.1982,-4.36352 12.4385,-8.66764 18.7197,-12.91084 6.2813,-4.2432 12.6034,-8.42578 18.9653,-12.54704 6.3619,-4.12125 12.7639,-8.18088 19.204,-12.17858 6.4401,-3.9977 12.9185,-7.93346 19.4345,-11.806 6.516,-3.87253 13.0693,-7.68197 19.6587,-11.42773 6.5895,-3.74575 13.2153,-7.42744 19.8758,-11.0448 6.6605,-3.61736 13.3559,-7.17041 20.0851,-10.657748 6.7292,-3.48734 13.4921,-6.90929 20.2876,-10.265 6.7955,-3.35572 13.6236,-6.64514 20.483,-9.86762 6.8594,-3.22247 13.7502,-6.37795 20.6711,-9.46557 6.9209,-3.08762 13.8719,-6.10722 20.852,-9.05836 6.98,-2.95115 13.9893,-5.83396 21.0261,-8.64702 7.0368,-2.81306 14.1014,-5.55663 21.1925,-8.229988 7.0911,-2.67336 14.2086,-5.276262 21.3517,-7.808309 7.143,-2.532044 14.3114,-4.992862 21.5041,-7.381978 7.1926,-2.389113 14.4095,-4.706427 21.6493,-6.950996 7.2398,-2.244571 14.5022,-4.416438 21.7868,-6.514848 9.6828,-2.789254 19.4019,-5.445043 29.1532,-7.967472 9.7514,-2.522429 19.5354,-4.911519 29.3486,-7.168039 9.8133,-2.25652 19.6558,-4.380693 29.5243,-6.372219 9.8685,-1.991527 19.7628,-3.850508 29.6799,-5.577954 9.917,-1.727446 19.8567,-3.323027 29.8157,-4.787305 9.959,-1.464281 19.9373,-2.797212 29.9315,-3.99924 9.9942,-1.202029 20.0043,-2.273065 30.0271,-3.213756 10.0228,-0.940692 20.0583,-1.751108 30.1031,-2.431378 10.0447,-0.680268 20.0989,-1.230818 30.1589,-1.651578 10.06,-0.420761 20.1259,-0.711681 30.1945,-0.873848 10.0686,-0.162167 20.14,-0.195248 30.2106,-0.09974 10.0705,0.09551 20.1405,0.319517 30.2064,0.671794 10.0659,0.352277 20.1276,0.832611 30.1821,1.440737 10.0545,0.608129 20.1018,1.344039 30.1383,2.207102 10.0364,0.863063 20.0618,1.853276 30.0735,2.97036 10.0118,1.117087 20.0096,2.360848 29.99,3.731041 9.9804,1.370189 19.9436,2.866747 29.886,4.489129 9.9424,1.622386 19.8643,3.37098 29.762,5.244643 9.8977,1.873662 19.7714,3.872507 29.6178,5.996532 9.8464,2.124027 19.6652,4.372883 29.4535,6.746359 9.7884,2.373474 19.5464,4.87159 29.2701,7.493598 9.7237,2.62201 19.4135,5.36811 29.0659,8.237741 9.6524,2.869631 19.2672,5.86296 28.8416,8.979297 9.5745,3.116336 19.108,6.355625 28.5978,9.717754 9.4898,3.362126 18.9357,6.847141 28.3342,10.454141 9.3984,3.60701 18.7494,7.33595 28.0499,11.18692 9.3006,3.85096 18.5508,7.8236 27.7467,11.91762 9.1959,4.09401 18.3374,8.30959 27.4221,12.64573 9.0846,4.33616 18.1123,8.79288 27.0789,13.37025 0.8321,0.42476 1.6479,0.8811 2.479,1.307928 V -53.750198 Z" />
        <path
           id="path33315"
           style="opacity:0.583181;fill:url(#linearGradient33317);fill-opacity:1;fill-rule:evenodd;stroke-width:1;stroke-linecap:round;paint-order:stroke fill markers"
           d="M 3112.3352,739.9998 V 405.26159 c -4.9857,4.61698 -9.9979,9.20525 -15.0637,13.73455 -5.6499,5.05156 -11.3493,10.04834 -17.0966,14.98928 -5.7473,4.94091 -11.5422,9.82572 -17.3845,14.6544 -5.8422,4.82867 -11.7318,9.60112 -17.6666,14.31591 -5.9348,4.7148 -11.915,9.37191 -17.94,13.97124 -6.025,4.59933 -12.0948,9.14071 -18.2077,13.62294 -6.1128,4.48223 -12.2688,8.90544 -18.4671,13.26896 -6.1982,4.36352 -12.4385,8.66764 -18.7197,12.91084 -6.2813,4.2432 -12.6034,8.42578 -18.9653,12.54704 -6.3619,4.12125 -12.7639,8.18088 -19.204,12.17858 -6.4401,3.9977 -12.9185,7.93346 -19.4345,11.806 -6.516,3.87253 -13.0693,7.68197 -19.6587,11.42773 -6.5895,3.74575 -13.2153,7.42744 -19.8758,11.0448 -6.6605,3.61736 -13.3559,7.17041 -20.0851,10.65775 -6.7292,3.48734 -13.4921,6.90929 -20.2876,10.265 -6.7955,3.35572 -13.6236,6.64514 -20.483,9.86762 -6.8594,3.22247 -13.7502,6.37795 -20.6711,9.46557 -6.9209,3.08762 -13.8719,6.10722 -20.8519,9.05836 -6.9801,2.95115 -13.9894,5.83396 -21.0262,8.64702 -7.0368,2.81306 -14.1014,5.55663 -21.1925,8.22999 -7.0911,2.67336 -14.2086,5.27626 -21.3517,7.80831 -7.143,2.53204 -14.3114,4.99286 -21.5041,7.38198 -7.1926,2.38911 -14.4095,4.70642 -21.6493,6.95099 -7.2398,2.24457 -14.5022,4.41644 -21.7868,6.51485 -9.6828,2.78925 -19.4019,5.44504 -29.1532,7.96747 -9.7514,2.52243 -19.5354,4.91152 -29.3486,7.16804 -9.8133,2.25652 -19.6558,4.38069 -29.5243,6.37222 -9.8685,1.99153 -19.7628,3.85051 -29.6799,5.57795 -9.917,1.72745 -19.8567,3.32303 -29.8157,4.78731 -9.959,1.46428 -19.9373,2.79721 -29.9315,3.99924 -9.9942,1.20203 -20.0043,2.27306 -30.0271,3.21375 -10.0228,0.9407 -20.0583,1.75111 -30.1031,2.43138 -10.0448,0.68027 -20.0989,1.23082 -30.1589,1.65158 -10.06,0.42076 -20.1259,0.71168 -30.1945,0.87385 -10.0686,0.16217 -20.14,0.19525 -30.2106,0.0997 -10.0705,-0.0955 -20.1405,-0.31952 -30.2064,-0.6718 -10.0659,-0.35227 -20.1276,-0.83261 -30.1821,-1.44073 -10.0545,-0.60813 -20.1018,-1.34404 -30.1383,-2.2071 -10.0364,-0.86307 -20.0618,-1.85328 -30.0735,-2.97036 -10.0118,-1.11709 -20.0096,-2.36085 -29.99,-3.73105 -9.9804,-1.37018 -19.9436,-2.86674 -29.886,-4.48912 -9.9424,-1.62239 -19.8643,-3.37098 -29.762,-5.24465 -9.8977,-1.87366 -19.7714,-3.8725 -29.6178,-5.99653 -9.8464,-2.12403 -19.6652,-4.37288 -29.4535,-6.74636 -9.7884,-2.37347 -19.5464,-4.87159 -29.2701,-7.4936 -9.7237,-2.62201 -19.4135,-5.36811 -29.0659,-8.23774 -9.6524,-2.86963 -19.2672,-5.86296 -28.8416,-8.97929 -9.5745,-3.11634 -19.108,-6.35563 -28.5978,-9.71776 -9.4898,-3.36212 -18.9357,-6.84714 -28.3342,-10.45414 -9.3984,-3.60701 -18.7494,-7.33595 -28.0499,-11.18692 -9.3006,-3.85096 -18.5508,-7.8236 -27.7467,-11.91762 -9.1959,-4.09401 -18.3374,-8.30959 -27.4221,-12.64573 -9.0846,-4.33616 -18.1123,-8.79288 -27.0789,-13.37025 -0.8321,-0.42476 -1.6479,-0.8811 -2.479,-1.30793 v 154.08465 z" />
        <path
           id="rect34914"
           style="opacity:0.250457;fill:url(#linearGradient34916);fill-opacity:1;fill-rule:evenodd;stroke-width:1;stroke-linecap:round;paint-order:stroke fill markers"
           d="m 3112.3351,722.40397 c -5.8764,-2.96828 -11.7446,-5.95273 -17.6423,-8.87852 -9.359,-4.64288 -18.7444,-9.23213 -28.1559,-13.76764 -9.4115,-4.53552 -18.8493,-9.01695 -28.312,-13.44467 -9.4627,-4.4277 -18.9502,-8.80169 -28.4628,-13.12117 -9.5127,-4.31945 -19.0499,-8.58483 -28.6112,-12.79559 -9.5613,-4.21077 -19.1467,-8.36687 -28.7553,-12.46849 -9.6087,-4.10162 -19.2407,-8.14882 -28.8954,-12.14086 -9.6548,-3.99203 -19.3323,-7.92916 -29.0319,-11.81116 -9.6995,-3.88202 -19.4215,-7.70892 -29.1646,-11.48043 -9.7431,-3.77152 -19.5074,-7.48757 -29.2928,-11.14816 -9.7853,-3.66059 -19.5915,-7.26564 -29.4178,-10.81484 -9.8263,-3.54923 -19.6728,-7.0426 -29.5388,-10.47999 -9.8659,-3.43739 -19.7512,-6.81845 -29.6555,-10.14357 -9.9044,-3.32513 -19.8278,-6.59424 -29.7693,-9.80662 -9.9415,-3.21242 -19.9009,-6.36842 -29.8783,-9.46764 -9.9773,-3.09925 -19.9723,-6.14199 -29.9842,-9.12762 -10.0118,-2.98564 -20.0408,-5.91394 -30.086,-8.78552 -10.0451,-2.87155 -20.1065,-5.68634 -30.1837,-8.44341 -10.0771,-2.75706 -20.1699,-5.45661 -30.2777,-8.09871 -10.1078,-2.64213 -20.2304,-5.22682 -30.3677,-7.75353 -10.1372,-2.52672 -20.2891,-4.99542 -30.4544,-7.40627 -10.1654,-2.41089 -20.3444,-4.76391 -30.5367,-7.05851 -10.1922,-2.29457 -20.3973,-4.53077 -30.6152,-6.70861 -10.2178,-2.17784 -20.448,-4.2971 -30.6901,-6.35775 -10.2421,-2.06066 -20.4963,-4.06281 -30.7614,-6.00583 -10.2651,-1.94305 -20.5413,-3.82691 -30.8281,-5.65187 -10.2868,-1.82494 -20.5844,-3.59093 -30.8916,-5.29736 -10.3073,-1.7064 -20.6242,-3.35333 -30.9506,-4.94078 -14.1089,-2.16889 -28.2347,-4.22724 -42.3757,-6.17481 -14.141,-1.94755 -28.2975,-3.78466 -42.4672,-5.51077 -14.1697,-1.72612 -28.3528,-3.34111 -42.5478,-4.84569 -14.1949,-1.5046 -28.4013,-2.89872 -42.6181,-4.18166 -14.2167,-1.28296 -28.4435,-2.45485 -42.6785,-3.51607 -14.235,-1.06122 -28.4783,-2.0116 -42.7281,-2.85099 -14.2499,-0.83939 -28.5063,-1.56792 -42.7674,-2.18541 -14.2612,-0.61746 -28.5273,-1.12382 -42.7964,-1.51926 -14.2691,-0.39545 -28.5409,-0.67985 -42.8144,-0.8532 -14.2735,-0.17333 -28.5483,-0.23543 -42.8227,-0.18654 -14.2745,0.0489 -28.5488,0.20889 -42.8207,0.48006 -10.7581,0.20442 -21.5133,0.53377 -32.2683,0.86456 v 311.48072 h 1322.9166 z" />
        <path
           id="path2900"
           style="fill:url(#linearGradient2898);fill-opacity:1;fill-rule:evenodd;stroke-width:3.77953;stroke-linecap:round;paint-order:stroke fill markers"
           d="m 7769.5625,-203.15039 c 17.8955,25.20349 36.0331,50.23516 54.4883,75.0332 19.2964,25.92845 38.8973,51.631538 58.793,77.105471 19.8956,25.473934 40.0865,50.71865234 60.5683,75.726563 20.4818,25.00791 41.2536,49.78017 62.3086,74.310547 21.055,24.530379 42.3927,48.818039 64.0078,72.859379 21.6151,24.04133 43.5077,47.83617 65.6699,71.37695 22.1623,23.54078 44.5947,46.82871 67.2911,69.85742 22.6963,23.02871 45.6556,45.7976 68.873,68.30274 23.2174,22.50513 46.6925,44.74479 70.418,66.71484 23.7255,21.97005 47.7032,43.6703 71.9238,65.09375 24.2206,21.42345 48.6841,42.5702 73.3867,63.43555 24.7027,20.86534 49.6428,41.45036 74.8145,61.74609 25.1716,20.29573 50.5754,40.30298 76.2031,60.01758 25.6277,19.71459 51.48,39.13585 77.5508,58.25781 26.0707,19.12196 52.3606,37.94508 78.8613,56.46289 26.5007,18.51781 53.2131,36.73067 80.1309,54.63281 26.9177,17.90215 54.0396,35.49261 81.3613,52.76758 27.3217,17.27498 54.842,34.2348 82.5547,50.8711 27.7126,16.63629 55.6184,32.94942 83.709,48.93552 28.0906,15.9861 56.3667,31.6444 84.8222,46.9688 28.4556,15.3244 57.091,30.3156 85.8985,44.9668 28.8074,14.6512 57.7872,28.9632 86.9336,42.9297 29.1463,13.9664 58.4593,27.5872 87.9316,40.8574 29.4723,13.2702 59.1035,26.1895 88.8887,38.7519 29.7851,12.5625 59.7235,24.7681 89.8086,36.6114 30.085,11.8432 60.3156,23.323 90.6875,34.4355 26.1242,9.5583 52.3459,18.8447 78.6582,27.8594 26.3123,9.0147 52.7157,17.7577 79.205,26.2285 26.4894,8.4708 53.0654,16.6711 79.7207,24.5977 26.6558,7.9265 53.3908,15.5809 80.2008,22.9628 26.811,7.382 53.695,14.4911 80.649,21.3282 26.954,6.837 53.976,13.4015 81.062,19.6933 27.087,6.2919 54.237,12.3104 81.446,18.0567 27.208,5.7462 54.474,11.2195 81.793,16.4199 27.318,5.2004 54.691,10.1271 82.109,14.7812 27.418,4.6542 54.882,9.037 82.389,13.1446 27.506,4.1076 55.053,7.9412 82.636,11.5019 27.584,3.5608 55.204,6.8478 82.854,9.8614 27.65,3.0135 55.33,5.7527 83.035,8.2187 27.705,2.466 55.433,4.658 83.182,6.5762 27.748,1.9181 55.517,3.5636 83.299,4.9336 27.781,1.3699 55.577,2.4656 83.38,3.2871 27.804,0.8214 55.614,1.368 83.428,1.6406 27.814,0.2726 55.63,0.2707 83.444,-0.01 27.813,-0.2765 55.623,-0.8282 83.425,-1.6543 27.802,-0.826 55.596,-1.9268 83.375,-3.3027 27.78,-1.3758 55.546,-3.0251 83.291,-4.9512 27.746,-1.926 55.473,-4.1289 83.174,-6.6054 27.701,-2.4765 55.377,-5.2266 83.022,-8.2539 27.645,-3.0273 55.258,-6.3318 82.836,-9.9102 18.056,-2.3429 36.071,-4.991 54.095,-7.5703 V -203.15039 Z"
           transform="scale(0.26458333)" />
      </g>
      <g
         id="g32891"
         transform="translate(4346.3068,-736.70225)"
         style="fill:#ffffff">
        <path
           d="m -1985.3921,1046.2495 v 41.4054 h -4.7679 v -26.0352 l 0.5646,-10.9159 h -0.063 l -13.6136,36.9511 h -4.266 l -13.6136,-36.9511 h -0.063 l 0.5647,10.9159 v 26.0352 h -4.7679 v -41.4054 h 7.7164 l 9.0967,25.1569 3.1367,10.3514 h 0.1255 l 3.1995,-10.2886 9.0339,-25.2197 z"
           id="path32859"
           style="font-size:62.7354px;line-height:1.25;font-family:'Work Sans';-inkscape-font-specification:'Work Sans, Normal';letter-spacing:0px;word-spacing:0px;fill:#ffffff;stroke-width:2.35257" />
        <path
           d="m -1955.1538,1045.6222 q 5.8971,0 10.1631,2.6349 4.3288,2.5721 6.65,7.34 2.3839,4.7679 2.3839,11.3551 0,6.5872 -2.3839,11.3551 -2.3212,4.7679 -6.65,7.4028 -4.266,2.5722 -10.1631,2.5722 -5.8971,0 -10.2259,-2.5722 -4.266,-2.6349 -6.6499,-7.4028 -2.3212,-4.7679 -2.3212,-11.3551 0,-6.5872 2.3212,-11.3551 2.3839,-4.7679 6.6499,-7.34 4.3288,-2.6349 10.2259,-2.6349 z m 0,4.7051 q -4.266,0 -7.4028,2.0076 -3.1367,1.9448 -4.8306,5.7089 -1.6938,3.7014 -1.6938,8.9084 0,5.2071 1.6938,8.9712 1.6939,3.7014 4.8306,5.7089 3.1368,1.9448 7.4028,1.9448 4.3288,0 7.4028,-1.9448 3.1368,-2.0075 4.8306,-5.7089 1.6939,-3.7641 1.6939,-8.9712 0,-5.207 -1.6939,-8.9084 -1.6938,-3.7641 -4.8306,-5.7089 -3.074,-2.0076 -7.4028,-2.0076 z"
           id="path32861"
           style="font-size:62.7354px;line-height:1.25;font-family:'Work Sans';-inkscape-font-specification:'Work Sans, Normal';letter-spacing:0px;word-spacing:0px;fill:#ffffff;stroke-width:2.35257" />
        <path
           d="m -1911.5527,1046.2495 q 9.724,0 15.2447,5.3953 5.5834,5.3325 5.5834,15.3074 0,9.975 -5.5834,15.3702 -5.5207,5.3325 -15.2447,5.3325 h -13.3627 v -41.4054 z m 0.5019,36.7003 q 7.0891,0 11.0414,-4.2033 4.015,-4.266 4.015,-11.7943 0,-7.5282 -4.015,-11.7315 -3.9523,-4.266 -11.0414,-4.266 h -8.8457 v 31.9951 z"
           id="path32863"
           style="font-size:62.7354px;line-height:1.25;font-family:'Work Sans';-inkscape-font-specification:'Work Sans, Normal';letter-spacing:0px;word-spacing:0px;fill:#ffffff;stroke-width:2.35257" />
        <path
           d="m -1879.6832,1087.6549 v -41.4054 h 29.0465 v 4.7052 h -24.0277 v 13.3626 h 18.6952 v 4.7052 h -18.6952 v 13.9273 h 24.9687 v 4.7051 z"
           id="path32865"
           style="font-size:62.7354px;line-height:1.25;font-family:'Work Sans';-inkscape-font-specification:'Work Sans, Normal';letter-spacing:0px;word-spacing:0px;fill:#ffffff;stroke-width:2.35257" />
        <path
           d="m -1823.9743,1046.2495 q 6.3363,0 10.1631,3.2623 3.8269,3.2622 3.8269,8.8457 0,5.5834 -3.8896,8.7202 -3.8268,3.074 -10.1631,3.074 l -0.4392,0.3137 h -10.1631 v 17.1895 h -5.0188 v -41.4054 z m -0.063,19.5108 q 4.4542,0 6.5872,-1.8194 2.1957,-1.882 2.1957,-5.5834 0,-3.7014 -2.1957,-5.5207 -2.133,-1.8821 -6.5872,-1.8821 h -10.6023 v 14.8056 z m 2.8858,1.0037 13.6763,20.8909 h -5.9598 l -11.9198,-18.1305 z"
           id="path32867"
           style="font-size:62.7354px;line-height:1.25;font-family:'Work Sans';-inkscape-font-specification:'Work Sans, Normal';letter-spacing:0px;word-spacing:0px;fill:#ffffff;stroke-width:2.35257" />
        <path
           d="m -1765.4422,1046.2495 v 41.4054 h -6.2108 l -17.315,-27.729 -4.3915,-7.7792 h -0.063 l 0.2509,6.2735 v 29.2347 h -4.7678 v -41.4054 h 6.2108 l 17.2522,27.6036 4.4542,7.9674 h 0.063 l -0.2509,-6.3363 v -29.2347 z"
           id="path32869"
           style="font-size:62.7354px;line-height:1.25;font-family:'Work Sans';-inkscape-font-specification:'Work Sans, Normal';letter-spacing:0px;word-spacing:0px;fill:#ffffff;stroke-width:2.35257" />
        <path
           d="m -1981.1163,1113.7762 v -16.8539 h 6.001 q 2.9877,0 4.3667,1.2513 1.3789,1.2512 1.3789,3.3963 0,1.2768 -0.7405,2.3238 -0.7406,1.0214 -2.094,1.3023 v 0.026 q 1.5067,0.2809 2.3749,1.379 0.8938,1.0725 0.8938,2.4514 0,2.1451 -1.6088,3.4474 -1.6088,1.2768 -4.5965,1.2768 z m 2.0429,-1.9152 h 4.4178 q 1.813,0 2.6813,-0.7406 0.8937,-0.7405 0.8937,-2.0684 0,-1.3534 -0.8937,-2.0685 -0.8683,-0.7405 -2.6813,-0.7405 h -4.4178 z m 0,-7.5332 h 3.9836 q 3.5751,0 3.5751,-2.7579 0,-2.7324 -3.5751,-2.7324 h -3.9836 z"
           id="path32871"
           style="font-size:25.5362px;line-height:1.25;font-family:'Work Sans';-inkscape-font-specification:'Work Sans, Normal';letter-spacing:0px;word-spacing:0px;fill:#ffffff;stroke-width:0.957606" />
        <path
           d="m -1951.2645,1113.7762 h -2.1706 l -1.7875,-4.6731 h -7.6353 l -1.7876,4.6731 h -2.145 l 6.5628,-16.8539 h 2.4259 z m -10.8529,-6.5884 h 6.1543 l -3.0899,-8.2992 z"
           id="path32873"
           style="font-size:25.5362px;line-height:1.25;font-family:'Work Sans';-inkscape-font-specification:'Work Sans, Normal';letter-spacing:0px;word-spacing:0px;fill:#ffffff;stroke-width:0.957606" />
        <path
           d="m -1934.8192,1109.4606 q -0.5363,1.43 -1.5322,2.477 -0.9959,1.0214 -2.3493,1.5577 -1.3279,0.5362 -2.9111,0.5362 -2.4004,0 -4.1624,-1.0469 -1.7365,-1.0726 -2.7069,-3.0133 -0.9448,-1.9408 -0.9448,-4.6221 0,-2.6813 0.9448,-4.622 0.9704,-1.9408 2.7069,-2.9878 1.762,-1.0725 4.1113,-1.0725 1.6343,0 2.9111,0.4597 1.2768,0.4341 2.1706,1.3279 0.9193,0.8682 1.4556,2.145 l -2.0174,0.9448 q -0.5618,-1.4555 -1.6343,-2.1961 -1.047,-0.7661 -2.7324,-0.7661 -1.7109,0 -3.0133,0.8172 -1.3023,0.7916 -2.0429,2.2982 -0.715,1.5067 -0.715,3.6517 0,2.1195 0.6895,3.6517 0.6895,1.5066 1.9663,2.3238 1.2768,0.7916 3.0133,0.7916 1.6854,0 2.9366,-0.8427 1.2513,-0.8682 1.8131,-2.5791 z"
           id="path32875"
           style="font-size:25.5362px;line-height:1.25;font-family:'Work Sans';-inkscape-font-specification:'Work Sans, Normal';letter-spacing:0px;word-spacing:0px;fill:#ffffff;stroke-width:0.957606" />
        <path
           d="m -1917.6844,1096.9223 -7.3545,7.5332 -0.3064,0.3319 -4.5199,4.6221 v -2.7579 l 9.4995,-9.7293 z m -11.1594,0 v 16.8539 h -2.0429 v -16.8539 z m 4.0092,6.2308 7.2268,10.6231 h -2.4515 l -6.4607,-9.474 z"
           id="path32877"
           style="font-size:25.5362px;line-height:1.25;font-family:'Work Sans';-inkscape-font-specification:'Work Sans, Normal';letter-spacing:0px;word-spacing:0px;fill:#ffffff;stroke-width:0.957606" />
        <path
           d="m -1908.1084,1114.0315 q -2.4004,0 -4.1624,-1.0469 -1.7365,-1.0726 -2.7069,-3.0133 -0.9448,-1.9408 -0.9448,-4.6221 0,-2.6813 0.9959,-4.622 1.0214,-1.9408 2.8345,-2.9878 1.8131,-1.0725 4.1624,-1.0725 2.5026,0 4.0603,0.9449 1.5832,0.9448 2.5536,2.9111 l -1.8642,1.0214 q -0.5618,-1.4555 -1.7875,-2.1961 -1.2002,-0.7661 -2.9622,-0.7661 -1.7109,0 -3.0388,0.8172 -1.3023,0.7916 -2.0684,2.3238 -0.7406,1.5066 -0.7406,3.6261 0,2.1195 0.6384,3.6517 0.664,1.5066 1.9408,2.3238 1.3023,0.7916 3.1665,0.7916 1.047,0 1.9407,-0.2553 0.9193,-0.2809 1.5833,-0.8172 0.6894,-0.5363 1.0725,-1.3534 0.383,-0.8172 0.383,-1.9152 v -0.5874 h -5.3626 v -1.9152 h 7.2268 v 8.5036 h -1.6088 l -0.1021,-3.141 0.4341,0.077 q -0.664,1.5833 -2.094,2.4515 -1.43,0.8682 -3.5495,0.8682 z"
           id="path32879"
           style="font-size:25.5362px;line-height:1.25;font-family:'Work Sans';-inkscape-font-specification:'Work Sans, Normal';letter-spacing:0px;word-spacing:0px;fill:#ffffff;stroke-width:0.957606" />
        <path
           d="m -1890.0288,1096.9223 q 2.5791,0 4.1368,1.3279 1.5577,1.3278 1.5577,3.6006 0,2.2727 -1.5832,3.5495 -1.5577,1.2513 -4.1369,1.2513 l -0.1787,0.1277 h -4.1369 v 6.9969 h -2.0429 v -16.8539 z m -0.026,7.9417 q 1.813,0 2.6813,-0.7405 0.8937,-0.7661 0.8937,-2.2727 0,-1.5067 -0.8937,-2.2472 -0.8683,-0.7661 -2.6813,-0.7661 h -4.3156 v 6.0265 z m 1.1746,0.4086 5.5669,8.5036 h -2.4259 l -4.8519,-7.38 z"
           id="path32881"
           style="font-size:25.5362px;line-height:1.25;font-family:'Work Sans';-inkscape-font-specification:'Work Sans, Normal';letter-spacing:0px;word-spacing:0px;fill:#ffffff;stroke-width:0.957606" />
        <path
           d="m -1872.7919,1096.6669 q 2.4004,0 4.1368,1.0725 1.762,1.047 2.7069,2.9878 0.9703,1.9407 0.9703,4.622 0,2.6813 -0.9703,4.6221 -0.9449,1.9407 -2.7069,3.0133 -1.7364,1.0469 -4.1368,1.0469 -2.4004,0 -4.1624,-1.0469 -1.7365,-1.0726 -2.7069,-3.0133 -0.9448,-1.9408 -0.9448,-4.6221 0,-2.6813 0.9448,-4.622 0.9704,-1.9408 2.7069,-2.9878 1.762,-1.0725 4.1624,-1.0725 z m 0,1.9152 q -1.7365,0 -3.0133,0.8172 -1.2768,0.7916 -1.9663,2.3238 -0.6895,1.5066 -0.6895,3.6261 0,2.1195 0.6895,3.6517 0.6895,1.5066 1.9663,2.3238 1.2768,0.7916 3.0133,0.7916 1.762,0 3.0132,-0.7916 1.2768,-0.8172 1.9663,-2.3238 0.6895,-1.5322 0.6895,-3.6517 0,-2.1195 -0.6895,-3.6261 -0.6895,-1.5322 -1.9663,-2.3238 -1.2512,-0.8172 -3.0132,-0.8172 z"
           id="path32883"
           style="font-size:25.5362px;line-height:1.25;font-family:'Work Sans';-inkscape-font-specification:'Work Sans, Normal';letter-spacing:0px;word-spacing:0px;fill:#ffffff;stroke-width:0.957606" />
        <path
           d="m -1847.5877,1096.9223 v 10.572 q 0,3.2431 -1.7109,4.9029 -1.711,1.6343 -4.903,1.6343 -3.1665,0 -4.9029,-1.6343 -1.711,-1.6598 -1.711,-4.9029 v -10.572 h 2.0429 v 10.0612 q 0,2.6303 1.0981,3.8815 1.1236,1.2513 3.4729,1.2513 2.3493,0 3.4474,-1.2513 1.1236,-1.2512 1.1236,-3.8815 v -10.0612 z"
           id="path32885"
           style="font-size:25.5362px;line-height:1.25;font-family:'Work Sans';-inkscape-font-specification:'Work Sans, Normal';letter-spacing:0px;word-spacing:0px;fill:#ffffff;stroke-width:0.957606" />
        <path
           d="m -1829.1762,1096.9223 v 16.8539 h -2.5281 l -7.0479,-11.287 -1.7876,-3.1665 h -0.025 l 0.1022,2.5536 v 11.8999 h -1.9408 v -16.8539 h 2.5281 l 7.0224,11.2359 1.8131,3.2431 h 0.025 l -0.1021,-2.5791 v -11.8999 z"
           id="path32887"
           style="font-size:25.5362px;line-height:1.25;font-family:'Work Sans';-inkscape-font-specification:'Work Sans, Normal';letter-spacing:0px;word-spacing:0px;fill:#ffffff;stroke-width:0.957606" />
        <path
           d="m -1818.2212,1096.9223 q 3.9582,0 6.2053,2.1961 2.2728,2.1706 2.2728,6.2308 0,4.0603 -2.2728,6.2564 -2.2471,2.1706 -6.2053,2.1706 h -5.4392 v -16.8539 z m 0.2043,14.9387 q 2.8856,0 4.4944,-1.711 1.6343,-1.7364 1.6343,-4.8008 0,-3.0643 -1.6343,-4.7752 -1.6088,-1.7365 -4.4944,-1.7365 h -3.6006 v 13.0235 z"
           id="path32889"
           style="font-size:25.5362px;line-height:1.25;font-family:'Work Sans';-inkscape-font-specification:'Work Sans, Normal';letter-spacing:0px;word-spacing:0px;fill:#ffffff;stroke-width:0.957606" />
      </g>
    </g>
  </g>
</svg>
