<?xml version="1.0" encoding="UTF-8" standalone="no"?>
<!-- Created with Inkscape (http://www.inkscape.org/) -->

<svg
   width="5000"
   height="3000"
   viewBox="0 0 1322.9167 793.74998"
   version="1.1"
   id="svg37968"
   xmlns:xlink="http://www.w3.org/1999/xlink"
   xmlns="http://www.w3.org/2000/svg"
   xmlns:svg="http://www.w3.org/2000/svg">
  <defs
     id="defs37965">
    <linearGradient
       id="linearGradient14309">
      <stop
         style="stop-color:#0575e6;stop-opacity:1;"
         offset="0"
         id="stop14305" />
      <stop
         style="stop-color:#0575e6;stop-opacity:0;"
         offset="1"
         id="stop14307" />
    </linearGradient>
    <linearGradient
       id="linearGradient11537">
      <stop
         style="stop-color:#0575e6;stop-opacity:1"
         offset="0"
         id="stop11535" />
      <stop
         style="stop-color:#021b79;stop-opacity:0"
         offset="1"
         id="stop11533" />
    </linearGradient>
    <linearGradient
       id="linearGradient6679">
      <stop
         style="stop-color:#0575e6;stop-opacity:1"
         offset="0"
         id="stop6677" />
      <stop
         style="stop-color:#021b79;stop-opacity:0"
         offset="1"
         id="stop6675" />
    </linearGradient>
    <linearGradient
       id="linearGradient27914">
      <stop
         style="stop-color:#021b79;stop-opacity:0"
         offset="0"
         id="stop27912" />
      <stop
         style="stop-color:#0575e6;stop-opacity:1"
         offset="1"
         id="stop27910" />
    </linearGradient>
    <linearGradient
       xlink:href="#linearGradient6679"
       id="linearGradient10339"
       x1="1350.453"
       y1="3980.5747"
       x2="3091.8655"
       y2="0"
       gradientUnits="userSpaceOnUse" />
    <linearGradient
       xlink:href="#linearGradient27914"
       id="linearGradient10347"
       x1="917.70776"
       y1="1520.4805"
       x2="4295.3711"
       y2="825.87543"
       gradientUnits="userSpaceOnUse" />
    <linearGradient
       xlink:href="#linearGradient27914"
       id="linearGradient10355"
       x1="-864.36633"
       y1="1921.6421"
       x2="3906.2637"
       y2="474.83218"
       gradientUnits="userSpaceOnUse" />
    <linearGradient
       xlink:href="#linearGradient27914"
       id="linearGradient10969"
       x1="4633.0269"
       y1="2869.5627"
       x2="4633.0269"
       y2="-98.062569"
       gradientUnits="userSpaceOnUse" />
    <linearGradient
       xlink:href="#linearGradient11537"
       id="linearGradient11437"
       gradientUnits="userSpaceOnUse"
       x1="2385.0061"
       y1="4312.5894"
       x2="4092.8218"
       y2="2184.8232"
       gradientTransform="matrix(-0.99999999,0,0,0.99999999,4245.2602,3.7795274e-5)" />
    <linearGradient
       xlink:href="#linearGradient11537"
       id="linearGradient13865"
       gradientUnits="userSpaceOnUse"
       gradientTransform="matrix(0,-0.26458333,-0.26458333,0,793.74998,1123.2252)"
       x1="2385.0061"
       y1="4312.5894"
       x2="4092.8218"
       y2="2184.8232" />
    <linearGradient
       xlink:href="#linearGradient14309"
       id="linearGradient14311"
       x1="2740.3367"
       y1="-1046.7433"
       x2="5000"
       y2="599.02264"
       gradientUnits="userSpaceOnUse" />
  </defs>
  <g
     id="layer1"
     transform="translate(-6614.5833,1658.3237)">
    <g
       id="background60"
       transform="translate(6614.5833,-1658.3237)">
      <g
         id="g15143">
        <rect
           style="opacity:1;fill:#000000;fill-rule:evenodd;stroke-width:1;stroke-linecap:round;paint-order:stroke fill markers"
           id="rect10203"
           width="1322.9166"
           height="793.75"
           x="0"
           y="0" />
        <path
           id="rect10091"
           style="opacity:0.592322;fill:url(#linearGradient10339);fill-opacity:1;fill-rule:evenodd;stroke-width:3.77953;stroke-linecap:round;paint-order:stroke fill markers"
           d="m 2487.6895,0 c 14.2162,12.301622 28.1739,24.895293 41.8691,37.767578 13.6952,12.872285 27.1263,26.024071 40.2852,39.441406 13.1588,13.417336 26.047,27.100336 38.6542,41.037106 12.6073,13.93678 24.9342,28.12605 36.9747,42.55664 12.0404,14.4306 23.7936,29.10119 35.2519,44 11.4584,14.89882 22.6214,30.02578 33.4824,45.36719 10.861,15.34141 21.4196,30.89785 31.668,46.65625 10.2484,15.7584 20.1881,31.71937 29.8086,47.86914 9.6205,16.14978 18.923,32.48837 27.9004,49.00391 8.9774,16.51553 17.6282,33.20877 25.9472,50.06445 8.3191,16.85569 16.3058,33.8747 23.9512,51.04492 7.6454,17.17022 14.9498,34.49008 21.9063,51.94922 6.9565,17.45915 13.564,35.05684 19.8164,52.7793 6.2523,17.72246 12.1506,35.57109 17.6836,53.53125 5.5329,17.96015 10.7017,36.03284 15.5,54.20508 4.7982,18.17224 9.2251,36.44402 13.2734,54.80273 4.0483,18.35872 7.7163,36.7978 11.0059,55.30274 3.2895,18.50493 6.2005,37.07576 8.7343,55.69726 2.5338,18.6215 4.6896,37.29354 6.4707,56.00195 1.7812,18.70842 3.1873,37.45308 4.2188,56.21876 1.0315,18.76562 1.6896,37.55242 1.9746,56.34572 0.285,18.7933 0.1967,37.5916 -0.2617,56.3828 -0.4584,18.7912 -1.2875,37.5745 -2.4863,56.334 -1.1988,18.7595 -2.7671,37.4952 -4.7032,56.1933 -1.9361,18.6982 -4.2398,37.3597 -6.9101,55.9668 -2.6704,18.6072 -5.7079,37.16 -9.1094,55.6465 -3.4015,18.4865 -7.1673,36.906 -11.2969,55.2422 -4.1296,18.3362 -8.6219,36.5899 -13.4765,54.7461 -4.8547,18.1562 -10.0719,36.2156 -15.6485,54.1621 -5.5766,17.9466 -11.5131,35.781 -17.8086,53.4883 -6.2955,17.7073 -12.9496,35.2863 -19.9609,52.7246 -7.0113,17.4383 -14.3795,34.7353 -22.1035,51.875 -5.719,12.6906 -11.6201,25.282 -17.6875,37.7832 -6.0674,12.5012 -12.3011,24.912 -18.6895,37.2383 -6.3883,12.3262 -12.9314,24.5687 -19.6133,36.7344 -6.6818,12.1656 -13.5031,24.2539 -20.4511,36.2734 -6.948,12.0195 -14.0224,23.9696 -21.209,35.8574 -7.1867,11.8878 -14.4849,23.7139 -21.8828,35.4844 -14.7958,23.541 -29.9867,46.8614 -45.4629,70.0195 -15.4763,23.1581 -31.2385,46.1544 -47.1758,69.0449 -15.9373,22.8906 -32.0496,45.6758 -48.2285,68.4141 -32.3578,45.4766 -64.9805,90.7632 -96.9883,136.3223 -16.0039,22.7795 -31.9025,45.7289 -47.5723,68.873 -15.6697,23.1441 -31.1099,46.4842 -46.1972,70.043 -15.0874,23.5587 -29.8215,47.3359 -44.0781,71.3594 -7.1284,12.0117 -14.1377,24.0853 -21.0118,36.2226 -6.8741,12.1374 -13.6123,24.3402 -20.2011,36.6094 -6.5889,12.2692 -13.0283,24.6044 -19.3008,37.0117 -6.2726,12.4073 -12.3775,24.8859 -18.3028,37.4375 -5.9252,12.5517 -11.6699,25.1766 -17.2168,37.8789 -5.5468,12.7023 -10.8957,25.4826 -16.0332,38.3418 -5.1374,12.8592 -10.0627,25.798 -14.7597,38.8203 -4.697,13.0224 -9.1671,26.1266 -13.3926,39.3184 -4.2255,13.1917 -8.2067,26.4705 -11.9297,39.8379 -3.723,13.3674 -7.1875,26.8237 -10.3769,40.373 -2.0985,8.9145 -4.0671,17.8575 -5.9063,26.8242 -1.8391,8.9668 -3.5496,17.9582 -5.1308,26.9707 -1.5813,9.0125 -3.0328,18.0461 -4.3575,27.0977 -1.3247,9.0516 -2.5222,18.121 -3.5918,27.2051 -2.1391,18.1682 -3.7696,36.3956 -4.8965,54.6543 -0.7713,12.4991 -0.9817,25.0243 -1.2832,37.5449 H 5000 V 0 Z"
           transform="scale(0.26458333)" />
        <path
           id="rect9976"
           style="opacity:0.592322;fill:url(#linearGradient10347);fill-opacity:1;fill-rule:evenodd;stroke-width:3.77953;stroke-linecap:round;paint-order:stroke fill markers"
           d="M 3230.4844,0 H 0 v 1681.0801 c 3.4429215,5.3353 6.7573039,10.7526 10.287109,16.0312 8.174235,12.2241 16.581301,24.2932 25.216797,36.1992 8.635496,11.9061 17.497152,23.6466 26.578125,35.2129 9.080974,11.5664 18.382258,22.9593 27.892578,34.1739 9.510321,11.2145 19.230761,22.2491 29.154301,33.0996 9.92353,10.8505 20.04852,21.5159 30.36914,31.9902 10.32062,10.4744 20.83748,20.7577 31.53906,30.8438 10.70158,10.086 21.5879,19.9765 32.6543,29.6621 11.0664,9.6856 22.31146,19.1664 33.72656,28.4394 11.41509,9.273 23.00039,18.3373 34.74805,27.1856 11.74765,8.8482 23.65856,17.4812 35.72265,25.8925 12.06409,8.4114 24.28209,16.6003 36.64649,24.5625 12.36439,7.9623 24.87487,15.6982 37.52343,23.1993 12.64857,7.501 25.43496,14.7672 38.35157,21.7949 12.9166,7.0277 25.96234,13.8172 39.13086,20.3594 13.16851,6.5422 26.45898,12.8382 39.86328,18.8828 13.40429,6.0445 26.92293,11.8363 40.54687,17.3711 13.62395,5.5347 27.35418,10.8114 41.18164,15.8242 13.82746,5.0128 27.7482,9.7605 41.75391,14.2422 14.0057,4.4817 28.09598,8.6988 42.25976,12.6484 14.16378,3.9496 28.40144,7.6324 42.70313,11.0488 14.30169,3.4165 28.66846,6.565 43.08789,9.4473 14.41943,2.8823 28.89121,5.4986 43.4082,7.8457 14.517,2.3471 29.07748,4.4254 43.67188,6.2363 14.59439,1.811 29.22337,3.3551 43.875,4.6289 14.65162,1.2738 29.32694,2.2781 44.01562,3.0137 14.68869,0.7356 29.39013,1.202 44.09571,1.3985 14.70558,0.1964 29.41489,0.123 44.11719,-0.2207 14.7023,-0.3438 29.3973,-0.9588 44.0762,-1.8438 14.6788,-0.885 29.3413,-2.0396 43.9765,-3.4668 14.6353,-1.4272 29.245,-3.1272 43.8164,-5.0977 14.5715,-1.9704 29.1063,-4.2118 43.5938,-6.7265 14.4875,-2.5147 28.9271,-5.3014 43.3105,-8.3613 14.3834,-3.06 28.7097,-6.3938 42.9688,-10 14.2591,-3.6063 28.4479,-7.485 42.5566,-11.6309 14.1088,-4.1459 28.137,-8.5593 42.0781,-13.2344 13.9412,-4.6751 27.7946,-9.6109 41.5508,-14.8047 13.7563,-5.1938 27.4166,-10.6456 40.9707,-16.3476 13.5541,-5.7021 27.0013,-11.6557 40.336,-17.8555 13.3347,-6.1998 26.5562,-12.6449 39.6543,-19.332 13.098,-6.6871 26.0738,-13.6154 38.9179,-20.7793 12.8441,-7.1639 25.556,-14.5631 38.1289,-22.1934 12.5729,-7.6302 25.0066,-15.492 37.2911,-23.5781 12.2844,-8.0861 24.4197,-16.3963 36.3984,-24.9277 11.9787,-8.5315 23.8013,-17.2836 35.457,-26.25 11.6558,-8.9664 23.1455,-18.1483 34.461,-27.5391 11.3154,-9.3908 22.4561,-18.9902 33.414,-28.7949 10.958,-9.8048 21.7333,-19.8152 32.3164,-30.0235 10.5832,-10.2082 20.9749,-20.6155 31.166,-31.2168 10.1912,-10.6012 20.1811,-21.3951 29.9629,-32.3789 9.5613,-10.736 18.9143,-21.6293 28.0684,-32.6699 9.1541,-11.0406 18.109,-22.2292 26.877,-33.5547 8.7679,-11.3255 17.3492,-22.7881 25.7519,-34.3789 8.4027,-11.5908 16.627,-23.31 24.6855,-35.1465 8.0586,-11.8364 15.9502,-23.791 23.6856,-35.8535 7.7354,-12.0625 15.3149,-24.2329 22.748,-36.5019 7.4332,-12.269 14.7211,-24.636 21.8731,-37.0918 7.152,-12.4559 14.1687,-25 21.0605,-37.6231 6.8919,-12.6231 13.658,-25.325 20.3106,-38.0957 6.6526,-12.7707 13.1905,-25.611 19.625,-38.5097 12.8689,-25.7975 25.3232,-51.8315 37.4453,-78.0235 12.1221,-26.1919 23.9137,-52.5412 35.457,-78.9707 11.5433,-26.4295 22.8382,-52.939 33.9707,-79.4492 22.2651,-53.0204 44.0643,-106.3562 66.1836,-159.5606 11.0597,-26.6021 22.1996,-53.1727 33.5176,-79.65229 11.318,-26.47957 22.8151,-52.8687 34.5879,-79.11329 11.7728,-26.24458 23.8221,-52.34301 36.2461,-78.24023 12.424,-25.89722 25.2224,-51.59377 38.4941,-77.03125 6.6359,-12.71874 13.3888,-25.37235 20.2735,-37.95508 6.8846,-12.58273 13.9006,-25.09466 21.0586,-37.52734 7.158,-12.43268 14.4581,-24.78611 21.914,-37.05469 7.4559,-12.26857 15.0674,-24.45254 22.8457,-36.54297 6.4421,-10.01338 12.9982,-19.95109 19.666,-29.8125 6.6678,-9.86141 13.447,-19.64558 20.336,-29.35156 6.8889,-9.70598 13.8886,-19.33374 20.9941,-28.88086 7.1055,-9.54711 14.3173,-19.01364 21.6348,-28.39844 7.3175,-9.3848 14.7407,-18.68721 22.2656,-27.90625 7.5249,-9.21904 15.1511,-18.35446 22.8789,-27.40429 7.7278,-9.04984 15.5563,-18.0154 23.4824,-26.89258 7.9261,-8.87719 15.9505,-17.6661 24.0703,-26.36719 8.1199,-8.70109 16.3356,-17.31439 24.6446,-25.83594 8.309,-8.52154 16.7115,-16.95246 25.2051,-25.29101 8.4935,-8.33856 17.0783,-16.58421 25.7519,-24.73633 8.6736,-8.15212 17.4361,-16.20963 26.2852,-24.17188 8.849,-7.96224 17.7847,-15.82873 26.8047,-23.59765 9.0199,-7.76892 18.1243,-15.44153 27.3105,-23.01367 9.1862,-7.57215 18.4528,-15.04409 27.8008,-22.41602 9.348,-7.37193 18.7761,-14.64228 28.2812,-21.81055 9.5052,-7.16827 19.0884,-14.23415 28.7461,-21.19531 9.6578,-6.96116 19.3896,-13.81775 29.1953,-20.56836 9.8058,-6.75061 19.6855,-13.39503 29.6348,-19.93164 9.9493,-6.53661 19.9685,-12.96599 30.0566,-19.28515 10.0882,-6.31917 20.2444,-12.528681 30.4668,-18.626958 10.2225,-6.098277 20.5111,-12.085043 30.8633,-17.958984 10.3523,-5.873942 20.7687,-11.63509 31.2461,-17.28125 10.4775,-5.646161 21.0172,-11.176864 31.6153,-16.591797 10.598,-5.414934 21.2546,-10.714271 31.9687,-15.894532 10.7141,-5.180261 21.4849,-10.24145 32.3106,-15.1835934 C 3217.2746,5.7668568 3223.889,2.9045674 3230.4844,0 Z"
           transform="scale(0.26458333)" />
        <path
           id="rect8628"
           style="opacity:0.592322;fill:url(#linearGradient10969);fill-opacity:1;fill-rule:evenodd;stroke-width:3.77953;stroke-linecap:round;paint-order:stroke fill markers"
           d="m 5000,0 c -2.6112,23.565367 -5.4654,47.102591 -8.5625,70.605469 -3.0971,23.502878 -6.4366,46.970531 -10.0156,70.402341 -3.5791,23.43181 -7.398,46.82753 -11.4551,70.17969 -4.0571,23.35216 -8.3517,46.66185 -12.8828,69.92578 -4.5311,23.26394 -9.2996,46.48131 -14.3008,69.64844 -5.0012,23.16713 -10.2357,46.28396 -15.7031,69.3457 -5.4674,23.06174 -11.168,46.06785 -17.0977,69.01563 -5.9296,22.94777 -12.0886,45.83688 -18.4765,68.66211 -6.3879,22.82523 -13.0035,45.58714 -19.8457,68.28125 -6.8423,22.6941 -13.9106,45.32059 -21.2032,67.875 -7.2926,22.5544 -14.8098,45.03724 -22.5488,67.44336 -7.739,22.40611 -15.7013,44.73512 -23.8828,66.98437 -8.1815,22.24926 -16.5831,44.41814 -25.2031,66.50195 -8.6201,22.08382 -17.4571,44.0824 -26.5118,65.99219 -9.0546,21.90979 -18.3253,43.73182 -27.8105,65.45902 -9.4852,21.7272 -19.1857,43.3604 -29.0977,64.8965 -9.9119,21.536 -20.0364,42.9743 -30.3711,64.3105 -10.3346,21.3362 -20.8793,42.5694 -31.6328,63.6973 -10.7534,21.1279 -21.7145,42.1495 -32.8828,63.0605 -11.1682,20.911 -22.5439,41.713 -34.123,62.3984 -11.5792,20.6855 -23.3616,41.2557 -35.3477,61.7071 -11.9861,20.4514 -24.1753,40.7834 -36.5644,60.9922 -12.3891,20.2087 -24.9795,40.2944 -37.7676,60.2519 -12.7881,19.9575 -25.7738,39.7867 -38.957,59.4844 -13.1833,19.6977 -26.5643,39.2641 -40.1387,58.6934 -13.5744,19.4293 -27.3431,38.7207 -41.3047,57.873 -13.9616,19.1523 -28.1142,38.1645 -42.459,57.0313 -14.3448,18.8667 -28.8814,37.5894 -43.6055,56.1621 -14.7241,18.5726 -29.6368,36.9957 -44.7363,55.2656 -15.0994,18.2699 -30.3846,36.3851 -45.8555,54.3437 -15.4708,17.9587 -31.1265,35.7597 -46.9648,53.3985 -15.8383,17.6387 -31.8607,35.1155 -48.0625,52.4258 -13.1655,14.0662 -26.447,28.0227 -39.8437,41.8671 -13.3968,13.8445 -26.9077,27.5773 -40.5313,41.1973 -13.6236,13.62 -27.3589,27.1267 -41.2051,40.5195 -13.8462,13.3929 -27.8027,26.673 -41.8672,39.836 -14.0644,13.163 -28.2372,26.2101 -42.5156,39.1406 -14.2784,12.9305 -28.6623,25.7442 -43.1504,38.4395 -14.488,12.6952 -29.0801,25.2712 -43.7734,37.7285 -14.6934,12.4573 -29.4885,24.795 -44.3828,37.0117 -14.8944,12.2167 -29.8894,24.3118 -44.9805,36.2851 -15.091,11.9734 -30.2791,23.8254 -45.5625,35.5528 -15.2834,11.7274 -30.6613,23.3299 -46.1328,34.8086 -15.4715,11.4787 -31.0362,22.8332 -46.6914,34.0605 -15.6552,11.2273 -31.4017,22.3276 -47.2363,33.3008 -15.8347,10.9732 -31.7578,21.8187 -47.7676,32.5352 -16.0098,10.7164 -32.1046,21.3047 -48.2852,31.7617 -16.1805,10.457 -32.4459,20.7836 -48.7929,30.9785 -16.3471,10.1949 -32.776,20.2575 -49.2852,30.1875 -16.5092,9.93 -33.0985,19.7281 -49.7656,29.3906 -16.6671,9.6625 -33.4118,19.1898 -50.2324,28.582 -16.8207,9.3923 -33.7177,18.6482 -50.6875,27.7676 -16.9699,9.1194 -34.0142,18.1016 -51.129,26.9453 -17.1147,8.8438 -34.2993,17.5498 -51.5546,26.1153 -17.2554,8.5655 -34.5811,16.9909 -51.9727,25.2754 -17.3916,8.2845 -34.8495,16.4288 -52.373,24.4296 -17.5236,8.0009 -35.1125,15.8578 -52.7637,23.5723 -17.6512,7.7145 -35.3661,15.2855 -53.1406,22.711 -17.7746,7.4254 -35.6084,14.7061 -53.502,21.8398 -17.8936,7.1337 -35.8452,14.1198 -53.8535,20.959 -18.0083,6.8392 -36.0747,13.5321 -54.1934,20.0742 -18.1186,6.5421 -36.2908,12.9335 -54.5156,19.1758 -18.2247,6.2423 -36.5016,12.3356 -54.8281,18.2754 -18.3265,5.9397 -36.703,11.7267 -55.127,17.3613 H 5000 Z"
           transform="scale(0.26458333)" />
        <path
           id="path9978"
           style="opacity:0.592322;fill:url(#linearGradient10355);fill-opacity:1;fill-rule:evenodd;stroke-width:3.77953;stroke-linecap:round;paint-order:stroke fill markers"
           d="M 2174.3867,0 H 0 v 3000 h 319.07031 c -7.28576,-16.557 -14.68666,-33.0694 -21.22851,-49.9336 -9.38825,-24.2019 -18.00246,-48.7029 -25.82032,-73.4551 -7.81786,-24.7521 -14.83866,-49.754 -21.04101,-74.959 -6.20235,-25.2049 -11.58718,-50.6133 -16.12891,-76.1738 -4.54173,-25.5604 -8.2393,-51.2656 -11.09961,-77.0644 -2.8603,-25.7988 -4.88262,-51.6909 -6.07031,-77.6211 -1.18769,-25.9303 -1.54057,-51.8988 -1.06445,-77.8535 0.47612,-25.9548 1.78099,-51.8954 3.91211,-77.7676 2.13111,-25.8722 5.08793,-51.6766 8.86523,-77.3594 3.7773,-25.6828 8.37634,-51.2445 13.79102,-76.6309 5.41468,-25.3864 11.64425,-50.597 18.6875,-75.58 7.04324,-24.9831 14.89949,-49.7382 23.5625,-74.211 8.663,-24.4727 18.13192,-48.6555 28.375,-72.5058 10.24308,-23.8504 21.26072,-47.3686 33.02343,-70.5078 11.76272,-23.1393 24.27028,-45.9008 37.49219,-68.2403 13.22191,-22.3395 27.15668,-44.2559 41.77735,-65.707 14.62066,-21.4511 29.92578,-42.4362 45.88476,-62.9102 15.95898,-20.474 32.5737,-40.4375 49.81055,-59.8457 17.23685,-19.4082 35.09649,-38.2618 53.55078,-56.5156 18.45428,-18.2537 37.502,-35.9074 57.11328,-52.918 24.77932,-21.4933 50.32685,-41.897 76.5293,-61.3593 26.20244,-19.4624 53.05952,-37.9838 80.45898,-55.7149 27.39946,-17.7311 55.34058,-34.6712 83.71094,-50.9707 28.37036,-16.2995 57.17,-31.9574 86.28516,-47.125 58.23033,-30.3351 117.72533,-58.707 177.57813,-86.3125 59.8528,-27.6055 120.064,-54.4455 179.7305,-81.7187 59.6664,-27.2733 119.5,-55.4896 178.3144,-85.6211 29.4072,-15.0658 58.5593,-30.6108 87.3086,-46.7559 28.7493,-16.1451 57.0957,-32.8898 84.8906,-50.3574 27.7949,-17.4676 55.0382,-35.6562 81.5821,-54.68947 26.5438,-19.03326 52.3884,-38.91181 77.3847,-59.7539 24.9963,-20.8421 49.1448,-42.64887 72.2969,-65.54297 23.1521,-22.8941 45.307,-46.87518 66.3184,-72.06445 17.2363,-20.66361 33.5748,-42.06279 48.9804,-64.11133 15.4057,-22.04855 29.8792,-44.74542 43.3887,-68.00586 13.5095,-23.26044 26.0537,-47.08351 37.6016,-71.38281 11.5478,-24.2993 22.0984,-49.07512 31.6191,-74.24024 9.5208,-25.16512 18.0132,-50.72022 25.4414,-76.57812 7.4282,-25.8579 13.7924,-52.01885 19.0625,-78.39649 5.2702,-26.37764 9.4455,-52.97293 12.4922,-79.69726 3.0467,-26.72434 4.965,-53.57857 5.7227,-80.47657 0.7576,-26.89799 0.3538,-53.81645 -1.1836,-80.66992 -1.5375,-26.853464 -4.2075,-53.640951 -7.9844,-80.273435 C 2178.5441,20.210758 2176.1584,10.16069 2174.3867,0 Z"
           transform="scale(0.26458333)" />
        <path
           id="path11435"
           style="opacity:0.592322;fill:url(#linearGradient11437);fill-opacity:1;fill-rule:evenodd;stroke-width:3.77953;stroke-linecap:round;paint-order:stroke fill markers"
           d="M 0,1823.043 V 3000 h 1732.2734 c -18.4239,-5.6346 -36.8004,-11.4216 -55.1269,-17.3613 -18.3265,-5.9398 -36.6034,-12.0331 -54.8281,-18.2754 -18.2248,-6.2423 -36.3971,-12.6337 -54.5157,-19.1758 -18.1186,-6.5421 -36.185,-13.235 -54.1933,-20.0742 -18.0083,-6.8392 -35.96,-13.8253 -53.8535,-20.959 -17.8936,-7.1337 -35.7274,-14.4144 -53.502,-21.8398 -17.7745,-7.4255 -35.4894,-14.9965 -53.1406,-22.711 -17.6512,-7.7145 -35.2401,-15.5714 -52.7637,-23.5723 -17.5235,-8.0008 -34.9814,-16.1451 -52.373,-24.4296 -17.3916,-8.2845 -34.7173,-16.7099 -51.9727,-25.2754 -17.2553,-8.5655 -34.44,-17.2715 -51.5547,-26.1153 -17.1148,-8.8436 -34.159,-17.8258 -51.1289,-26.9453 -16.9698,-9.1194 -33.8668,-18.3752 -50.6875,-27.7676 -16.8206,-9.3922 -33.5653,-18.9195 -50.23241,-28.582 -16.66707,-9.6625 -33.25642,-19.4606 -49.76562,-29.3906 -16.50921,-9.93 -32.93806,-19.9926 -49.28516,-30.1875 -16.34699,-10.1949 -32.61247,-20.5215 -48.79297,-30.9785 -16.18057,-10.457 -32.27534,-21.0453 -48.28516,-31.7617 -16.00977,-10.7166 -31.93287,-21.562 -47.76757,-32.5352 -15.8346,-10.9732 -31.58115,-22.0735 -47.23633,-33.3008 -15.65522,-11.2273 -31.21991,-22.5818 -46.69141,-34.0605 -15.47149,-11.4788 -30.84942,-23.0812 -46.13281,-34.8086 -15.28339,-11.7274 -30.47149,-23.5793 -45.5625,-35.5528 -15.09109,-11.9732 -30.08607,-24.0684 -44.98047,-36.2851 -14.89429,-12.2167 -29.68941,-24.5544 -44.38281,-37.0117 -14.69329,-12.4573 -29.28545,-25.0333 -43.77344,-37.7285 -14.4881,-12.6953 -28.87198,-25.509 -43.15039,-38.4395 -14.27838,-12.9305 -28.45125,-25.9776 -42.51563,-39.1406 -14.06452,-13.163 -28.02096,-26.4431 -41.86718,-39.836 -13.84619,-13.3928 -27.58147,-26.8995 -41.20508,-40.5195 -13.62361,-13.62 -27.13445,-27.3527 -40.53125,-41.1973 -13.39669,-13.8443 -26.67822,-27.801 -39.84375,-41.8671 -16.20178,-17.3104 -32.2242,-34.7872 -48.0625,-52.4258 -15.8383,-17.6389 -31.49407,-35.4398 -46.964844,-53.3985 -15.47093,-17.9585 -30.756068,-36.0738 -45.855469,-54.3437 C 26.332184,1855.9137 13.119684,1839.515 0,1823.043 Z"
           transform="scale(0.26458333)" />
        <path
           id="path13863"
           style="opacity:0.592322;fill:url(#linearGradient13865);fill-opacity:1;fill-rule:evenodd;stroke-width:1;stroke-linecap:round;paint-order:stroke fill markers"
           d="M 311.4032,0 H 0 v 458.33067 c 1.49082,-4.87466 3.02196,-9.73676 4.59351,-14.58566 1.57157,-4.84889 3.18376,-9.68464 4.83536,-14.5066 1.65161,-4.82198 3.34267,-9.63006 5.0736,-14.42395 1.73093,-4.79388 3.50176,-9.57395 5.3113,-14.33863 1.80954,-4.76471 3.65794,-9.51442 5.5454,-14.24874 1.88746,-4.73436 3.81381,-9.45288 5.77845,-14.15574 1.96466,-4.70283 3.96782,-9.3899 6.00895,-14.06011 2.04113,-4.67022 4.11993,-9.32395 6.23684,-13.9604 2.11688,-4.63643 4.27172,-9.25549 6.46366,-13.85702 2.19194,-4.60153 4.42116,-9.18562 6.68745,-13.75111 2.26629,-4.56548 4.56975,-9.11225 6.90968,-13.64053 2.33986,-4.52829 4.7164,-9.0379 7.12927,-13.52785 2.41284,-4.48992 4.86177,-8.96059 7.34685,-13.41107 2.48502,-4.45044 5.00578,-8.88082 7.56232,-13.29066 2.55653,-4.40983 5.14895,-8.79909 7.77626,-13.16714 2.62731,-4.36806 5.28971,-8.71486 7.98711,-13.04003 2.6974,-4.32515 5.42965,-8.62872 8.19639,-12.90981 2.76675,-4.28111 5.56824,-8.53952 8.40362,-12.77545 2.83543,-4.23592 5.70495,-8.44891 8.60827,-12.63851 2.90332,-4.18957 5.84027,-8.35585 8.81083,-12.49795 2.97056,-4.14211 5.97477,-8.26026 9.01184,-12.35376 3.0371,-4.0935 6.1069,-8.16225 9.20977,-12.20598 3.10288,-4.04373 6.23869,-8.06225 9.40668,-12.05508 3.16791,-3.99285 6.3681,-7.96027 9.60044,-11.90108 3.23233,-3.94078 6.49668,-7.85532 9.79267,-11.74295 3.296,-3.8876 6.6234,-7.74844 9.98234,-11.58172 3.35896,-3.83331 6.74925,-7.63905 10.17045,-11.41688 3.4212,-3.777823 6.87324,-7.527723 10.35595,-11.248923 3.48271,-3.72124 6.9964,-7.41388 10.53994,-11.07736 3.54352,-3.66347 7.11716,-7.297598 10.72079,-10.902178 3.60362,-3.60458 7.23706,-7.17932 10.90011,-10.72389 3.66298,-3.54454 7.35568,-7.05861 11.07735,-10.54199 4.58004,-4.28673 9.2041,-8.52599 13.87098,-12.71654 4.66697,-4.19055 9.37678,-8.33281 14.12837,-12.42612 4.75152,-4.09335 9.54453,-8.13754 14.37844,-12.13259 C 302.70616,6.967059 307.04498,3.471249 311.4032,0 Z" />
        <path
           id="path14085"
           style="opacity:0.592322;fill:url(#linearGradient14311);fill-opacity:1;fill-rule:evenodd;stroke-width:3.77953;stroke-linecap:round;paint-order:stroke fill markers"
           d="m 3983.6055,0 c 8.5077,7.0380895 17.0065,14.085677 25.4316,21.222656 10.6458,9.018104 21.2264,18.115032 31.7383,27.289063 10.5119,9.174031 20.9561,18.426139 31.332,27.753906 10.376,9.327767 20.6821,18.731626 30.9199,28.210935 10.2379,9.47931 20.4062,19.03345 30.5039,28.66211 10.0978,9.62867 20.1266,19.3316 30.0821,29.10742 9.9554,9.77583 19.8374,19.62608 29.6484,29.54688 9.8111,9.9208 19.5503,19.91299 29.2149,29.97656 9.6645,10.06358 19.2555,20.19818 28.7714,30.40235 9.516,10.20416 18.957,20.47775 28.3223,30.82031 9.3653,10.34256 18.6547,20.75365 27.8672,31.23242 9.2125,10.47876 18.3486,21.02589 27.4063,31.63867 9.0576,10.61278 18.0368,21.29056 26.9374,32.03516 8.9007,10.7446 17.7214,21.55545 26.4629,32.42968 8.7415,10.87424 17.4041,21.81279 25.9844,32.81446 8.5803,11.00167 17.0791,22.06644 25.4961,33.19336 8.417,11.12692 16.7524,22.31643 25.0039,33.5664 8.2516,11.24998 16.4199,22.5608 24.5039,33.93164 8.084,11.37085 16.0837,22.8015 23.9981,34.29102 7.9144,11.48952 15.7436,23.03658 23.4863,34.64258 7.7427,11.606 15.398,23.26994 22.9668,34.99023 7.5688,11.7203 15.0505,23.49769 22.4434,35.33008 7.3928,11.83239 14.6972,23.71981 21.9121,35.66211 7.2148,11.9423 14.3403,23.94021 21.375,35.99023 9.1751,15.71647 18.1923,31.52268 27.0527,47.41602 8.8604,15.89334 17.5632,31.87383 26.1074,47.9375 8.5443,16.06367 16.9316,32.21006 25.1582,48.4375 8.2266,16.22744 16.2937,32.53526 24.2012,48.91992 7.9075,16.38467 15.6552,32.84553 23.2422,49.38086 7.587,16.53537 15.0124,33.14477 22.2773,49.82417 7.265,16.6795 14.3691,33.4291 21.3106,50.2461 6.9415,16.8171 13.7213,33.7024 20.3379,50.6504 6.6165,16.9481 13.0692,33.9588 19.3593,51.0313 6.2902,17.0725 12.4167,34.2061 18.3789,51.3965 5.9623,17.1903 11.7616,34.4385 17.3946,51.7402 5.6329,17.3017 11.1002,34.656 16.4023,52.0625 5.3022,17.4065 10.4383,34.8644 15.4082,52.3691 4.9699,17.5048 9.774,35.0579 14.4102,52.6543 4.6362,17.5965 9.1052,35.2364 13.4062,52.918 4.301,17.6816 8.4341,35.4039 12.3985,53.1641 3.9643,17.7602 7.7585,35.5584 11.3847,53.3906 3.6263,17.8322 7.0844,35.698 10.3711,53.5957 3.2867,17.8977 6.402,35.8266 9.3477,53.7832 2.9456,17.9566 5.721,35.9422 8.3242,53.9512 2.6032,18.009 5.0338,36.0428 7.293,54.0976 2.2592,18.0548 4.346,36.1306 6.2597,54.2246 1.7442,16.4901 3.3037,32.9982 4.7598,49.5157 V 0 Z"
           transform="scale(0.26458333)" />
      </g>
      <g
         id="g15177"
         transform="translate(2556.8883,-682.95205)"
         style="fill:#ffffff">
        <path
           d="m -1985.3921,1046.2495 v 41.4054 h -4.7679 v -26.0352 l 0.5646,-10.9159 h -0.063 l -13.6136,36.9511 h -4.266 l -13.6136,-36.9511 h -0.063 l 0.5647,10.9159 v 26.0352 h -4.7679 v -41.4054 h 7.7164 l 9.0967,25.1569 3.1367,10.3514 h 0.1255 l 3.1995,-10.2886 9.0339,-25.2197 z"
           id="path15145"
           style="font-size:62.7354px;line-height:1.25;font-family:'Work Sans';-inkscape-font-specification:'Work Sans, Normal';letter-spacing:0px;word-spacing:0px;fill:#ffffff;stroke-width:2.35257" />
        <path
           d="m -1955.1538,1045.6222 q 5.8971,0 10.1631,2.6349 4.3288,2.5721 6.65,7.34 2.3839,4.7679 2.3839,11.3551 0,6.5872 -2.3839,11.3551 -2.3212,4.7679 -6.65,7.4028 -4.266,2.5722 -10.1631,2.5722 -5.8971,0 -10.2259,-2.5722 -4.266,-2.6349 -6.6499,-7.4028 -2.3212,-4.7679 -2.3212,-11.3551 0,-6.5872 2.3212,-11.3551 2.3839,-4.7679 6.6499,-7.34 4.3288,-2.6349 10.2259,-2.6349 z m 0,4.7051 q -4.266,0 -7.4028,2.0076 -3.1367,1.9448 -4.8306,5.7089 -1.6938,3.7014 -1.6938,8.9084 0,5.2071 1.6938,8.9712 1.6939,3.7014 4.8306,5.7089 3.1368,1.9448 7.4028,1.9448 4.3288,0 7.4028,-1.9448 3.1368,-2.0075 4.8306,-5.7089 1.6939,-3.7641 1.6939,-8.9712 0,-5.207 -1.6939,-8.9084 -1.6938,-3.7641 -4.8306,-5.7089 -3.074,-2.0076 -7.4028,-2.0076 z"
           id="path15147"
           style="font-size:62.7354px;line-height:1.25;font-family:'Work Sans';-inkscape-font-specification:'Work Sans, Normal';letter-spacing:0px;word-spacing:0px;fill:#ffffff;stroke-width:2.35257" />
        <path
           d="m -1911.5527,1046.2495 q 9.724,0 15.2447,5.3953 5.5834,5.3325 5.5834,15.3074 0,9.975 -5.5834,15.3702 -5.5207,5.3325 -15.2447,5.3325 h -13.3627 v -41.4054 z m 0.5019,36.7003 q 7.0891,0 11.0414,-4.2033 4.015,-4.266 4.015,-11.7943 0,-7.5282 -4.015,-11.7315 -3.9523,-4.266 -11.0414,-4.266 h -8.8457 v 31.9951 z"
           id="path15149"
           style="font-size:62.7354px;line-height:1.25;font-family:'Work Sans';-inkscape-font-specification:'Work Sans, Normal';letter-spacing:0px;word-spacing:0px;fill:#ffffff;stroke-width:2.35257" />
        <path
           d="m -1879.6832,1087.6549 v -41.4054 h 29.0465 v 4.7052 h -24.0277 v 13.3626 h 18.6952 v 4.7052 h -18.6952 v 13.9273 h 24.9687 v 4.7051 z"
           id="path15151"
           style="font-size:62.7354px;line-height:1.25;font-family:'Work Sans';-inkscape-font-specification:'Work Sans, Normal';letter-spacing:0px;word-spacing:0px;fill:#ffffff;stroke-width:2.35257" />
        <path
           d="m -1823.9743,1046.2495 q 6.3363,0 10.1631,3.2623 3.8269,3.2622 3.8269,8.8457 0,5.5834 -3.8896,8.7202 -3.8268,3.074 -10.1631,3.074 l -0.4392,0.3137 h -10.1631 v 17.1895 h -5.0188 v -41.4054 z m -0.063,19.5108 q 4.4542,0 6.5872,-1.8194 2.1957,-1.882 2.1957,-5.5834 0,-3.7014 -2.1957,-5.5207 -2.133,-1.8821 -6.5872,-1.8821 h -10.6023 v 14.8056 z m 2.8858,1.0037 13.6763,20.8909 h -5.9598 l -11.9198,-18.1305 z"
           id="path15153"
           style="font-size:62.7354px;line-height:1.25;font-family:'Work Sans';-inkscape-font-specification:'Work Sans, Normal';letter-spacing:0px;word-spacing:0px;fill:#ffffff;stroke-width:2.35257" />
        <path
           d="m -1765.4422,1046.2495 v 41.4054 h -6.2108 l -17.315,-27.729 -4.3915,-7.7792 h -0.063 l 0.2509,6.2735 v 29.2347 h -4.7678 v -41.4054 h 6.2108 l 17.2522,27.6036 4.4542,7.9674 h 0.063 l -0.2509,-6.3363 v -29.2347 z"
           id="path15155"
           style="font-size:62.7354px;line-height:1.25;font-family:'Work Sans';-inkscape-font-specification:'Work Sans, Normal';letter-spacing:0px;word-spacing:0px;fill:#ffffff;stroke-width:2.35257" />
        <path
           d="m -1981.1163,1113.7762 v -16.8539 h 6.001 q 2.9877,0 4.3667,1.2513 1.3789,1.2512 1.3789,3.3963 0,1.2768 -0.7405,2.3238 -0.7406,1.0214 -2.094,1.3023 v 0.026 q 1.5067,0.2809 2.3749,1.379 0.8938,1.0725 0.8938,2.4514 0,2.1451 -1.6088,3.4474 -1.6088,1.2768 -4.5965,1.2768 z m 2.0429,-1.9152 h 4.4178 q 1.813,0 2.6813,-0.7406 0.8937,-0.7405 0.8937,-2.0684 0,-1.3534 -0.8937,-2.0685 -0.8683,-0.7405 -2.6813,-0.7405 h -4.4178 z m 0,-7.5332 h 3.9836 q 3.5751,0 3.5751,-2.7579 0,-2.7324 -3.5751,-2.7324 h -3.9836 z"
           id="path15157"
           style="font-size:25.5362px;line-height:1.25;font-family:'Work Sans';-inkscape-font-specification:'Work Sans, Normal';letter-spacing:0px;word-spacing:0px;fill:#ffffff;stroke-width:0.957606" />
        <path
           d="m -1951.2645,1113.7762 h -2.1706 l -1.7875,-4.6731 h -7.6353 l -1.7876,4.6731 h -2.145 l 6.5628,-16.8539 h 2.4259 z m -10.8529,-6.5884 h 6.1543 l -3.0899,-8.2992 z"
           id="path15159"
           style="font-size:25.5362px;line-height:1.25;font-family:'Work Sans';-inkscape-font-specification:'Work Sans, Normal';letter-spacing:0px;word-spacing:0px;fill:#ffffff;stroke-width:0.957606" />
        <path
           d="m -1934.8192,1109.4606 q -0.5363,1.43 -1.5322,2.477 -0.9959,1.0214 -2.3493,1.5577 -1.3279,0.5362 -2.9111,0.5362 -2.4004,0 -4.1624,-1.0469 -1.7365,-1.0726 -2.7069,-3.0133 -0.9448,-1.9408 -0.9448,-4.6221 0,-2.6813 0.9448,-4.622 0.9704,-1.9408 2.7069,-2.9878 1.762,-1.0725 4.1113,-1.0725 1.6343,0 2.9111,0.4597 1.2768,0.4341 2.1706,1.3279 0.9193,0.8682 1.4556,2.145 l -2.0174,0.9448 q -0.5618,-1.4555 -1.6343,-2.1961 -1.047,-0.7661 -2.7324,-0.7661 -1.7109,0 -3.0133,0.8172 -1.3023,0.7916 -2.0429,2.2982 -0.715,1.5067 -0.715,3.6517 0,2.1195 0.6895,3.6517 0.6895,1.5066 1.9663,2.3238 1.2768,0.7916 3.0133,0.7916 1.6854,0 2.9366,-0.8427 1.2513,-0.8682 1.8131,-2.5791 z"
           id="path15161"
           style="font-size:25.5362px;line-height:1.25;font-family:'Work Sans';-inkscape-font-specification:'Work Sans, Normal';letter-spacing:0px;word-spacing:0px;fill:#ffffff;stroke-width:0.957606" />
        <path
           d="m -1917.6844,1096.9223 -7.3545,7.5332 -0.3064,0.3319 -4.5199,4.6221 v -2.7579 l 9.4995,-9.7293 z m -11.1594,0 v 16.8539 h -2.0429 v -16.8539 z m 4.0092,6.2308 7.2268,10.6231 h -2.4515 l -6.4607,-9.474 z"
           id="path15163"
           style="font-size:25.5362px;line-height:1.25;font-family:'Work Sans';-inkscape-font-specification:'Work Sans, Normal';letter-spacing:0px;word-spacing:0px;fill:#ffffff;stroke-width:0.957606" />
        <path
           d="m -1908.1084,1114.0315 q -2.4004,0 -4.1624,-1.0469 -1.7365,-1.0726 -2.7069,-3.0133 -0.9448,-1.9408 -0.9448,-4.6221 0,-2.6813 0.9959,-4.622 1.0214,-1.9408 2.8345,-2.9878 1.8131,-1.0725 4.1624,-1.0725 2.5026,0 4.0603,0.9449 1.5832,0.9448 2.5536,2.9111 l -1.8642,1.0214 q -0.5618,-1.4555 -1.7875,-2.1961 -1.2002,-0.7661 -2.9622,-0.7661 -1.7109,0 -3.0388,0.8172 -1.3023,0.7916 -2.0684,2.3238 -0.7406,1.5066 -0.7406,3.6261 0,2.1195 0.6384,3.6517 0.664,1.5066 1.9408,2.3238 1.3023,0.7916 3.1665,0.7916 1.047,0 1.9407,-0.2553 0.9193,-0.2809 1.5833,-0.8172 0.6894,-0.5363 1.0725,-1.3534 0.383,-0.8172 0.383,-1.9152 v -0.5874 h -5.3626 v -1.9152 h 7.2268 v 8.5036 h -1.6088 l -0.1021,-3.141 0.4341,0.077 q -0.664,1.5833 -2.094,2.4515 -1.43,0.8682 -3.5495,0.8682 z"
           id="path15165"
           style="font-size:25.5362px;line-height:1.25;font-family:'Work Sans';-inkscape-font-specification:'Work Sans, Normal';letter-spacing:0px;word-spacing:0px;fill:#ffffff;stroke-width:0.957606" />
        <path
           d="m -1890.0288,1096.9223 q 2.5791,0 4.1368,1.3279 1.5577,1.3278 1.5577,3.6006 0,2.2727 -1.5832,3.5495 -1.5577,1.2513 -4.1369,1.2513 l -0.1787,0.1277 h -4.1369 v 6.9969 h -2.0429 v -16.8539 z m -0.026,7.9417 q 1.813,0 2.6813,-0.7405 0.8937,-0.7661 0.8937,-2.2727 0,-1.5067 -0.8937,-2.2472 -0.8683,-0.7661 -2.6813,-0.7661 h -4.3156 v 6.0265 z m 1.1746,0.4086 5.5669,8.5036 h -2.4259 l -4.8519,-7.38 z"
           id="path15167"
           style="font-size:25.5362px;line-height:1.25;font-family:'Work Sans';-inkscape-font-specification:'Work Sans, Normal';letter-spacing:0px;word-spacing:0px;fill:#ffffff;stroke-width:0.957606" />
        <path
           d="m -1872.7919,1096.6669 q 2.4004,0 4.1368,1.0725 1.762,1.047 2.7069,2.9878 0.9703,1.9407 0.9703,4.622 0,2.6813 -0.9703,4.6221 -0.9449,1.9407 -2.7069,3.0133 -1.7364,1.0469 -4.1368,1.0469 -2.4004,0 -4.1624,-1.0469 -1.7365,-1.0726 -2.7069,-3.0133 -0.9448,-1.9408 -0.9448,-4.6221 0,-2.6813 0.9448,-4.622 0.9704,-1.9408 2.7069,-2.9878 1.762,-1.0725 4.1624,-1.0725 z m 0,1.9152 q -1.7365,0 -3.0133,0.8172 -1.2768,0.7916 -1.9663,2.3238 -0.6895,1.5066 -0.6895,3.6261 0,2.1195 0.6895,3.6517 0.6895,1.5066 1.9663,2.3238 1.2768,0.7916 3.0133,0.7916 1.762,0 3.0132,-0.7916 1.2768,-0.8172 1.9663,-2.3238 0.6895,-1.5322 0.6895,-3.6517 0,-2.1195 -0.6895,-3.6261 -0.6895,-1.5322 -1.9663,-2.3238 -1.2512,-0.8172 -3.0132,-0.8172 z"
           id="path15169"
           style="font-size:25.5362px;line-height:1.25;font-family:'Work Sans';-inkscape-font-specification:'Work Sans, Normal';letter-spacing:0px;word-spacing:0px;fill:#ffffff;stroke-width:0.957606" />
        <path
           d="m -1847.5877,1096.9223 v 10.572 q 0,3.2431 -1.7109,4.9029 -1.711,1.6343 -4.903,1.6343 -3.1665,0 -4.9029,-1.6343 -1.711,-1.6598 -1.711,-4.9029 v -10.572 h 2.0429 v 10.0612 q 0,2.6303 1.0981,3.8815 1.1236,1.2513 3.4729,1.2513 2.3493,0 3.4474,-1.2513 1.1236,-1.2512 1.1236,-3.8815 v -10.0612 z"
           id="path15171"
           style="font-size:25.5362px;line-height:1.25;font-family:'Work Sans';-inkscape-font-specification:'Work Sans, Normal';letter-spacing:0px;word-spacing:0px;fill:#ffffff;stroke-width:0.957606" />
        <path
           d="m -1829.1762,1096.9223 v 16.8539 h -2.5281 l -7.0479,-11.287 -1.7876,-3.1665 h -0.025 l 0.1022,2.5536 v 11.8999 h -1.9408 v -16.8539 h 2.5281 l 7.0224,11.2359 1.8131,3.2431 h 0.025 l -0.1021,-2.5791 v -11.8999 z"
           id="path15173"
           style="font-size:25.5362px;line-height:1.25;font-family:'Work Sans';-inkscape-font-specification:'Work Sans, Normal';letter-spacing:0px;word-spacing:0px;fill:#ffffff;stroke-width:0.957606" />
        <path
           d="m -1818.2212,1096.9223 q 3.9582,0 6.2053,2.1961 2.2728,2.1706 2.2728,6.2308 0,4.0603 -2.2728,6.2564 -2.2471,2.1706 -6.2053,2.1706 h -5.4392 v -16.8539 z m 0.2043,14.9387 q 2.8856,0 4.4944,-1.711 1.6343,-1.7364 1.6343,-4.8008 0,-3.0643 -1.6343,-4.7752 -1.6088,-1.7365 -4.4944,-1.7365 h -3.6006 v 13.0235 z"
           id="path15175"
           style="font-size:25.5362px;line-height:1.25;font-family:'Work Sans';-inkscape-font-specification:'Work Sans, Normal';letter-spacing:0px;word-spacing:0px;fill:#ffffff;stroke-width:0.957606" />
      </g>
    </g>
  </g>
</svg>
