<?xml version="1.0" encoding="UTF-8" standalone="no"?>
<!-- Created with Inkscape (http://www.inkscape.org/) -->

<svg
   width="5000"
   height="3000"
   viewBox="0 0 1322.9167 793.74998"
   version="1.1"
   id="svg5"
   xmlns:xlink="http://www.w3.org/1999/xlink"
   xmlns="http://www.w3.org/2000/svg"
   xmlns:svg="http://www.w3.org/2000/svg">
  <defs
     id="defs2">
    <linearGradient
       id="linearGradient2759">
      <stop
         style="stop-color:#0575e6;stop-opacity:1"
         offset="0"
         id="stop2757" />
      <stop
         style="stop-color:#021b79;stop-opacity:0"
         offset="1"
         id="stop2755" />
    </linearGradient>
    <linearGradient
       id="linearGradient40805">
      <stop
         style="stop-color:#021b79;stop-opacity:0"
         offset="0"
         id="stop40801" />
      <stop
         style="stop-color:#0575e6;stop-opacity:1"
         offset="1"
         id="stop40803" />
    </linearGradient>
    <linearGradient
       id="linearGradient37325">
      <stop
         style="stop-color:#021b79;stop-opacity:0"
         offset="0"
         id="stop37321" />
      <stop
         style="stop-color:#0575e6;stop-opacity:1"
         offset="1"
         id="stop37323" />
    </linearGradient>
    <linearGradient
       xlink:href="#linearGradient2759"
       id="linearGradient5701"
       x1="-1383.65"
       y1="-745.38269"
       x2="3536.1541"
       y2="1548.3772"
       gradientUnits="userSpaceOnUse" />
    <linearGradient
       xlink:href="#linearGradient2759"
       id="linearGradient5709"
       x1="742.2204"
       y1="1357.2482"
       x2="2802.3979"
       y2="2572.0332"
       gradientUnits="userSpaceOnUse" />
    <linearGradient
       xlink:href="#linearGradient37325"
       id="linearGradient5717"
       x1="1832.3767"
       y1="3286.1235"
       x2="6204.5098"
       y2="1008.288"
       gradientUnits="userSpaceOnUse" />
    <linearGradient
       xlink:href="#linearGradient37325"
       id="linearGradient5725"
       x1="971.95599"
       y1="747.55371"
       x2="4173.144"
       y2="747.55371"
       gradientUnits="userSpaceOnUse" />
    <linearGradient
       xlink:href="#linearGradient40805"
       id="linearGradient5733"
       x1="-554.88599"
       y1="724.71997"
       x2="2790.6797"
       y2="1621.1616"
       gradientUnits="userSpaceOnUse" />
    <linearGradient
       xlink:href="#linearGradient37325"
       id="linearGradient8351"
       x1="1448.9896"
       y1="313.37891"
       x2="8972.8066"
       y2="2372.5598"
       gradientUnits="userSpaceOnUse" />
  </defs>
  <g
     id="layer1"
     style="display:inline"
     transform="translate(-6667.7789,2119.8318)">
    <g
       id="background10"
       transform="translate(6667.7789,-2119.8318)">
      <g
         id="g9562">
        <rect
           style="opacity:1;fill:#000000;fill-opacity:1;fill-rule:evenodd;stroke-width:1;stroke-linecap:round;paint-order:stroke fill markers"
           id="rect4823"
           width="1322.9166"
           height="793.75"
           x="0"
           y="0" />
        <path
           id="path5102"
           style="opacity:1;fill:url(#linearGradient5701);fill-opacity:1;fill-rule:evenodd;stroke-width:3.77953;stroke-linecap:round;paint-order:stroke fill markers"
           d="m 3977.4902,0 c -0.3226,15.144012 -0.6462,30.290062 -1.3886,45.419922 -0.9884,20.140193 -2.3468,40.262593 -4.0762,60.353518 -1.7294,20.09092 -3.8298,40.15004 -6.2969,60.16406 -2.467,20.01402 -5.3007,39.98309 -8.5019,59.89258 -3.2013,19.90949 -6.7691,39.75978 -10.7012,59.53711 -3.9321,19.77733 -8.2291,39.48012 -12.8887,59.09765 -4.6595,19.61754 -9.6828,39.14997 -15.0664,58.58008 -5.3835,19.43012 -11.1282,38.75955 -17.2324,57.97461 -6.1042,19.21506 -12.5673,38.31473 -19.3887,57.28711 -6.8214,18.97238 -14,37.81747 -21.5351,56.51953 -7.5352,18.70206 -15.4263,37.2619 -23.6719,55.66602 -8.2456,18.40412 -16.8444,36.64644 -25.7852,54.71875 -8.9408,18.0723 -18.2241,35.9738 -27.8418,53.69336 -9.6176,17.71956 -19.5695,35.25763 -29.8457,52.60351 -10.2761,17.34588 -20.8766,34.49991 -31.7929,51.45117 -10.9164,16.95127 -22.1474,33.70061 -33.6856,50.23633 -11.5381,16.53572 -23.3838,32.8578 -35.5254,48.95703 -12.1416,16.09924 -24.5799,31.97537 -37.3066,47.61719 -12.7267,15.64187 -25.7417,31.04947 -39.0352,46.21287 -13.2935,15.1635 -26.8651,30.0819 -40.707,44.7461 -13.8419,14.6642 -27.9542,29.0748 -42.3262,43.2188 -14.3719,14.1439 -29.0031,28.0221 -43.8867,41.625 -14.8836,13.6028 -30.0195,26.9299 -45.3965,39.9707 -15.377,13.0407 -30.9957,25.7942 -46.8476,38.2519 -15.852,12.4577 -31.9375,24.6189 -48.2461,36.4727 -16.3086,11.8537 -32.841,23.4 -49.5879,34.6289 -16.7469,11.2289 -33.7082,22.1396 -50.875,32.7226 -12.2689,7.5636 -24.6163,14.9541 -37.0391,22.1739 -12.4227,7.2198 -24.9215,14.2707 -37.4922,21.1582 -12.5706,6.8875 -25.2131,13.6111 -37.9257,20.1777 -12.7127,6.5666 -25.4952,12.9752 -38.3438,19.2324 -12.8486,6.2572 -25.7635,12.3631 -38.7422,18.3223 -12.9786,5.9592 -26.0203,11.7708 -39.123,17.4434 -13.1028,5.6725 -26.2655,11.2061 -39.4864,16.6035 -13.2209,5.3974 -26.5009,10.6593 -39.8339,15.7929 -13.3331,5.1337 -26.7189,10.1382 -40.1583,15.0196 -13.4393,4.8813 -26.9311,9.6388 -40.4707,14.2793 -27.0791,9.2808 -54.3523,18.0926 -81.7968,26.4785 -27.4446,8.3858 -55.06,16.3474 -82.8223,23.9297 -27.7623,7.5822 -55.6727,14.7842 -83.7051,21.6543 -28.0323,6.87 -56.1866,13.4069 -84.4414,19.6562 -28.2548,6.2493 -56.6094,12.2117 -85.039,17.9317 -28.4297,5.7199 -56.9354,11.1985 -85.4922,16.4804 -28.5569,5.282 -57.1644,10.3674 -85.8008,15.3028 -57.2728,9.8708 -114.6577,19.1388 -171.9629,28.1718 -57.3052,9.0331 -114.5318,17.8312 -171.4883,26.7578 -28.4782,4.4634 -57.0266,9.0147 -85.6152,13.6954 -28.5886,4.6806 -57.2165,9.4894 -85.8516,14.4707 -28.635,4.9813 -57.277,10.1348 -85.8945,15.5 -28.6175,5.3652 -57.2102,10.9429 -85.7461,16.7754 -28.5359,5.8324 -57.0159,11.9198 -85.4063,18.3027 -28.3903,6.3829 -56.6921,13.0614 -84.873,20.0781 -28.1809,7.0167 -56.2411,14.3717 -84.1484,22.1055 -27.9074,7.7337 -55.6606,15.8467 -83.2305,24.3808 -27.5699,8.5342 -54.9546,17.4885 -82.1231,26.9063 -13.5842,4.7089 -27.116,9.5331 -40.5878,14.4785 -13.4719,4.9454 -26.8849,10.0127 -40.2364,15.2051 -13.3515,5.1923 -26.6401,10.5093 -39.8633,15.959 -13.22308,5.4497 -26.37997,11.0306 -39.46675,16.748 -13.08678,5.7175 -26.10445,11.5727 -39.04687,17.5684 -12.94243,5.9956 -25.80954,12.1318 -38.59961,18.416 -12.79008,6.2842 -25.5031,12.7156 -38.13282,19.2988 -12.62972,6.5832 -25.17729,13.3184 -37.63867,20.211 -12.46137,6.8926 -24.83606,13.9438 -37.12109,21.1562 -12.28503,7.2124 -24.47939,14.5863 -36.58008,22.1289 -12.10069,7.5427 -24.10728,15.2534 -36.01563,23.1367 -11.90834,7.8833 -23.71972,15.9395 -35.42773,24.1739 -11.70801,8.2343 -23.31283,16.6464 -34.8125,25.2421 -11.49967,8.5958 -22.89244,17.3742 -34.17578,26.3418 -12.84343,10.2076 -25.50514,20.6419 -37.97852,31.295 -12.47338,10.653 -24.75959,21.5247 -36.85156,32.6074 -12.09197,11.0826 -23.99025,22.3766 -35.68945,33.873 -11.6992,11.4965 -23.19908,23.1955 -34.49414,35.0899 -11.29507,11.8944 -22.38606,23.9852 -33.26563,36.2617 -10.87957,12.2765 -21.54729,24.74 -32,37.3828 -10.45271,12.6429 -20.68863,25.4637 -30.70312,38.457 -10.0145,12.9934 -19.80814,26.1584 -29.37305,39.4864 -9.56491,13.3279 -18.90189,26.82 -28.00586,40.4668 -9.10397,13.6467 -17.97575,27.4487 -26.60742,41.3984 -8.63167,13.9497 -17.02387,28.0463 -25.17188,42.2832 -8.148,14.2369 -16.05014,28.6149 -23.70312,43.1231 -7.65298,14.5081 -15.05654,29.1464 -22.20313,43.9101 -7.14659,14.7637 -14.03717,29.651 -20.66601,44.6543 -6.62884,15.0033 -12.99598,30.1225 -19.0957,45.3496 -6.09973,15.2271 -11.93098,30.5629 -17.49024,45.9981 -5.55926,15.4351 -10.84518,30.9664 -15.85547,46.5859 -5.01029,15.6195 -9.7451,31.3269 -14.20508,47.1113 -4.45997,15.7845 -8.6444,31.6462 -12.55273,47.5762 -3.908327,15.93 -7.541154,31.9283 -10.896485,47.9844 -0.183304,0.8771 -0.322255,1.7631 -0.503906,2.6406 H 5000 V 0 Z"
           transform="scale(0.26458333)" />
        <path
           id="path5562"
           style="opacity:1;fill:url(#linearGradient5709);fill-opacity:1;fill-rule:evenodd;stroke-width:3.77953;stroke-linecap:round;paint-order:stroke fill markers"
           d="m 5000,287.92969 c -1.5322,0.53921 -3.0979,0.97917 -4.627,1.52734 -13.3969,4.80281 -26.6722,9.9496 -39.8066,15.43945 -13.1344,5.48986 -26.1286,11.32277 -38.9648,17.49805 -12.8363,6.17528 -25.5035,12.68743 -37.9903,19.52344 -12.4867,6.836 -24.7924,13.99682 -36.9062,21.4668 -12.1139,7.46998 -24.0345,15.24896 -35.752,23.32617 -11.7175,8.07721 -23.2315,16.45168 -34.5293,25.10937 -11.2977,8.65769 -22.3798,17.59913 -33.2343,26.81055 -10.8546,9.21142 -21.4813,18.69323 -31.8692,28.43164 -10.3879,9.73841 -20.5377,19.73401 -30.4355,29.97266 -9.8978,10.23864 -19.5435,20.7195 -28.9278,31.43164 -9.3843,10.71214 -18.5061,21.65557 -27.3535,32.81445 -8.8474,11.15888 -17.42,22.5344 -25.707,34.11328 -8.287,11.57888 -16.289,23.35991 -23.9922,35.33203 -7.7032,11.97213 -15.1091,24.13598 -22.2051,36.47461 -7.0959,12.33863 -13.8823,24.85287 -20.3476,37.53125 -6.4653,12.67838 -12.6088,25.52033 -18.42,38.51172 -5.8112,12.99139 -11.2901,26.13251 -16.4238,39.41016 -5.1337,13.27764 -9.9227,26.69135 -14.3555,40.22851 -4.2728,13.04907 -8.2203,26.16317 -11.8652,39.33594 -3.6449,13.17277 -6.9862,26.4038 -10.0508,39.68945 -3.0645,13.28566 -5.851,26.62594 -8.3828,40.01368 -2.5318,13.38773 -4.8087,26.82374 -6.8555,40.30273 -2.0467,13.47899 -3.8634,27.00109 -5.4726,40.56059 -1.6093,13.5594 -3.0111,27.156 -4.2305,40.7851 -1.2194,13.6291 -2.2556,27.2906 -3.1328,40.9785 -0.8772,13.6879 -1.5971,27.4028 -2.1797,41.1387 -0.5826,13.7359 -1.0295,27.4925 -1.3652,41.2656 -0.3357,13.7731 -0.559,27.5619 -0.6953,41.3614 -0.2727,27.5989 -0.1939,55.2392 0.045,82.8789 0.4776,55.2792 1.5966,110.5537 1.834,165.4765 0.1187,27.4614 0,54.9551 -0.543,82.4375 -0.2724,13.7412 -0.6516,27.4786 -1.1621,41.209 -0.5105,13.7304 -1.1525,27.4533 -1.9492,41.1621 -0.7967,13.7088 -1.7479,27.4036 -2.8789,41.0801 -1.1311,13.6765 -2.4415,27.3352 -3.9551,40.9687 -1.5136,13.6336 -3.2316,27.2425 -5.1758,40.8223 -1.9442,13.5798 -4.1141,27.1311 -6.5371,40.6465 -2.423,13.5154 -5.1056,27.0024 -8.0644,40.4355 -2.9589,13.4332 -6.194,26.8114 -9.7207,40.1114 -3.5268,13.2999 -7.346,26.5208 -11.4727,39.6367 -4.1268,13.1158 -8.5616,26.127 -13.3203,39.0078 -4.7587,12.8808 -9.8409,25.6318 -15.2637,38.2266 -5.4227,12.5947 -11.1859,25.0332 -17.3047,37.291 -6.1188,12.2578 -12.5945,24.3351 -19.4414,36.2051 -6.8468,11.8699 -14.0649,23.5317 -21.6719,34.9628 -7.683,11.5455 -15.7446,22.8244 -24.1601,33.8262 -8.4155,11.0019 -17.1852,21.7281 -26.2813,32.1719 -9.096,10.4438 -18.5193,20.6032 -28.2441,30.4746 -9.7248,9.8714 -19.7511,19.4538 -30.0527,28.7383 -10.3017,9.2845 -20.8785,18.2718 -31.7051,26.9551 -10.8266,8.6832 -21.9034,17.0632 -33.2031,25.1308 -11.2998,8.0677 -22.8219,15.8241 -34.543,23.2617 -11.7211,7.4377 -23.64,14.5564 -35.7305,21.3496 -12.0905,6.7933 -24.3507,13.2669 -36.7617,19.4278 -12.411,6.1609 -24.9725,12.0078 -37.6699,17.5508 -12.6974,5.5429 -25.5306,10.7811 -38.4805,15.7207 -12.9499,4.9395 -26.0172,9.5811 -39.1855,13.9316 -13.1684,4.3505 -26.4382,8.4096 -39.7911,12.1856 -13.3528,3.7759 -26.7896,7.2686 -40.2929,10.4843 -13.5033,3.2158 -27.0716,6.1542 -40.6914,8.8242 -13.6198,2.6701 -27.2899,5.0722 -40.9922,7.211 -13.7023,2.1388 -27.4239,4.0176 -41.1621,5.6504 -13.7383,1.6328 -27.4936,3.0181 -41.2617,4.1699 -13.7682,1.1518 -27.5499,2.0699 -41.3418,2.7656 -13.7919,0.6957 -27.5947,1.169 -41.4043,1.4336 -13.8096,0.2646 -27.6261,0.3213 -41.4473,0.1797 -13.8212,-0.1416 -27.6459,-0.4811 -41.4727,-1.0039 -13.8267,-0.5228 -27.6561,-1.2302 -41.4824,-2.1094 -13.8262,-0.8791 -27.6491,-1.9301 -41.4687,-3.1406 -13.8197,-1.2105 -27.6345,-2.5808 -41.4414,-4.0977 -13.807,-1.5168 -27.6064,-3.1801 -41.3946,-4.9785 -13.7881,-1.7983 -27.5667,-3.7303 -41.33,-5.7851 -13.7634,-2.0549 -27.5118,-4.2331 -41.2442,-6.5196 -27.4648,-4.5728 -54.8613,-9.5822 -82.166,-14.9316 -27.3047,-5.3494 -54.5174,-11.0384 -81.6133,-16.9648 -27.0959,-5.9265 -54.1481,-12.0917 -81.1738,-18.4004 -27.0257,-6.3088 -54.0251,-12.7604 -81.0156,-19.2559 -53.981,-12.991 -107.9267,-26.1598 -161.9766,-38.7246 -27.025,-6.2824 -54.0772,-12.4143 -81.1719,-18.2969 -27.0946,-5.8825 -54.2323,-11.5156 -81.4316,-16.8027 -27.1993,-5.2871 -54.4599,-10.2285 -81.7988,-14.7246 -13.6695,-2.2481 -27.3575,-4.3848 -41.0684,-6.3985 -13.7109,-2.0136 -27.4444,-3.9033 -41.2012,-5.6582 -13.7567,-1.7548 -27.5542,-3.3668 -41.3847,-4.8242 -13.8306,-1.4574 -27.6948,-2.7605 -41.5801,-3.8984 -13.8854,-1.1379 -27.7936,-2.1119 -41.7149,-2.9082 -13.9212,-0.7963 -27.8548,-1.4151 -41.7929,-1.8477 -13.9381,-0.4325 -27.8804,-0.6779 -41.8164,-0.7246 -13.9361,-0.047 -27.8663,0.1055 -41.7813,0.4668 -13.915,0.3613 -27.8144,0.9313 -41.6894,1.7227 -13.875,0.7913 -27.725,1.8032 -41.5411,3.0468 -13.816,1.2436 -27.5978,2.7196 -41.3359,4.4375 -13.7381,1.718 -27.433,3.6783 -41.0742,5.8926 -13.6413,2.2144 -27.2285,4.6831 -40.7539,7.416 -13.5254,2.733 -26.9883,5.7303 -40.3789,9.0039 -13.3906,3.2736 -26.7104,6.8219 -39.9473,10.6582 -13.2368,3.8364 -26.3909,7.9616 -39.4551,12.3829 -13.0641,4.4213 -26.0377,9.1396 -38.9101,14.1679 -12.8725,5.0283 -25.6449,10.366 -38.3067,16.0235 -11.9611,5.3444 -23.7893,10.9717 -35.4785,16.875 -11.6891,5.9032 -23.2387,12.0826 -34.6367,18.5254 -11.398,6.4427 -22.6448,13.1501 -33.7324,20.1132 -11.0876,6.9632 -22.0154,14.1823 -32.7735,21.6465 -10.7581,7.4643 -21.3464,15.173 -31.7558,23.1192 -10.4094,7.9461 -20.6401,16.1283 -30.6817,24.5371 -10.0415,8.4087 -19.8943,17.0443 -29.5488,25.8965 -9.6545,8.8521 -19.1111,17.9209 -28.3594,27.1972 -9.2482,9.2763 -18.2884,18.7602 -27.1113,28.4414 -8.8228,9.6813 -17.4284,19.56 -25.8066,29.627 -8.3783,10.067 -16.5289,20.3224 -24.4434,30.7558 -7.9145,10.4335 -15.5918,21.0455 -23.0234,31.8262 -7.4316,10.7807 -14.6174,21.7292 -21.5469,32.8379 -6.9295,11.1087 -13.6035,22.3775 -20.0117,33.7949 -6.4082,11.4175 -12.5502,22.9844 -18.418,34.6914 -5.8677,11.707 -11.4614,23.554 -16.7695,35.5313 -5.3081,11.9773 -10.3286,24.0787 -15.0606,36.289 -4.7319,12.2104 -9.1756,24.5291 -13.33,36.9454 -4.1545,12.4162 -8.0202,24.9283 -11.5957,37.5234 -3.5756,12.5951 -6.8602,25.2728 -9.8555,38.0195 -2.9954,12.7468 -5.7015,25.5643 -8.1152,38.4356 -2.4138,12.8713 -4.5365,25.7969 -6.3672,38.7656 -0.6131,4.3428 -0.9974,8.7147 -1.545,13.0664 H 5000 Z"
           transform="scale(0.26458333)" />
        <path
           id="path4969"
           style="opacity:1;fill:url(#linearGradient5717);fill-opacity:1;fill-rule:evenodd;stroke-width:3.77953;stroke-linecap:round;paint-order:stroke fill markers"
           d="m 5000,1641.3828 c -8.26,-2.247 -16.4972,-4.5785 -24.7969,-6.6738 -14.1982,-3.5845 -28.4524,-6.9474 -42.7558,-10.084 -14.3034,-3.1366 -28.6559,-6.0466 -43.0508,-8.7305 -14.3949,-2.6838 -28.8319,-5.1408 -43.3047,-7.3672 -14.4728,-2.2263 -28.9806,-4.2224 -43.5176,-5.9863 -14.5369,-1.7639 -29.1019,-3.2951 -43.6894,-4.5918 -14.5875,-1.2966 -29.1963,-2.3597 -43.8164,-3.1875 -14.6202,-0.8278 -29.2521,-1.4218 -43.8907,-1.7832 -14.6385,-0.3613 -29.2831,-0.4895 -43.9257,-0.3867 -14.6427,0.1028 -29.2837,0.4374 -43.9161,1.002 -14.6323,0.5645 -29.2554,1.3589 -43.8632,2.3828 -14.6079,1.0239 -29.2005,2.2768 -43.7696,3.7578 -14.569,1.4809 -29.1149,3.1894 -43.6308,5.125 -14.516,1.9356 -29.0027,4.0984 -43.4512,6.4863 -14.4485,2.3879 -28.8597,5.002 -43.2266,7.8398 -14.3668,2.8379 -28.6881,5.9002 -42.959,9.1856 -14.2708,3.2854 -28.4898,6.7928 -42.6503,10.5234 -14.1606,3.7307 -28.2629,7.684 -42.2989,11.8575 -14.0359,4.1734 -28.0053,8.5676 -41.9023,13.1816 -13.8971,4.614 -27.721,9.4479 -41.4649,14.5 -13.7438,5.0521 -27.408,10.3227 -40.9843,15.8105 -13.5764,5.4879 -27.0664,11.1921 -40.461,17.1133 -13.9642,6.1731 -27.8094,12.5681 -41.5429,19.1738 -13.7336,6.6058 -27.3542,13.4222 -40.8653,20.4376 -13.511,7.0153 -26.9142,14.231 -40.2109,21.6328 -13.2967,7.4017 -26.4876,14.9908 -39.5781,22.7558 -13.0906,7.765 -26.0802,15.7054 -38.9727,23.8106 -12.8925,8.1051 -25.6879,16.3748 -38.3906,24.7968 -12.7027,8.4221 -25.313,16.9971 -37.834,25.7129 -12.521,8.7159 -24.9533,17.5721 -37.3008,26.5586 -12.3475,8.9866 -24.6088,18.1039 -36.791,27.3379 -12.1822,9.234 -24.2836,18.5846 -36.3086,28.043 -12.025,9.4583 -23.9736,19.0241 -35.8496,28.6836 -11.876,9.6595 -23.6808,19.4124 -35.416,29.25 -23.4704,19.6751 -46.667,39.6833 -69.6231,59.9316 -22.9561,20.2483 -45.6706,40.7368 -68.1777,61.3731 -22.5071,20.6362 -44.8587,41.4539 -67.1152,62.3789 -22.2565,20.925 -44.4183,41.9586 -66.5489,63.0273 -44.2612,42.1375 -88.3963,84.4174 -132.9023,126.2598 -22.253,20.9212 -44.5983,41.7333 -67.0996,62.3633 -22.5013,20.6299 -45.1589,41.0778 -68.0332,61.2714 -22.8744,20.1937 -45.9658,40.1318 -69.3379,59.7442 -11.6861,9.8062 -23.4415,19.5304 -35.2754,29.1641 -11.8339,9.6336 -23.7468,19.178 -35.7441,28.621 -15.499,12.1992 -31.1354,24.2173 -46.9082,36.0528 -15.7729,11.8354 -31.6813,23.4881 -47.7188,34.957 -16.0375,11.4689 -32.205,22.7523 -48.498,33.8516 -16.2931,11.0993 -32.7107,22.0134 -49.25,32.7402 -16.5394,10.7268 -33.2002,21.2678 -49.9766,31.6191 -16.7764,10.3514 -33.6695,20.5134 -50.6738,30.4864 -17.0044,9.973 -34.1207,19.756 -51.3438,29.3476 -17.2231,9.5917 -34.5537,18.9919 -51.9863,28.1993 -17.4326,9.2073 -34.9667,18.2228 -52.5996,27.0429 -17.633,8.8201 -35.3634,17.4451 -53.1875,25.875 -17.8241,8.4299 -35.742,16.6645 -53.7481,24.7012 -18.006,8.0367 -36.1004,15.875 -54.2793,23.5156 -14.5969,6.1351 -29.2873,12.0478 -43.9902,17.9258 H 5000 Z"
           transform="scale(0.26458333)" />
        <path
           id="rect5333"
           style="opacity:1;fill:url(#linearGradient5725);fill-opacity:1;fill-rule:evenodd;stroke-width:3.77953;stroke-linecap:round;paint-order:stroke fill markers"
           d="M 3058.0781,0 H 0 v 1495.1074 c 0.8530786,-0.9172 1.6801925,-1.858 2.5351562,-2.7734 8.9378088,-9.5699 17.9797698,-19.0435 27.1210938,-28.4199 9.141324,-9.3764 18.382389,-18.6552 27.722656,-27.834 9.340267,-9.1788 18.779816,-18.2592 28.314453,-27.2363 9.534638,-8.9772 19.164241,-17.8518 28.888671,-26.6231 9.72444,-8.7713 19.54346,-17.4386 29.45313,-26 9.90966,-8.5613 19.90968,-17.016 30,-25.3633 10.09031,-8.3473 20.27071,-16.5877 30.53711,-24.7168 10.26639,-8.129 20.61873,-16.1479 31.05664,-24.0547 10.4379,-7.9067 20.96156,-15.7005 31.5664,-23.3808 10.60484,-7.6803 21.29139,-15.2476 32.0586,-22.6973 10.7672,-7.4497 21.61406,-14.783 32.53906,-21.998 10.92499,-7.2151 21.92765,-14.3109 33.00586,-21.2871 11.07821,-6.9763 22.23212,-13.8312 33.45898,-20.5645 11.22686,-6.7333 22.52751,-13.3458 33.89844,-19.832 11.37093,-6.4862 22.81183,-12.847 34.32227,-19.0821 11.51043,-6.235 23.09096,-12.3425 34.73632,-18.3222 11.64537,-5.9797 23.3571,-11.8306 35.13282,-17.5508 11.77571,-5.7203 23.61412,-11.3109 35.51562,-16.7676 11.9015,-5.4567 23.86596,-10.7797 35.88867,-15.9687 12.02272,-5.189 24.10479,-10.243 36.24414,-15.1602 15.1115,-6.1211 30.28531,-12.0318 45.51953,-17.7422 15.23423,-5.7103 30.52761,-11.2215 45.87696,-16.5469 15.34935,-5.3253 30.75406,-10.4637 46.21094,-15.42964 15.45687,-4.96598 30.96663,-9.75832 46.52343,-14.39063 15.55681,-4.6323 31.16142,-9.10537 46.81055,-13.42968 15.64913,-4.32431 31.34231,-8.50098 47.07617,-12.54297 15.73386,-4.04199 31.50932,-7.94902 47.32031,-11.73438 15.811,-3.78535 31.65852,-7.44951 47.53902,-11.0039 31.7611,-7.10879 63.6529,-13.78011 95.6465,-20.11914 31.9936,-6.33904 64.0886,-12.34444 96.2539,-18.11914 32.1654,-5.77471 64.4015,-11.31857 96.6778,-16.73438 32.2763,-5.41581 64.5915,-10.70444 96.9179,-15.9668 32.3265,-5.26235 64.6627,-10.49816 96.9786,-15.8125 32.3158,-5.31433 64.611,-10.70755 96.8554,-16.27929 32.2444,-5.57174 64.4386,-11.32284 96.5508,-17.35743 32.1122,-6.03458 64.1433,-12.35182 96.0625,-19.05468 15.9596,-3.35143 31.8911,-6.79845 47.791,-10.35547 15.9,-3.55702 31.7689,-7.22343 47.6016,-11.01172 15.8327,-3.78829 31.6288,-7.69891 47.3867,-11.74414 15.7579,-4.04523 31.4769,-8.22488 47.1523,-12.55273 15.6755,-4.32786 31.3073,-8.80525 46.8926,-13.44141 15.5854,-4.63617 31.1236,-9.4322 46.6114,-14.40235 15.4877,-4.97014 30.9261,-10.11354 46.3085,-15.44335 15.3825,-5.32982 30.7089,-10.8454 45.9786,-16.56055 15.8988,-5.95064 31.71,-12.12286 47.4297,-18.51172 15.7196,-6.38886 31.3487,-12.99566 46.8808,-19.81445 15.5321,-6.81879 30.9685,-13.8494 46.3047,-21.08985 15.3362,-7.24044 30.5711,-14.68992 45.7031,-22.34375 15.132,-7.65382 30.1606,-15.51139 45.0801,-23.57031 14.9195,-8.05892 29.731,-16.31965 44.4297,-24.77539 14.6987,-8.45574 29.2844,-17.1069 43.7539,-25.95117 14.4695,-8.84428 28.8226,-17.88094 43.0547,-27.10547 14.232,-9.22453 28.3438,-18.63786 42.3301,-28.23438 13.9862,-9.59651 27.846,-19.37572 41.5781,-29.33593 13.7321,-9.96021 27.335,-20.10039 40.8047,-30.41602 13.4696,-10.31563 26.807,-20.80793 40.0058,-31.4707 13.1989,-10.66277 26.2599,-21.49642 39.1797,-32.49805 12.9198,-11.00163 25.6977,-22.17169 38.3301,-33.50391 12.6324,-11.33221 25.1185,-22.82595 37.4551,-34.48046 12.3366,-11.65452 24.5241,-23.46897 36.5566,-35.4375 12.0326,-11.96854 23.9107,-24.09096 35.6309,-36.36524 11.7201,-12.27427 23.2822,-24.69975 34.6816,-37.27148 11.3994,-12.57174 22.6367,-25.29143 33.707,-38.15235 11.0704,-12.86092 21.9741,-25.86403 32.7071,-39.00586 10.733,-13.141819 21.2943,-26.421486 31.6816,-39.835933 10.3873,-13.414447 20.6015,-26.963788 30.6348,-40.642578 C 3047.7605,14.658918 3052.8772,7.2998395 3058.0781,0 Z"
           transform="scale(0.26458333)" />
        <path
           id="rect4967"
           style="opacity:1;fill:url(#linearGradient5733);fill-opacity:1;fill-rule:evenodd;stroke-width:3.77953;stroke-linecap:round;paint-order:stroke fill markers"
           d="M 1973.1172,0 H 0 v 1648.4004 c 5.556475,2.6736 11.100169,5.3742 16.705078,7.9453 8.466125,3.8836 16.98578,7.6498 25.556641,11.2969 8.57086,3.647 17.192674,7.1744 25.861328,10.582 8.668654,3.4076 17.385027,6.6942 26.144531,9.8594 8.759502,3.1652 17.562842,6.2091 26.406252,9.1289 8.84341,2.9198 17.72611,5.7152 26.64648,8.3867 8.92038,2.6715 17.87679,5.2184 26.86719,7.6387 8.9904,2.4202 18.01488,4.7148 27.06836,6.8808 9.05348,2.1661 18.13648,4.2045 27.24609,6.1133 9.10962,1.9089 18.24549,3.6873 27.4043,5.336 9.15881,1.6487 18.33996,3.1671 27.54102,4.5527 9.20105,1.3856 18.42184,2.6382 27.6582,3.7578 9.23636,1.1196 18.48918,2.1065 27.75391,2.957 9.26472,0.8506 18.54197,1.566 27.82812,2.1446 9.28615,0.5786 18.58023,1.0205 27.88086,1.3242 9.30063,0.3037 18.60785,0.4683 27.91602,0.4941 9.30816,0.026 18.61897,-0.087 27.92773,-0.3418 9.30875,-0.2549 18.61556,-0.6507 27.91797,-1.1894 9.3024,-0.5388 18.59319,-1.2216 27.86914,-2.043 9.27595,-0.8213 18.53635,-1.7826 27.7793,-2.8828 9.24294,-1.1002 18.46849,-2.3375 27.67187,-3.7129 9.20338,-1.3754 18.3857,-2.8884 27.54297,-4.5351 9.15726,-1.6468 18.28994,-3.4274 27.39453,-5.3418 9.10459,-1.9145 18.1812,-3.9623 27.22656,-6.1407 9.04537,-2.1783 18.05949,-4.4872 27.03907,-6.9258 8.97958,-2.4385 17.92479,-5.0061 26.83203,-7.7011 8.90724,-2.695 17.77517,-5.5191 26.60351,-8.4668 8.82835,-2.9477 17.61648,-6.0201 26.35938,-9.2168 8.74289,-3.1967 17.44091,-6.5171 26.09179,-9.959 8.65089,-3.4419 17.25432,-7.006 25.80665,-10.6895 8.55232,-3.6834 17.05278,-7.485 25.5,-11.4062 8.44721,-3.9212 16.84024,-7.9619 25.17578,-12.1172 8.33554,-4.1553 16.61472,-8.4269 24.83203,-12.8125 8.21731,-4.3856 16.37427,-8.884 24.46679,-13.4961 8.09253,-4.6121 16.12085,-9.3369 24.08204,-14.1719 7.96119,-4.8349 15.85443,-9.7799 23.67773,-14.8339 7.8233,-5.0541 15.57701,-10.217 23.25586,-15.4864 7.67885,-5.2694 15.2827,-10.6459 22.81055,-16.1269 7.52784,-5.4811 14.97934,-11.067 22.34964,-16.7559 7.3702,-5.6889 14.659,-11.48 21.8652,-17.373 7.2062,-5.8931 14.3297,-11.889 21.3652,-17.9825 7.0355,-6.0934 13.9836,-12.286 20.8418,-18.5761 6.8583,-6.2902 13.6263,-12.6771 20.3008,-19.1602 6.6745,-6.4831 13.2561,-13.0621 19.7402,-19.7344 6.4842,-6.6723 12.871,-13.4371 19.1583,-20.2949 6.2872,-6.8577 12.4747,-13.8081 18.5585,-20.8476 6.0839,-7.0395 12.0637,-14.1693 17.9375,-21.3868 5.8739,-7.2175 11.6416,-14.5223 17.2989,-21.914 5.6572,-7.3918 11.2045,-14.8694 16.6386,-22.4317 5.4342,-7.5622 10.7546,-15.2103 15.959,-22.9394 7.0906,-10.5301 13.9624,-21.1775 20.6309,-31.9356 6.6685,-10.758 13.133,-21.6269 19.4082,-32.5957 6.2751,-10.9688 12.3609,-22.0387 18.2715,-33.2011 5.9105,-11.1624 11.646,-22.4171 17.2207,-33.7559 5.5747,-11.3388 10.9902,-22.7617 16.2578,-34.2598 5.2676,-11.498 10.3876,-23.0707 15.3769,-34.7109 4.9893,-11.6401 9.8463,-23.3463 14.586,-35.1113 4.7397,-11.7651 9.3619,-23.5881 13.8808,-35.461 4.5189,-11.8728 8.9349,-23.7963 13.2618,-35.7597 4.3268,-11.96342 8.565,-23.96713 12.7285,-36.00393 8.327,-24.07362 16.3569,-48.27677 24.2031,-72.54102 7.8462,-24.26425 15.51,-48.59066 23.1055,-72.9082 7.5955,-24.31755 15.1225,-48.62589 22.6972,-72.85938 7.5748,-24.23349 15.2612,-48.51926 23.166,-72.77148 7.9049,-24.25222 16.027,-48.47153 24.4727,-72.57227 4.2229,-12.05037 8.5282,-24.07215 12.9258,-36.05273 4.3976,-11.98059 8.8876,-23.92102 13.4863,-35.81055 4.5987,-11.88952 9.3047,-23.72672 14.1309,-35.50391 4.8262,-11.77718 9.7735,-23.49314 14.8535,-35.13671 5.08,-11.64358 10.2941,-23.21444 15.6543,-34.70313 5.3601,-11.48868 10.8665,-22.89646 16.5332,-34.20898 5.6666,-11.31252 11.4927,-22.53141 17.4922,-33.64649 5.9995,-11.11508 12.1725,-22.12512 18.5312,-33.02148 6.3587,-10.89636 12.9022,-21.67762 19.6465,-32.33399 6.7443,-10.65636 13.6895,-21.18889 20.8457,-31.58398 7.1562,-10.3951 14.5247,-20.65308 22.1192,-30.76563 7.5944,-10.11254 15.4135,-20.07799 23.4726,-29.88672 7.6642,-9.32809 15.5349,-18.48398 23.6016,-27.46093 8.0666,-8.97696 16.329,-17.7761 24.7793,-26.39063 8.4502,-8.61452 17.0873,-17.04435 25.9023,-25.28515 8.815,-8.24081 17.8079,-16.29265 26.9688,-24.14844 9.1608,-7.855788 18.4906,-15.515133 27.9785,-22.974611 9.4879,-7.459477 19.1355,-14.719609 28.9316,-21.771484 9.7961,-7.051875 19.7408,-13.896317 29.8262,-20.529297 10.0854,-6.632979 20.3101,-13.053068 30.666,-19.255859 10.3559,-6.202791 20.8437,-12.1879092 31.4512,-17.949219 1.8763,-1.0190807 3.8076,-1.9324402 5.6914,-2.9375 z"
           transform="scale(0.26458333)" />
        <path
           id="path8253"
           style="opacity:1;fill:url(#linearGradient8351);fill-opacity:1;fill-rule:evenodd;stroke-width:3.77953;stroke-linecap:round;paint-order:stroke fill markers"
           d="m 0,0 v 3000 h 928.3457 c -3.62361,-14.1418 -7.04809,-28.3354 -10.2539,-42.5801 -3.25405,-14.4589 -6.29345,-28.9676 -9.11719,-43.5195 -2.82374,-14.5519 -5.43062,-29.1456 -7.82422,-43.7774 -2.39359,-14.6317 -4.5735,-29.3015 -6.53711,-44 -1.96361,-14.6984 -3.7123,-29.4256 -5.24609,-44.1777 -1.5338,-14.7521 -2.8529,-29.5277 -3.95703,-44.3203 -1.10414,-14.7926 -1.99333,-29.6038 -2.66797,-44.4238 -0.67464,-14.8201 -1.1336,-29.65 -1.37891,-44.4844 -0.24531,-14.8344 -0.27566,-29.6722 -0.0918,-44.5078 0.18387,-14.8356 0.58245,-29.6685 1.19532,-44.4922 0.61287,-14.8237 1.43875,-29.6387 2.48047,-44.4375 1.04171,-14.7988 2.29913,-29.5811 3.76953,-44.3418 1.4704,-14.7607 3.15381,-29.4994 5.05273,-44.209 1.89892,-14.7095 4.01256,-29.3899 6.33985,-44.0351 2.32728,-14.6453 4.86952,-29.2564 7.625,-43.8243 2.75547,-14.5679 5.72469,-29.0928 8.9082,-43.5703 3.18351,-14.4774 6.58002,-28.9073 10.1914,-43.2812 3.61139,-14.3739 7.43748,-28.692 11.47657,-42.9492 4.03909,-14.2572 8.29117,-28.4527 12.75781,-42.5801 4.46664,-14.1275 9.14699,-28.1873 14.04102,-42.1719 4.89402,-13.9846 10.00297,-27.894 15.32421,-41.7226 5.32125,-13.8287 10.85521,-27.5749 16.60352,-41.2344 5.74829,-13.6596 11.70959,-27.2316 17.88479,-40.709 6.1752,-13.4774 12.5641,-26.8605 19.166,-40.1426 6.6019,-13.2821 13.4168,-26.4633 20.4453,-39.5371 7.0285,-13.0738 14.2655,-26.0304 21.7031,-38.8633 7.4376,-12.8328 15.0763,-25.5423 22.9121,-38.1269 7.8359,-12.5846 15.8686,-25.0441 24.0918,-37.3731 8.2233,-12.329 16.6365,-24.5277 25.2364,-36.5937 8.5998,-12.0661 17.386,-23.9993 26.3515,-35.7949 8.9656,-11.7957 18.1112,-23.4547 27.4317,-34.9727 9.3204,-11.518 18.8159,-22.894 28.4804,-34.127 9.6646,-11.2329 19.4984,-22.3231 29.4961,-33.2636 9.9978,-10.9406 20.1604,-21.7323 30.4805,-32.3731 10.3201,-10.6407 20.798,-21.1293 31.4297,-31.4629 10.6317,-10.3336 21.4172,-20.5121 32.3496,-30.5312 10.9324,-10.0191 22.0121,-19.8789 33.2344,-29.5762 11.2222,-9.6972 22.5865,-19.2316 34.0879,-28.5996 11.5013,-9.368 23.1386,-18.5701 34.9082,-27.6016 11.7695,-9.0314 23.6703,-17.8925 35.6972,-26.58 12.0269,-8.6876 24.1797,-17.2009 36.4532,-25.5371 12.2734,-8.3363 24.6686,-16.4952 37.1777,-24.4727 12.5091,-7.9776 25.1332,-15.7732 37.8672,-23.3848 12.7339,-7.6115 25.5774,-15.0392 38.5254,-22.2773 12.9479,-7.2382 25.9992,-14.2872 39.1504,-21.1445 13.1511,-6.8574 26.4026,-13.5229 39.7461,-19.9922 13.3434,-6.4693 26.7797,-12.7426 40.3046,-18.8164 13.525,-6.0739 27.1384,-11.9482 40.834,-17.6192 13.6957,-5.671 27.4727,-11.1396 41.3281,-16.4004 13.8555,-5.2608 27.7885,-10.3149 41.793,-15.1582 14.0045,-4.8432 28.082,-9.4742 42.2246,-13.8926 14.1426,-4.4183 28.3512,-8.6233 42.6211,-12.6093 14.27,-3.9861 28.5999,-7.7544 42.9863,-11.3008 14.3865,-3.5464 28.8283,-6.8713 43.3204,-9.9707 14.492,-3.0995 29.0342,-5.9741 43.6211,-8.6192 14.5868,-2.645 29.2197,-5.0607 43.8906,-7.2441 14.6708,-2.1834 29.381,-4.1333 44.125,-5.8476 15.6423,-1.8188 31.2966,-3.3861 46.9609,-4.7149 15.6644,-1.3288 31.3379,-2.4187 47.0195,-3.2812 15.6817,-0.8626 31.3703,-1.4979 47.0645,-1.918 15.6942,-0.4201 31.3938,-0.6256 47.0957,-0.627 15.7019,0 31.4064,0.2001 47.1113,0.5938 15.705,0.3936 31.4101,0.9792 47.1133,1.7441 15.7033,0.7649 31.4048,1.7099 47.1016,2.8223 15.6967,1.1124 31.3886,2.3919 47.0742,3.8281 15.6856,1.4362 31.3655,3.0294 47.0352,4.7656 15.6696,1.7363 31.3296,3.6164 46.9785,5.6289 15.6489,2.0126 31.2867,4.1567 46.9101,6.4219 15.6235,2.2652 31.233,4.6525 46.8262,7.1465 31.1865,4.988 62.3066,10.409 93.3437,16.1699 31.0372,5.761 61.99,11.8611 92.8399,18.2051 30.8499,6.344 61.6558,12.9334 92.4316,19.6758 30.7758,6.7424 61.5227,13.6384 92.2578,20.5937 61.4704,13.9108 122.8933,28.0617 184.4024,41.711 30.7545,6.8246 61.5293,13.5229 92.3437,20.0039 30.8145,6.481 61.6683,12.7435 92.5762,18.6953 30.908,5.9518 61.8713,11.593 92.9063,16.8301 31.0349,5.237 62.1405,10.0695 93.3359,14.4062 23.0326,3.202 46.1014,6.1189 69.1992,8.752 23.0978,2.633 46.2244,4.9835 69.375,7.0508 23.1507,2.0672 46.3247,3.851 69.5156,5.3554 23.191,1.5044 46.4003,2.7292 69.6192,3.6739 23.2189,0.9446 46.4473,1.61 69.6816,1.998 23.2343,0.388 46.4737,0.4977 69.711,0.332 23.2372,-0.1656 46.4733,-0.606 69.7011,-1.3222 23.2278,-0.7163 46.4485,-1.707 69.6543,-2.9707 23.2059,-1.2638 46.3969,-2.8011 69.5684,-4.6094 23.1714,-1.8083 46.3226,-3.8886 69.4473,-6.2383 23.1246,-2.3497 46.2218,-4.9693 69.2871,-7.8574 23.0653,-2.8881 46.0982,-6.0434 69.0918,-9.4668 22.9935,-3.4234 45.9481,-7.1147 68.8574,-11.0703 22.9093,-3.9557 45.7733,-8.1773 68.5859,-12.6621 22.8126,-4.4849 45.5739,-9.2331 68.2774,-14.2442 22.7034,-5.011 45.3497,-10.2842 67.9316,-15.8183 22.5819,-5.5342 45.099,-11.3286 67.5469,-17.3828 22.4478,-6.0543 44.8256,-12.3683 67.1269,-18.9395 22.3013,-6.5712 44.5276,-13.3992 66.67,-20.4844 4.0258,-1.2882 8.0109,-2.6987 12.0312,-4.0039 V 0 Z"
           transform="scale(0.26458333)" />
      </g>
      <g
         id="g9596"
         transform="translate(2556.8883,-682.95205)"
         style="fill:#ffffff">
        <path
           d="m -1985.3921,1046.2495 v 41.4054 h -4.7679 v -26.0352 l 0.5646,-10.9159 h -0.063 l -13.6136,36.9511 h -4.266 l -13.6136,-36.9511 h -0.063 l 0.5647,10.9159 v 26.0352 h -4.7679 v -41.4054 h 7.7164 l 9.0967,25.1569 3.1367,10.3514 h 0.1255 l 3.1995,-10.2886 9.0339,-25.2197 z"
           id="path9564"
           style="font-size:62.7354px;line-height:1.25;font-family:'Work Sans';-inkscape-font-specification:'Work Sans, Normal';letter-spacing:0px;word-spacing:0px;fill:#ffffff;stroke-width:2.35257" />
        <path
           d="m -1955.1538,1045.6222 q 5.8971,0 10.1631,2.6349 4.3288,2.5721 6.65,7.34 2.3839,4.7679 2.3839,11.3551 0,6.5872 -2.3839,11.3551 -2.3212,4.7679 -6.65,7.4028 -4.266,2.5722 -10.1631,2.5722 -5.8971,0 -10.2259,-2.5722 -4.266,-2.6349 -6.6499,-7.4028 -2.3212,-4.7679 -2.3212,-11.3551 0,-6.5872 2.3212,-11.3551 2.3839,-4.7679 6.6499,-7.34 4.3288,-2.6349 10.2259,-2.6349 z m 0,4.7051 q -4.266,0 -7.4028,2.0076 -3.1367,1.9448 -4.8306,5.7089 -1.6938,3.7014 -1.6938,8.9084 0,5.2071 1.6938,8.9712 1.6939,3.7014 4.8306,5.7089 3.1368,1.9448 7.4028,1.9448 4.3288,0 7.4028,-1.9448 3.1368,-2.0075 4.8306,-5.7089 1.6939,-3.7641 1.6939,-8.9712 0,-5.207 -1.6939,-8.9084 -1.6938,-3.7641 -4.8306,-5.7089 -3.074,-2.0076 -7.4028,-2.0076 z"
           id="path9566"
           style="font-size:62.7354px;line-height:1.25;font-family:'Work Sans';-inkscape-font-specification:'Work Sans, Normal';letter-spacing:0px;word-spacing:0px;fill:#ffffff;stroke-width:2.35257" />
        <path
           d="m -1911.5527,1046.2495 q 9.724,0 15.2447,5.3953 5.5834,5.3325 5.5834,15.3074 0,9.975 -5.5834,15.3702 -5.5207,5.3325 -15.2447,5.3325 h -13.3627 v -41.4054 z m 0.5019,36.7003 q 7.0891,0 11.0414,-4.2033 4.015,-4.266 4.015,-11.7943 0,-7.5282 -4.015,-11.7315 -3.9523,-4.266 -11.0414,-4.266 h -8.8457 v 31.9951 z"
           id="path9568"
           style="font-size:62.7354px;line-height:1.25;font-family:'Work Sans';-inkscape-font-specification:'Work Sans, Normal';letter-spacing:0px;word-spacing:0px;fill:#ffffff;stroke-width:2.35257" />
        <path
           d="m -1879.6832,1087.6549 v -41.4054 h 29.0465 v 4.7052 h -24.0277 v 13.3626 h 18.6952 v 4.7052 h -18.6952 v 13.9273 h 24.9687 v 4.7051 z"
           id="path9570"
           style="font-size:62.7354px;line-height:1.25;font-family:'Work Sans';-inkscape-font-specification:'Work Sans, Normal';letter-spacing:0px;word-spacing:0px;fill:#ffffff;stroke-width:2.35257" />
        <path
           d="m -1823.9743,1046.2495 q 6.3363,0 10.1631,3.2623 3.8269,3.2622 3.8269,8.8457 0,5.5834 -3.8896,8.7202 -3.8268,3.074 -10.1631,3.074 l -0.4392,0.3137 h -10.1631 v 17.1895 h -5.0188 v -41.4054 z m -0.063,19.5108 q 4.4542,0 6.5872,-1.8194 2.1957,-1.882 2.1957,-5.5834 0,-3.7014 -2.1957,-5.5207 -2.133,-1.8821 -6.5872,-1.8821 h -10.6023 v 14.8056 z m 2.8858,1.0037 13.6763,20.8909 h -5.9598 l -11.9198,-18.1305 z"
           id="path9572"
           style="font-size:62.7354px;line-height:1.25;font-family:'Work Sans';-inkscape-font-specification:'Work Sans, Normal';letter-spacing:0px;word-spacing:0px;fill:#ffffff;stroke-width:2.35257" />
        <path
           d="m -1765.4422,1046.2495 v 41.4054 h -6.2108 l -17.315,-27.729 -4.3915,-7.7792 h -0.063 l 0.2509,6.2735 v 29.2347 h -4.7678 v -41.4054 h 6.2108 l 17.2522,27.6036 4.4542,7.9674 h 0.063 l -0.2509,-6.3363 v -29.2347 z"
           id="path9574"
           style="font-size:62.7354px;line-height:1.25;font-family:'Work Sans';-inkscape-font-specification:'Work Sans, Normal';letter-spacing:0px;word-spacing:0px;fill:#ffffff;stroke-width:2.35257" />
        <path
           d="m -1981.1163,1113.7762 v -16.8539 h 6.001 q 2.9877,0 4.3667,1.2513 1.3789,1.2512 1.3789,3.3963 0,1.2768 -0.7405,2.3238 -0.7406,1.0214 -2.094,1.3023 v 0.026 q 1.5067,0.2809 2.3749,1.379 0.8938,1.0725 0.8938,2.4514 0,2.1451 -1.6088,3.4474 -1.6088,1.2768 -4.5965,1.2768 z m 2.0429,-1.9152 h 4.4178 q 1.813,0 2.6813,-0.7406 0.8937,-0.7405 0.8937,-2.0684 0,-1.3534 -0.8937,-2.0685 -0.8683,-0.7405 -2.6813,-0.7405 h -4.4178 z m 0,-7.5332 h 3.9836 q 3.5751,0 3.5751,-2.7579 0,-2.7324 -3.5751,-2.7324 h -3.9836 z"
           id="path9576"
           style="font-size:25.5362px;line-height:1.25;font-family:'Work Sans';-inkscape-font-specification:'Work Sans, Normal';letter-spacing:0px;word-spacing:0px;fill:#ffffff;stroke-width:0.957606" />
        <path
           d="m -1951.2645,1113.7762 h -2.1706 l -1.7875,-4.6731 h -7.6353 l -1.7876,4.6731 h -2.145 l 6.5628,-16.8539 h 2.4259 z m -10.8529,-6.5884 h 6.1543 l -3.0899,-8.2992 z"
           id="path9578"
           style="font-size:25.5362px;line-height:1.25;font-family:'Work Sans';-inkscape-font-specification:'Work Sans, Normal';letter-spacing:0px;word-spacing:0px;fill:#ffffff;stroke-width:0.957606" />
        <path
           d="m -1934.8192,1109.4606 q -0.5363,1.43 -1.5322,2.477 -0.9959,1.0214 -2.3493,1.5577 -1.3279,0.5362 -2.9111,0.5362 -2.4004,0 -4.1624,-1.0469 -1.7365,-1.0726 -2.7069,-3.0133 -0.9448,-1.9408 -0.9448,-4.6221 0,-2.6813 0.9448,-4.622 0.9704,-1.9408 2.7069,-2.9878 1.762,-1.0725 4.1113,-1.0725 1.6343,0 2.9111,0.4597 1.2768,0.4341 2.1706,1.3279 0.9193,0.8682 1.4556,2.145 l -2.0174,0.9448 q -0.5618,-1.4555 -1.6343,-2.1961 -1.047,-0.7661 -2.7324,-0.7661 -1.7109,0 -3.0133,0.8172 -1.3023,0.7916 -2.0429,2.2982 -0.715,1.5067 -0.715,3.6517 0,2.1195 0.6895,3.6517 0.6895,1.5066 1.9663,2.3238 1.2768,0.7916 3.0133,0.7916 1.6854,0 2.9366,-0.8427 1.2513,-0.8682 1.8131,-2.5791 z"
           id="path9580"
           style="font-size:25.5362px;line-height:1.25;font-family:'Work Sans';-inkscape-font-specification:'Work Sans, Normal';letter-spacing:0px;word-spacing:0px;fill:#ffffff;stroke-width:0.957606" />
        <path
           d="m -1917.6844,1096.9223 -7.3545,7.5332 -0.3064,0.3319 -4.5199,4.6221 v -2.7579 l 9.4995,-9.7293 z m -11.1594,0 v 16.8539 h -2.0429 v -16.8539 z m 4.0092,6.2308 7.2268,10.6231 h -2.4515 l -6.4607,-9.474 z"
           id="path9582"
           style="font-size:25.5362px;line-height:1.25;font-family:'Work Sans';-inkscape-font-specification:'Work Sans, Normal';letter-spacing:0px;word-spacing:0px;fill:#ffffff;stroke-width:0.957606" />
        <path
           d="m -1908.1084,1114.0315 q -2.4004,0 -4.1624,-1.0469 -1.7365,-1.0726 -2.7069,-3.0133 -0.9448,-1.9408 -0.9448,-4.6221 0,-2.6813 0.9959,-4.622 1.0214,-1.9408 2.8345,-2.9878 1.8131,-1.0725 4.1624,-1.0725 2.5026,0 4.0603,0.9449 1.5832,0.9448 2.5536,2.9111 l -1.8642,1.0214 q -0.5618,-1.4555 -1.7875,-2.1961 -1.2002,-0.7661 -2.9622,-0.7661 -1.7109,0 -3.0388,0.8172 -1.3023,0.7916 -2.0684,2.3238 -0.7406,1.5066 -0.7406,3.6261 0,2.1195 0.6384,3.6517 0.664,1.5066 1.9408,2.3238 1.3023,0.7916 3.1665,0.7916 1.047,0 1.9407,-0.2553 0.9193,-0.2809 1.5833,-0.8172 0.6894,-0.5363 1.0725,-1.3534 0.383,-0.8172 0.383,-1.9152 v -0.5874 h -5.3626 v -1.9152 h 7.2268 v 8.5036 h -1.6088 l -0.1021,-3.141 0.4341,0.077 q -0.664,1.5833 -2.094,2.4515 -1.43,0.8682 -3.5495,0.8682 z"
           id="path9584"
           style="font-size:25.5362px;line-height:1.25;font-family:'Work Sans';-inkscape-font-specification:'Work Sans, Normal';letter-spacing:0px;word-spacing:0px;fill:#ffffff;stroke-width:0.957606" />
        <path
           d="m -1890.0288,1096.9223 q 2.5791,0 4.1368,1.3279 1.5577,1.3278 1.5577,3.6006 0,2.2727 -1.5832,3.5495 -1.5577,1.2513 -4.1369,1.2513 l -0.1787,0.1277 h -4.1369 v 6.9969 h -2.0429 v -16.8539 z m -0.026,7.9417 q 1.813,0 2.6813,-0.7405 0.8937,-0.7661 0.8937,-2.2727 0,-1.5067 -0.8937,-2.2472 -0.8683,-0.7661 -2.6813,-0.7661 h -4.3156 v 6.0265 z m 1.1746,0.4086 5.5669,8.5036 h -2.4259 l -4.8519,-7.38 z"
           id="path9586"
           style="font-size:25.5362px;line-height:1.25;font-family:'Work Sans';-inkscape-font-specification:'Work Sans, Normal';letter-spacing:0px;word-spacing:0px;fill:#ffffff;stroke-width:0.957606" />
        <path
           d="m -1872.7919,1096.6669 q 2.4004,0 4.1368,1.0725 1.762,1.047 2.7069,2.9878 0.9703,1.9407 0.9703,4.622 0,2.6813 -0.9703,4.6221 -0.9449,1.9407 -2.7069,3.0133 -1.7364,1.0469 -4.1368,1.0469 -2.4004,0 -4.1624,-1.0469 -1.7365,-1.0726 -2.7069,-3.0133 -0.9448,-1.9408 -0.9448,-4.6221 0,-2.6813 0.9448,-4.622 0.9704,-1.9408 2.7069,-2.9878 1.762,-1.0725 4.1624,-1.0725 z m 0,1.9152 q -1.7365,0 -3.0133,0.8172 -1.2768,0.7916 -1.9663,2.3238 -0.6895,1.5066 -0.6895,3.6261 0,2.1195 0.6895,3.6517 0.6895,1.5066 1.9663,2.3238 1.2768,0.7916 3.0133,0.7916 1.762,0 3.0132,-0.7916 1.2768,-0.8172 1.9663,-2.3238 0.6895,-1.5322 0.6895,-3.6517 0,-2.1195 -0.6895,-3.6261 -0.6895,-1.5322 -1.9663,-2.3238 -1.2512,-0.8172 -3.0132,-0.8172 z"
           id="path9588"
           style="font-size:25.5362px;line-height:1.25;font-family:'Work Sans';-inkscape-font-specification:'Work Sans, Normal';letter-spacing:0px;word-spacing:0px;fill:#ffffff;stroke-width:0.957606" />
        <path
           d="m -1847.5877,1096.9223 v 10.572 q 0,3.2431 -1.7109,4.9029 -1.711,1.6343 -4.903,1.6343 -3.1665,0 -4.9029,-1.6343 -1.711,-1.6598 -1.711,-4.9029 v -10.572 h 2.0429 v 10.0612 q 0,2.6303 1.0981,3.8815 1.1236,1.2513 3.4729,1.2513 2.3493,0 3.4474,-1.2513 1.1236,-1.2512 1.1236,-3.8815 v -10.0612 z"
           id="path9590"
           style="font-size:25.5362px;line-height:1.25;font-family:'Work Sans';-inkscape-font-specification:'Work Sans, Normal';letter-spacing:0px;word-spacing:0px;fill:#ffffff;stroke-width:0.957606" />
        <path
           d="m -1829.1762,1096.9223 v 16.8539 h -2.5281 l -7.0479,-11.287 -1.7876,-3.1665 h -0.025 l 0.1022,2.5536 v 11.8999 h -1.9408 v -16.8539 h 2.5281 l 7.0224,11.2359 1.8131,3.2431 h 0.025 l -0.1021,-2.5791 v -11.8999 z"
           id="path9592"
           style="font-size:25.5362px;line-height:1.25;font-family:'Work Sans';-inkscape-font-specification:'Work Sans, Normal';letter-spacing:0px;word-spacing:0px;fill:#ffffff;stroke-width:0.957606" />
        <path
           d="m -1818.2212,1096.9223 q 3.9582,0 6.2053,2.1961 2.2728,2.1706 2.2728,6.2308 0,4.0603 -2.2728,6.2564 -2.2471,2.1706 -6.2053,2.1706 h -5.4392 v -16.8539 z m 0.2043,14.9387 q 2.8856,0 4.4944,-1.711 1.6343,-1.7364 1.6343,-4.8008 0,-3.0643 -1.6343,-4.7752 -1.6088,-1.7365 -4.4944,-1.7365 h -3.6006 v 13.0235 z"
           id="path9594"
           style="font-size:25.5362px;line-height:1.25;font-family:'Work Sans';-inkscape-font-specification:'Work Sans, Normal';letter-spacing:0px;word-spacing:0px;fill:#ffffff;stroke-width:0.957606" />
      </g>
    </g>
  </g>
</svg>
